<?xml version="1.0" standalone="no"?>
<!DOCTYPE svg PUBLIC "-//W3C//DTD SVG 1.1//EN" "http://www.w3.org/Graphics/SVG/1.1/DTD/svg11.dtd" >
<svg xmlns="http://www.w3.org/2000/svg" xmlns:xlink="http://www.w3.org/1999/xlink" version="1.1">
<metadata>
Created by FontForge 20170731 at Tue Oct 14 02:58:57 2014
 By Aleksey,,,
Copyright (c) 2013 by Emil Bertell. All rights reserved.
</metadata>
<defs>
<font id="BonbonLightW00-Regular" horiz-adv-x="414" >
  <font-face 
    font-family="BonbonLightW00-Regular"
    font-weight="400"
    font-stretch="normal"
    units-per-em="1000"
    panose-1="1 0 0 0 0 0 0 0 0 0"
    ascent="800"
    descent="-200"
    x-height="515.5"
    cap-height="858"
    bbox="-1077 -927.966 2535.36 1441.78"
    underline-thickness="50"
    underline-position="-225"
    unicode-range="U+0020-2212"
  />
<missing-glyph horiz-adv-x="150" 
 />
    <glyph glyph-name=".notdef" horiz-adv-x="150" 
 />
    <glyph glyph-name=".null" horiz-adv-x="0" 
 />
    <glyph glyph-name="nonmarkingreturn" horiz-adv-x="333" 
 />
    <glyph glyph-name="space" unicode=" " horiz-adv-x="150" 
 />
    <glyph glyph-name="exclam" unicode="!" horiz-adv-x="321" 
d="M134 176q-11 -2 -16 2.5t-6 14.5t1.5 25t6.5 35q4 24 13 68t20.5 98t24.5 113t24.5 114t21.5 100l16 72q0 1 17.5 -1t37 -8t34.5 -16.5t10 -25.5q-1 -3 -10.5 -30t-23.5 -69t-32.5 -94.5t-37.5 -107.5q-45 -128 -101 -290zM156 22q-6 -10 -17 -18t-24 -11.5t-27.5 -3
t-26.5 6.5q-25 13 -36 33t2 41q6 10 17 18t24 11.5t27 3t27 -6.5q25 -13 36 -33t-2 -41z" />
    <glyph glyph-name="quotedbl" unicode="&#x22;" horiz-adv-x="272" 
d="M223 486q0 -2 -3 -4.5t-7.5 -3.5t-9 1.5t-6.5 10.5q-5 17 -4 46.5t4 60t7.5 57t7.5 37.5v1q17 5 32.5 2t26.5 -9.5t16.5 -14t2.5 -12.5q-11 -17 -23 -39.5t-22 -46.5t-16 -47t-6 -39zM111 495q0 -2 -3.5 -4.5t-8 -3.5t-8.5 1.5t-6 10.5q-5 17 -4.5 45t3.5 57t7.5 54
t7.5 36v1q17 5 32.5 2t26.5 -9.5t16.5 -14t2.5 -12.5q-11 -17 -23 -38.5t-21.5 -43.5t-15.5 -43.5t-6 -37.5z" />
    <glyph glyph-name="numbersign" unicode="#" horiz-adv-x="556" 
d="M377 -4q-15 -3 -23.5 1.5t-11.5 20t-0.5 45.5t10.5 79q-31 4 -72.5 7t-98.5 6h-9q0 -2 -0.5 -3t-0.5 -3q-14 -54 -21 -84.5t-10 -45.5q-4 -18 -4 -23q-15 -3 -24 2t-11.5 22.5t1 50.5t12.5 87q-32 1 -50 1h-27h-11h-2q-5 12 -3.5 20.5t12 14.5t32.5 9.5t59 5.5
q8 46 19 104.5t23 118.5q-27 1 -42.5 1.5t-23.5 0.5h-10h-2q-5 12 -4 20t10.5 14t29 9.5t52.5 5.5q9 48 18 91t16 73q0 1 17 0t35.5 -6.5t32.5 -15.5t9 -25q-2 -5 -11.5 -34t-25.5 -79h6l146 3q9 47 17 87.5t15 69.5q0 1 17 0t36 -6.5t33 -15.5t9 -25l-37 -110h62
q1 0 3 -16.5t0.5 -36t-8.5 -35.5t-23 -14q-6 1 -17 5.5t-43 11.5q-26 -81 -54 -189h78q1 0 3 -17t0.5 -36.5t-8.5 -35t-23 -13.5q-3 0 -7.5 2t-12 4.5t-19.5 6t-32 6.5q-12 -48 -18.5 -75t-9.5 -41q-4 -16 -3 -21zM249 429q-14 -45 -29.5 -99.5t-32.5 -117.5h22l157 3
l39 202q-29 3 -67.5 6t-88.5 6z" />
    <glyph glyph-name="dollar" unicode="$" horiz-adv-x="365" 
d="M305 177q9 -40 1 -69.5t-26 -50t-44 -33t-53 -18.5q-8 -38 -13 -61t-7.5 -36t-3.5 -17.5l-1 -4.5q-9 -2 -15 1t-9 15t-1.5 35.5t7.5 62.5q-29 -2 -51 2.5t-31 13.5q-12 13 -23 31t-14 47.5t5 72t33 103.5l1 1q10 1 25 -1.5t28 -9t21 -15.5t5 -20q-1 -2 -8 -15t-16.5 -31
t-20 -39t-18 -39t-11 -31.5t1.5 -15.5q7 -3 23 -6.5t35.5 -4t39.5 3t35 15t22 31t0 51.5q-5 22 -19 50t-30 57.5t-30.5 59t-19.5 53.5q-9 39 -2.5 68.5t22.5 50t39.5 33t48.5 18.5q5 30 9.5 55t9.5 42q0 1 15.5 0.5t32.5 -5t29 -13.5t7 -24q-2 -3 -5.5 -16t-10.5 -36
q22 -5 31 -14q16 -16 25 -31.5t10 -36.5t-6.5 -51t-25.5 -74v-1q-11 -1 -25.5 2t-27.5 9t-21 15.5t-5 20.5q1 3 14 19t26.5 34.5t23 35t2.5 20.5t-21.5 8.5t-32 6t-35 -1t-30 -13t-18 -30t1.5 -50.5q5 -23 19.5 -53t31 -61.5t31 -62t19.5 -52.5z" />
    <glyph glyph-name="percent" unicode="%" horiz-adv-x="803" 
d="M303 12q-16 0 -23.5 7.5t-5.5 28t14.5 58t36.5 97.5q15 38 38 93.5t47.5 116t49 118.5t42.5 102q-70 -46 -121 -62q5 -26 2 -59t-14 -68q-18 -56 -46.5 -96.5t-61 -66.5t-66.5 -38t-64 -12q-36 0 -60 20t-37 51.5t-13.5 71t11.5 79.5q21 69 56.5 115.5t72.5 72t68.5 29.5
t45.5 -11q4 -5 7.5 -9t6.5 -9q2 0 4.5 0.5t5.5 0.5q29 0 47 -12.5t28 -33.5q26 6 61 23.5t82 50.5l2 1q0 1 18 -0.5t37.5 -6.5t32.5 -14.5t5 -23.5q-3 -5 -25 -45.5t-56.5 -104.5t-77 -147t-85.5 -174q-24 -50 -37 -78.5t-19 -42.5t-7.5 -18zM713 424q4 -5 7.5 -9.5
t6.5 -9.5q3 1 10 1q33 0 52.5 -16.5t27.5 -43.5t5 -63t-15 -75q-18 -56 -46.5 -96t-61 -66t-66.5 -38.5t-64 -12.5q-36 0 -60 20t-37 52t-13.5 71.5t11.5 79.5q21 69 56.5 115.5t72.5 72t68.5 29.5t45.5 -11zM723 208q10 35 16.5 68.5t7.5 59.5q-9 12 -20 30.5t-23 24.5
q-17 9 -38 -1.5t-42 -35t-39.5 -60t-30.5 -76.5q-10 -34 -13 -69t1 -63t15 -45.5t29 -17.5q17 0 37 16t39 42.5t35 59.5t26 67zM285 444q8 31 13 62.5t6 58.5q-15 3 -24.5 10.5t-14 16.5t-4.5 18t5 16v1q-17 9 -38 -2t-42 -35.5t-39.5 -60t-30.5 -76.5q-10 -34 -13 -68.5
t1 -62.5t15 -46t29 -18q17 0 37 16.5t39 43t35 59.5t26 67z" />
    <glyph glyph-name="ampersand" unicode="&#x26;" horiz-adv-x="436" 
d="M39 270q15 51 39 85t52 55.5t56.5 32t54.5 15.5q-22 10 -41 26t-31.5 39t-15.5 54t7 70q10 38 27 67.5t38 50t45 32.5t48 16q11 37 17.5 64.5t10.5 42.5q0 1 17.5 -0.5t37 -7.5t34 -16.5t9.5 -26.5q-2 -5 -10.5 -26t-21.5 -54q16 -17 27.5 -38.5t14.5 -51t-3.5 -67
t-26.5 -86.5l-1 -1q-11 -2 -25.5 1t-27.5 9.5t-21 15.5t-5 20q1 2 7 14.5t14 29.5t17 36.5t15 37t8.5 29.5t-2.5 15q-21 11 -46 8t-47.5 -16.5t-40.5 -37.5t-26 -55q-9 -36 -9.5 -67t6 -54.5t19.5 -37t33 -13.5q17 0 32 -1t32 -1q1 0 2 -6t-1.5 -12.5t-10.5 -12.5t-24 -6
h-13.5t-13.5 2q-21 -1 -45.5 -11.5t-48.5 -31.5t-45 -53.5t-33 -76.5q-14 -48 -14.5 -90t10 -73t30 -48.5t45.5 -17.5q30 0 58 16t51 46.5t39 74t22 98.5q1 6 10 10t19.5 6t19.5 2.5l9 0.5q-8 -50 -30 -100.5t-54 -93t-72.5 -72t-84.5 -37.5q-9 -40 -14 -62.5t-7.5 -34
t-3.5 -14.5l-1 -3q-22 -4 -36.5 0t-21.5 18t-7 39.5t8 65.5q-53 26 -71 97.5t12 171.5z" />
    <glyph glyph-name="quotesingle" unicode="'" horiz-adv-x="159" 
d="M110 486q0 -2 -3 -4.5t-7.5 -3.5t-9 1.5t-6.5 10.5q-5 17 -4 46.5t4 60t7.5 57t7.5 37.5v1q17 5 32.5 2t26.5 -9.5t16.5 -14t2.5 -12.5q-11 -17 -23 -39.5t-22 -46.5t-16 -47t-6 -39z" />
    <glyph glyph-name="parenleft" unicode="(" horiz-adv-x="428" 
d="M208 -128q4 -1 5.5 -4.5t-0.5 -7t-8 -5.5t-18 1q-69 16 -107 67t-51.5 121.5t-4.5 153t34 162.5q31 98 73 176.5t91.5 135.5t104.5 91.5t112 45.5q7 1 8 -3t-2 -10t-8 -11.5t-10 -6.5q-44 -8 -85.5 -45.5t-78.5 -95t-68 -129.5t-53 -148q-21 -74 -33.5 -154.5t-8 -150.5
t29.5 -120t78 -63z" />
    <glyph glyph-name="parenright" unicode=")" horiz-adv-x="428" 
d="M261 791q-4 1 -5.5 4.5t0 7t8 5.5t18.5 -1q69 -16 107 -67t51 -121.5t4 -153.5t-34 -162q-31 -98 -73 -176.5t-91.5 -135.5t-104.5 -92t-112 -45q-7 -1 -8 3t2 10t8.5 11.5t10.5 6.5q43 8 85 45.5t79 95t67.5 129.5t52.5 148q21 74 33.5 154.5t8.5 150.5t-29 120t-78 63z
" />
    <glyph glyph-name="asterisk" unicode="*" horiz-adv-x="354" 
d="M279 658q-14 -23 -31 -53t-28 -59q17 9 36.5 18t37.5 16.5t33 13t23 7.5h1q12 -12 17.5 -27t5.5 -27.5t-4 -21t-10 -8.5q-26 1 -60.5 -0.5t-65.5 -5.5q16 -11 34 -23t33.5 -24t27.5 -21.5t17 -15.5l1 -1q-4 -17 -14 -29t-21.5 -18.5t-21 -7.5t-12.5 5q-12 23 -30 52
t-37 53q-1 -20 -3 -41t-4.5 -40.5t-5 -35t-4.5 -22.5q-17 -5 -32.5 -2t-27 9t-16.5 14t-2 13q14 22 30 52t27 59q-17 -9 -36.5 -18t-37.5 -16.5t-32.5 -13t-21.5 -7.5h-1q-13 12 -18.5 27t-5.5 28t4 21.5t10 8.5q26 -2 60.5 -1t65.5 6q-17 10 -34.5 22.5t-33 24.5t-27.5 22
t-17 16h-1q4 17 14 29t21.5 19t21 7.5t12.5 -4.5q11 -23 29.5 -53t37.5 -54q1 19 3 40.5t4 41t5 35t5 23.5l1 1q16 5 31.5 2t27 -9.5t17 -14t2.5 -12.5z" />
    <glyph glyph-name="plus" unicode="+" horiz-adv-x="329" 
d="M155 117q-28 40 -24 122q-23 -1 -49.5 -1t-55.5 2h-1q-5 9 -4 22.5t6 26t14 21.5t21 10q2 0 25 -0.5t55 -1.5q6 28 14 59t19 66v1q10 2 23 -2t24 -12.5t17.5 -19.5t3.5 -22l-22 -73q22 -1 43.5 -1.5t38.5 -1t29 -1t16 -0.5t-2 -6q-20 -23 -55.5 -38t-91.5 -22
q-7 -23 -13.5 -45t-11.5 -40t-8.5 -30t-4.5 -16q-3 -3 -6 3z" />
    <glyph glyph-name="comma" unicode="," horiz-adv-x="158" 
d="M156 20q-5 -29 -24 -54t-44 -45q-12 -10 -22.5 -12.5t-17 -1.5t-9.5 4.5t0 6.5q32 32 37 49.5t-14 28.5q-25 14 -36.5 33.5t1.5 40.5q13 20 41.5 29.5t53.5 -3.5q26 -13 32 -32.5t2 -43.5z" />
    <glyph glyph-name="hyphen" unicode="-" horiz-adv-x="439" 
d="M416 265q-32 -38 -109 -54t-211 -11h-1q-5 9 -4 22.5t6 26t14 21.5t21 10q2 0 22.5 -0.5t50.5 -1.5t65 -2t66 -2.5t53.5 -2t28.5 -0.5q4 0 -2 -6z" />
    <glyph glyph-name="period" unicode="." horiz-adv-x="183" 
d="M156 22q-6 -10 -17 -18t-24 -11.5t-27.5 -3t-26.5 6.5q-25 13 -36 33t1 41q13 20 41.5 29.5t54.5 -3.5q25 -13 36 -33t-2 -41z" />
    <glyph glyph-name="slash" unicode="/" horiz-adv-x="258" 
d="M47 -151q-11 -2 -17.5 2.5t-8 24t3 57.5t16.5 103q5 30 17 91t26.5 137.5t31 160.5t31.5 159t26.5 134t17.5 85q0 1 15.5 1t32.5 -4.5t29.5 -13.5t7.5 -25q-2 -6 -16.5 -48t-39.5 -130t-60 -227.5t-78 -338.5q-12 -54 -18.5 -87t-10.5 -51q-4 -21 -6 -30z" />
    <glyph glyph-name="zero" unicode="0" horiz-adv-x="386" 
d="M329 585q2 1 9 1q28 0 44.5 -24t21 -63.5t-2 -90.5t-23.5 -105q-24 -76 -55.5 -132.5t-66.5 -94.5t-72.5 -57t-73.5 -19q-29 0 -50.5 26.5t-31.5 70t-7 100t21 116.5q25 80 64 143t79.5 102t76 52t52.5 -6zM294 303q10 34 18 68t13.5 65t8.5 56.5t2 42.5q-8 11 -15.5 21
t-15.5 15q-20 11 -45 -7.5t-49.5 -56t-47 -89t-38.5 -105.5q-15 -54 -21.5 -105.5t-5 -91t9.5 -64t20 -24.5q22 0 45 23t45 61t41.5 87.5t34.5 103.5z" />
    <glyph glyph-name="one" unicode="1" horiz-adv-x="202" 
d="M186 607q16 3 24.5 -3t10.5 -26.5t-3 -59.5t-17 -103q-8 -45 -19 -101.5t-22.5 -114t-23 -111t-20.5 -92.5q0 -2 -17 -0.5t-35.5 6.5t-32.5 15t-9 25q4 11 41 113.5t87 298.5q13 53 20.5 83.5t10.5 46t4 19.5z" />
    <glyph glyph-name="two" unicode="2" horiz-adv-x="385" 
d="M294 3q-29 -10 -51 -10t-40.5 5t-35.5 12t-36.5 10.5t-43.5 0t-55 -19.5q-5 -2 -7.5 2.5t-3 11.5t0 13.5t3.5 9.5q117 117 193 230.5t99 201.5q8 31 3.5 51t-16.5 31t-29.5 15t-34.5 3.5t-31.5 -4t-21.5 -6.5q-5 -3 -6 -16t0 -31t3.5 -39t5.5 -39t5.5 -30.5t3.5 -14.5
q3 -11 -5 -20.5t-21 -16t-28 -9.5t-25 -1l-1 1q-22 54 -22.5 95t11.5 71.5t32 52t38 35.5q11 8 34.5 12t51.5 2t56.5 -12.5t49.5 -30.5t30.5 -52t-0.5 -78q-7 -32 -23.5 -65t-39 -64.5t-48.5 -61.5t-52 -56q-62 -62 -135 -118l1 -1q46 15 73 13.5t46 -8t34 -13.5t36 -3
q36 8 54 27.5t27 55.5q1 2 4 3.5t6 1.5t5 -2t1 -7q-4 -15 -10 -35.5t-16.5 -40.5t-27 -36.5t-41.5 -25.5z" />
    <glyph glyph-name="three" unicode="3" horiz-adv-x="394" 
d="M341 172q-11 -49 -33 -82t-50 -53.5t-58.5 -30t-57.5 -10t-48.5 5t-31.5 15.5q-13 13 -24.5 30.5t-15.5 45.5t3.5 70t32.5 103v1q10 1 25 -1.5t28 -9t21 -15.5t5 -20q-1 -2 -7.5 -14.5t-15.5 -30t-18.5 -38t-17 -38t-10 -30.5t2.5 -15q7 -4 21.5 -6.5t32 -1.5t37 7.5
t37.5 20.5t32 37t21 58q17 83 6.5 117.5t-40.5 38.5l-43 -2q-5 0 -7 3t-1 7.5t3.5 8t5.5 3.5q16 0 34 6q45 11 79 41t46 77q13 49 -0.5 72.5t-37.5 29.5t-50.5 0.5t-41.5 -12.5q-7 -4 -6.5 -19.5t4 -33.5t8.5 -33.5t6 -18.5q3 -11 -5 -20.5t-21 -16t-28 -9.5t-25 -1l-1 1
q-15 37 -16 65.5t8.5 51.5t27 40.5t39.5 31.5q12 8 35.5 12t50.5 2t54 -12.5t46 -30.5t27.5 -52t-1.5 -78q-11 -52 -44.5 -74.5t-75.5 -30.5q16 -9 29 -23t21 -33.5t9 -46t-6 -59.5z" />
    <glyph glyph-name="four" unicode="4" horiz-adv-x="358" 
d="M52 146q-5 0 -18 2t-24.5 7t-17 13t4.5 19q4 4 16.5 19.5t38.5 47.5t67.5 84.5t102.5 132.5q33 44 51.5 70t26.5 41q10 17 11 25q16 3 25 -3t11 -26.5t-3 -59.5t-17 -103q-8 -44 -18.5 -96.5t-21.5 -106.5l53 9q1 0 3.5 -8.5t1 -18.5t-8.5 -19t-23 -10q-2 0 -12.5 -1
t-23.5 -2l-35 -166q0 -2 -17 -0.5t-36 6.5t-33 15t-9 25q2 5 13 33.5t28 80.5q-26 -2 -50 -3.5t-43 -3.5q-22 -2 -42 -3h-1zM294 527q-11 -20 -27 -46.5t-39 -60.5q-46 -68 -80 -128.5t-74 -118.5q16 4 50.5 10.5t77.5 14.5q16 49 35 112.5t39 143.5z" />
    <glyph glyph-name="five" unicode="5" horiz-adv-x="371" 
d="M440 607q-3 -19 -13.5 -36.5t-30 -31.5t-49 -22.5t-69.5 -8.5q-17 -1 -44.5 3t-50.5 9l-46 -172l25 5q11 2 25.5 4t30.5 4q82 9 114 -41t10 -148q-11 -49 -33 -82t-50 -53.5t-58.5 -30t-58 -10t-49 5t-31.5 15.5q-13 13 -24.5 30.5t-15.5 45.5t3.5 70t32.5 103l1 1
q10 1 25 -1.5t28 -9t21 -15.5t5 -20q-1 -2 -7.5 -14.5t-15.5 -30t-19 -38t-17 -38t-10 -30.5t2 -15q11 -6 36.5 -8t54.5 8t54.5 36.5t36.5 78.5q10 49 10.5 80t-8 48.5t-24 23t-36.5 4.5q-29 -3 -51.5 -8t-39.5 -13q-9 -5 -12.5 -3t-3.5 4q0 1 3 13t8.5 31t12 42t13.5 47
q16 56 37 126q5 17 13.5 29t23.5 13q2 0 12 -3.5t26 -8.5t36.5 -9.5t44.5 -5.5q25 0 45.5 4t36 10t25.5 11.5t14 7.5q3 3 1 -6z" />
    <glyph glyph-name="six" unicode="6" horiz-adv-x="368" 
d="M352 198q-18 -56 -46.5 -94t-61.5 -61t-67 -33t-63 -10q-35 0 -56.5 26.5t-30.5 70t-4.5 100t22.5 116.5q27 88 70.5 152.5t88.5 102.5t84.5 48t59.5 -12t25.5 -46t2.5 -42q-2 -8 -8.5 -10t-8.5 9q-2 16 -8.5 34.5t-21.5 26.5q-23 12 -50 -3.5t-54 -51t-51.5 -87.5
t-42.5 -114q25 30 56 48t61.5 23.5t57 -3t43 -32t19 -62.5t-15.5 -96zM120 278q-12 -49 -17.5 -94.5t-4.5 -80t9 -55t24 -20.5q17 0 37 14t39 37.5t35 54t26 64.5q15 55 8.5 93.5t-28 53.5t-54 2t-69.5 -62z" />
    <glyph glyph-name="seven" unicode="7" horiz-adv-x="355" 
d="M440 568q-64 -55 -107 -117t-74 -132.5t-55 -151t-49 -171.5q0 -2 -16.5 -0.5t-35 6.5t-32.5 14.5t-10 25.5q12 51 43 116.5t73 133t90.5 130.5t95.5 110v1q-46 -15 -77 -13.5t-53.5 8t-40 13t-38.5 2.5q-37 -8 -50 -25t-8 -54q0 -3 -2 -5.5t-5 -3.5t-5.5 0t-3.5 6
q-2 16 -3.5 37.5t2.5 43t15.5 39.5t36.5 27q29 10 54 9.5t48 -6.5t45.5 -13.5t46 -11.5t50 -1t58.5 19q4 2 7 -2.5t3.5 -11t0 -13.5t-3.5 -9z" />
    <glyph glyph-name="eight" unicode="8" horiz-adv-x="367" 
d="M304 177q10 -46 -1.5 -78.5t-36 -53t-56.5 -31t-62.5 -13t-55.5 2t-34 13.5q-13 13 -25.5 39.5t-12 64t20.5 85t73 102.5v1q6 1 17 -5t20 -15.5t12.5 -20.5t-5.5 -21q-26 -26 -46 -58t-32.5 -60.5t-16.5 -49t3 -24.5q7 -3 23 -6.5t35.5 -4t39.5 3t35 15t22 31t0 51.5
q-5 22 -16.5 61t-24.5 82t-25 83.5t-17 64.5q-10 46 0 78.5t32 53t51.5 31t57.5 13t51 -2.5t33 -14q13 -13 20 -36t1 -55t-28.5 -72t-69.5 -86q-4 1 -9.5 9t-9.5 17t-5.5 17.5t2.5 11.5q38 24 59.5 50t30.5 48t7.5 38t-8.5 20t-21.5 8.5t-32 6t-35 -1t-30 -13t-18 -30
t1.5 -50.5q5 -23 17.5 -64t26 -86t25.5 -86.5t17 -63.5z" />
    <glyph glyph-name="nine" unicode="9" horiz-adv-x="358" 
d="M47 420q18 56 46 94t61 61.5t67 33.5t63 10q34 0 56 -26.5t31 -70.5t4.5 -100t-22.5 -116q-27 -88 -70.5 -152.5t-88.5 -102.5t-85 -48t-59 12q-19 21 -25 45.5t-3 42.5q2 8 8.5 10t8.5 -9q2 -16 8.5 -35t21.5 -27q22 -12 49 3.5t54 50.5t51.5 87t42.5 113
q-26 -29 -57 -47t-61 -23t-56.5 3.5t-42.5 32t-18 62.5t16 96zM130 420q-15 -54 -8.5 -92.5t28 -53.5t54 -2t69.5 62l5 7q12 49 17.5 94t4.5 79.5t-9 55.5t-24 21q-17 0 -37 -14t-39 -37.5t-35 -54.5t-26 -65z" />
    <glyph glyph-name="colon" unicode=":" horiz-adv-x="259" 
d="M156 22q-6 -10 -17 -18t-24 -11.5t-27.5 -3t-26.5 6.5q-25 13 -36 33t1 41q13 20 41.5 29.5t54.5 -3.5q25 -13 36 -33t-2 -41zM232 260q-13 -21 -41.5 -30.5t-54.5 4.5q-25 13 -36 33t2 40q13 21 41.5 30t53.5 -4q26 -13 36.5 -33t-1.5 -40z" />
    <glyph glyph-name="semicolon" unicode=";" horiz-adv-x="259" 
d="M156 20q-5 -29 -24 -54t-44 -45q-12 -10 -22.5 -12.5t-17 -1.5t-9.5 4.5t0 6.5q32 32 37 49.5t-14 28.5q-25 14 -36.5 33.5t1.5 40.5q13 20 41.5 29.5t53.5 -3.5q26 -13 32 -32.5t2 -43.5zM232 260q-6 -11 -17 -18.5t-24.5 -11.5t-27.5 -3.5t-26 7.5q-26 13 -37 33t2 40
q13 21 41.5 30t54.5 -4q25 -13 36 -33t-2 -40z" />
    <glyph glyph-name="less" unicode="&#x3c;" horiz-adv-x="319" 
d="M13 233q10 28 75.5 74.5t182.5 118.5l1 1q9 -5 16 -17t9.5 -25t0 -25.5t-11.5 -19.5q-2 -2 -18.5 -9t-41.5 -17.5t-55 -23t-58.5 -24t-52 -21t-35.5 -14.5q24 2 50 -4t58.5 -21t72 -41t90.5 -65q0 -1 1 -1q-2 -11 -10 -21.5t-19.5 -17.5t-24.5 -9t-23 4q-2 1 -17 13.5
t-37 30t-47.5 38.5t-48 40t-39 32.5t-20.5 17.5q-1 0 1 2q0 2 1 4z" />
    <glyph glyph-name="equal" unicode="=" horiz-adv-x="393" 
d="M370 335q-32 -38 -109.5 -54t-210.5 -11h-1q-5 9 -4.5 22.5t6 26t14 21.5t20.5 10q2 0 22.5 -0.5t51 -1.5t65 -2t66 -2.5t54 -2t27.5 -0.5q3 0 -1 -6zM346 195q-32 -38 -109.5 -54t-210.5 -11h-1q-5 9 -4 22.5t6 26t14 21.5t21 10q2 0 22.5 -0.5t50.5 -1.5t65 -2t66 -2.5
t53.5 -2t28.5 -0.5q4 0 -2 -6z" />
    <glyph glyph-name="greater" unicode="&#x3e;" horiz-adv-x="329" 
d="M306 233q-10 -28 -75.5 -74.5t-182.5 -118.5l-1 -1q-9 5 -16 17t-9.5 25t0 25.5t11.5 19.5q2 1 18.5 8.5t41.5 17.5t55 22.5t58.5 24.5t52 21.5t35.5 14.5q-24 -2 -50.5 3.5t-58.5 21t-72 41.5t-90 65q0 1 -1 1q1 10 9.5 21t20 18t24.5 9t23 -4q2 -1 17 -13.5t37 -30
t47.5 -38.5t48 -40t39 -32.5t20.5 -17.5q0 -2 -1 -2q0 -1 -0.5 -2t-0.5 -2z" />
    <glyph glyph-name="question" unicode="?" horiz-adv-x="391" 
d="M132 221q-9 -21 -10.5 -35.5t-2.5 -14.5q-27 0 -31 22.5t7 49.5q9 20 37.5 53t63.5 84t70.5 123.5t56.5 172.5q7 31 1.5 51t-17.5 31.5t-28.5 15t-33.5 3t-31 -4t-21 -6.5q-5 -3 -6 -16t0 -31t3.5 -39t5.5 -39t5 -31t3 -15q3 -11 -4.5 -20t-20.5 -15.5t-28 -9.5t-26 -1v1
q-22 54 -22.5 95t11.5 71.5t32 52t38 35.5q11 8 34 12t51 2t56.5 -12.5t49.5 -30.5t31 -52t0 -78q-9 -41 -29 -80.5t-46.5 -77t-56 -74t-57 -70t-50.5 -64.5t-35 -58zM157 22q-13 -20 -41.5 -29.5t-54.5 3.5q-25 13 -36 33t2 41q6 10 17 18t24 11.5t27.5 3t26.5 -6.5
q25 -13 36 -33t-1 -41z" />
    <glyph glyph-name="at" unicode="@" horiz-adv-x="846" 
d="M818 251q-26 -80 -68 -135t-87.5 -85.5t-86.5 -38t-65 9.5q-11 8 -16.5 27.5t-6 46t3.5 58t13 63.5q1 4 0.5 3.5t-1.5 -3.5q-9 -26 -23 -60t-33 -64.5t-42.5 -51.5t-50.5 -21q-31 0 -51.5 22.5t-29.5 59t-6.5 84t17.5 97.5q23 75 60.5 128.5t76 84t72 38t49.5 -9.5
q11 -13 20.5 -28.5t16.5 -29.5q11 -2 22.5 -6t20.5 -9.5t14 -13t2 -15.5q-1 -3 -11.5 -28t-24 -63.5t-27.5 -87t-22 -97.5q-9 -51 -2.5 -78t22 -32t37.5 9.5t46 45.5t47 76.5t40 103.5q14 49 20.5 103t3.5 106t-15.5 99.5t-35.5 84.5t-57.5 60t-80.5 26q-71 4 -144.5 -31
t-137.5 -99t-112 -152t-68 -189q-16 -82 -11.5 -156t26 -134t58.5 -103.5t85 -64.5t105 -17t120 39q3 2 7 0.5t5 -5.5t-2 -9.5t-14 -11.5q-71 -40 -138.5 -46.5t-125 14t-103 65.5t-73 107.5t-34.5 140t12 164.5q27 122 85 219.5t135.5 164.5t168.5 101t183 28
q57 -4 99.5 -27.5t72 -62t45.5 -88t20.5 -104.5t-2 -112t-23.5 -110zM555 446q-5 6 -10.5 11.5t-10.5 8.5q-15 8 -38 -6t-47 -43.5t-45.5 -69.5t-34.5 -84t-16.5 -81t-0.5 -64t12 -42t22 -15q26 0 52.5 41t55.5 140l57 189z" />
    <glyph glyph-name="A" unicode="A" horiz-adv-x="623" 
d="M54 -3q-28 -5 -37.5 1.5t-3 28.5t30 61t61.5 101q18 29 51.5 79.5t74 112t84.5 127.5l84 126t71.5 108.5t47.5 75.5q1 2 17.5 -1t30.5 -11l2 7q0 1 18 1t38 -4.5t34.5 -14.5t7.5 -28q0 -2 -7.5 -23t-18 -57t-22 -84.5t-20.5 -103.5q-12 -74 -21.5 -131t-16.5 -102
t-12 -79t-9 -62q-8 -55 1.5 -65.5t32.5 8.5q7 6 18.5 20.5t24.5 34.5t27 44t26 48q14 26 19 30t5 -10q0 -5 -3 -15t-12 -26q-23 -40 -46.5 -77.5t-48.5 -63.5q-56 -61 -92 -46q-14 6 -20 22.5t-7 41t1.5 56.5t7.5 69q2 14 4.5 37t7.5 52l-2 -2q-30 -35 -101.5 -51.5
t-193.5 -13.5q-13 -20 -23.5 -37t-18.5 -31q-32 -54 -50 -84.5t-27.5 -45.5t-12 -19zM485 290q6 46 14.5 104.5t18 118.5t18.5 118t17 103q-27 -35 -74.5 -98t-101.5 -141q-38 -53 -72.5 -102.5t-63.5 -94.5q28 -1 67.5 -2.5t76.5 -2.5t65.5 -2t34.5 -1z" />
    <glyph glyph-name="B" unicode="B" horiz-adv-x="421" 
d="M387 173q-18 -56 -54 -96t-80.5 -62.5t-92 -27.5t-88.5 10q-16 6 -30 20.5t-22 38.5t-9 57.5t10 75.5q7 28 19.5 72t27.5 96.5t31.5 109t32 109t28 97.5t19.5 75q-35 -17 -69.5 -43t-64.5 -63q-3 -4 -7 8t-7 28.5t-3.5 31.5t2.5 18q13 13 42.5 29t69.5 30t88 24t97 10
q38 0 73.5 -12.5t59 -39.5t30 -69t-12.5 -102q-29 -89 -90.5 -150t-136.5 -88q37 -7 68.5 -22t51 -38t25 -55t-7.5 -72zM307 782q-46 0 -102 -22q12 -2 26.5 -6t26.5 -10t19 -14.5t4 -19.5q-2 -6 -12 -31t-24.5 -63t-32 -87t-35.5 -103l-20 -60h32q31 5 61.5 25t57.5 50.5
t49 71t36 85.5q16 54 13.5 89.5t-17 56.5t-37 29.5t-45.5 8.5zM145 327q-20 -60 -31 -100.5t-18 -76.5q-5 -26 -8.5 -49.5t-3.5 -41.5t5 -29t18 -12q23 -2 51.5 4.5t56 24.5t51 48.5t37.5 77.5q13 43 6 72.5t-28.5 47.5t-54 26t-71.5 8h-10z" />
    <glyph glyph-name="C" unicode="C" horiz-adv-x="343" 
d="M369 466q-11 -2 -25.5 1t-27.5 9t-21 15.5t-5 20.5q1 2 8.5 20t18.5 44t22.5 56t20.5 56t13 44t-1 21q-62 31 -122 -46.5t-115 -270.5q-27 -93 -34 -164t-2 -119t17.5 -73.5t24.5 -27.5q16 -3 38 7t46.5 31t49.5 52.5t46 72.5q14 26 18.5 30t4.5 -10q0 -5 -2.5 -15
t-11.5 -26q-22 -38 -49 -73t-56.5 -62t-61 -43t-62.5 -16q-28 0 -51 30.5t-33 87.5t-3.5 137.5t37.5 180.5q37 121 81.5 203t89.5 126t86 50t72 -25q13 -13 22 -42t10 -71t-8.5 -96t-34.5 -115z" />
    <glyph glyph-name="D" unicode="D" horiz-adv-x="446" 
d="M72 -3q-16 6 -30 20.5t-22 38.5t-9 57.5t10 75.5q7 28 19.5 72t27.5 96.5t31.5 109t32 109t28 97.5t19.5 75q-35 -17 -69.5 -43t-64.5 -63q-3 -4 -7 8t-7 28.5t-3.5 31.5t2.5 18q13 13 42.5 29t69.5 30t88 24t97 10q56 0 99 -26.5t66.5 -78.5t22.5 -128t-32 -176
q-38 -120 -91.5 -205t-110.5 -136.5t-112.5 -69.5t-96.5 -4zM307 782q-46 0 -102 -22q12 -2 26.5 -6t26.5 -10t19 -14.5t4 -19.5q-2 -6 -12 -31t-24.5 -63t-32 -87t-35.5 -103t-31 -94.5t-22.5 -72.5t-16 -58t-11.5 -51q-5 -26 -8.5 -49.5t-3.5 -41.5t5 -29.5t18 -11.5
q27 -1 65 24t78.5 74.5t80 123.5t68.5 172q28 94 32.5 163.5t-9.5 115.5t-44 68.5t-71 22.5z" />
    <glyph glyph-name="E" unicode="E" horiz-adv-x="356" 
d="M29 270q15 50 39 84t52 55.5t56.5 32.5t54.5 16q-22 10 -41 26t-31.5 39t-15.5 54t7 70q15 61 48.5 99t71.5 55t74 14t58 -25q16 -17 28 -38.5t15 -51t-4 -67.5t-27 -87l-1 -1q-11 -2 -25.5 1t-27.5 9.5t-20.5 15.5t-4.5 20q0 2 6 14.5t14 29.5t17 36.5t15 37t8.5 29.5
t-2.5 15q-21 11 -46 8t-47.5 -16.5t-40.5 -37.5t-26 -55q-9 -36 -9.5 -67t6 -54.5t19.5 -37t33 -13.5q17 0 32 -1t32 -1q1 0 2.5 -6t-1.5 -12.5t-11 -12.5t-24 -6h-13.5t-13.5 2q-21 -1 -45.5 -11.5t-48.5 -31.5t-45 -53.5t-33 -76.5q-14 -48 -14.5 -90t10 -73t30 -48.5
t45.5 -17.5q21 0 48 12t55.5 34.5t56 55t48.5 72.5q14 26 19 30t5 -10q0 -5 -3 -15t-12 -26q-21 -38 -49.5 -74.5t-62 -65.5t-70.5 -47t-75 -18q-41 0 -71 21t-46 58.5t-16.5 89t18.5 112.5z" />
    <glyph glyph-name="F" unicode="F" horiz-adv-x="466" 
d="M515 393q-20 -23 -57.5 -38t-94.5 -22q-36 -107 -79.5 -181t-86.5 -114t-82.5 -45.5t-68.5 23.5q-13 13 -22 42t-10 71t8.5 95.5t34.5 115.5v1q10 1 25 -1.5t28 -9t21 -16t5 -20.5q-1 -2 -8.5 -20t-18 -43.5t-22.5 -55.5t-20.5 -56t-12.5 -44.5t1 -20.5
q29 -15 55.5 -13.5t53 30t54.5 90t60 166.5q-20 0 -40 0.5t-43 1.5h-1q-5 9 -4.5 22.5t6 26t14 21.5t20.5 10q2 0 22.5 -0.5t49.5 -1.5q25 82 53 145t57 110t58.5 79t57.5 53q-24 6 -55.5 9.5t-75.5 3.5q-42 0 -83.5 -13t-79.5 -36.5t-69.5 -56t-52.5 -71.5
q-17 -32 -23 -60.5t-2 -51t17.5 -38.5t36.5 -22q5 -2 12 9t14 27.5t13.5 37t12 38.5t9.5 31t5 15q5 10 17 11.5t26 -3t27 -12.5t20 -16h-1q-18 -50 -39 -82.5t-43 -52t-45 -28t-47 -9.5q-30 -1 -57.5 14.5t-42 46.5t-10.5 76.5t36 103.5q27 49 70.5 82.5t94.5 54t105 29.5
t104 9q49 0 84.5 -6t60.5 -15q34 19 64.5 25t55.5 8q38 2 58 -8t26.5 -28t1 -42.5t-18.5 -51.5q-3 -6 -10 -8.5t-23 1.5t-42.5 15t-67.5 32q-8 4 -16.5 8t-17.5 8q-13 -3 -31.5 -20.5t-42 -59t-53 -112.5t-65.5 -182q47 -2 85 -3t46 -1q3 0 -1 -7z" />
    <glyph glyph-name="G" unicode="G" horiz-adv-x="416" 
d="M256 78q-26 -35 -57 -56.5t-65 -21.5q-28 0 -51 30.5t-33 87.5t-3.5 137.5t37.5 180.5q37 121 83 203t92.5 126t89.5 50t74 -25q13 -13 22 -42t10 -71t-8.5 -95.5t-34.5 -114.5v-1q-11 -2 -26 1t-28 9t-20.5 15.5t-4.5 20.5q1 2 8.5 20t18 44t22 56t20.5 56t13 44t-1 21
q-30 15 -62 3.5t-64 -50.5t-62.5 -106.5t-58.5 -163.5q-27 -93 -33.5 -164t-1.5 -119t17.5 -73.5t24.5 -27.5q26 -5 58 27t58 95q13 40 19 65t10 48q1 5 1 9.5v7.5v7q10 1 26 -1.5t29.5 -9t22 -15.5t5.5 -20l-87 -248q-29 -83 -68.5 -140t-79 -88t-74.5 -37t-54 14
q-29 29 -29 83t27 120v1q10 1 25 -1.5t28 -9t21 -15.5t5 -20q-1 -3 -14.5 -21t-28 -38.5t-24 -38.5t-2.5 -22q17 -9 39.5 1.5t47 37.5t49.5 71t48 103z" />
    <glyph glyph-name="H" unicode="H" horiz-adv-x="504" 
d="M102 0q-26 -5 -43 -1t-23 23t-1 55.5t22 97.5l12 42q-13 0 -26 0.5t-27 1.5h-1q-5 9 -4 22.5t6 26t14 21.5t21 10q2 0 12 -0.5t27 -0.5q33 117 55.5 200t38.5 143t26.5 102.5t18.5 77.5q0 1 17.5 -0.5t37 -7.5t34 -16.5t9.5 -26.5q-2 -5 -13 -33t-30.5 -84t-47 -144
t-62.5 -214q28 -1 56.5 -2t53.5 -1.5t43 -1t26 -0.5q15 57 33.5 122t36.5 123l24.5 80.5t19.5 65t17 62t17 71.5q0 1 18.5 0.5t38.5 -5t34.5 -14.5t7.5 -28q-1 -2 -10 -24.5t-23 -60t-31.5 -86t-35.5 -101.5q-18 -54 -35 -109t-32 -104.5t-25.5 -90t-14.5 -65.5
q-5 -28 -3 -44t8.5 -22t16.5 -3.5t22 11.5q7 6 18 20.5t24 34.5t27 44t27 48q14 26 18.5 30t4.5 -10q0 -5 -3 -15t-11 -26q-23 -40 -47 -77.5t-48 -63.5q-28 -30 -56 -42t-46 -4q-14 6 -21.5 22.5t-9 41.5t2 57t12.5 68l20 81q-24 -23 -74 -37.5t-122 -19.5l-17 -67
q-14 -53 -21 -83.5t-10 -46t-3.5 -19.5z" />
    <glyph glyph-name="I" unicode="I" horiz-adv-x="393" 
d="M420 787q23 5 43.5 7t38.5 4q23 23 46 35.5t47 18.5q33 8 54.5 6t32 -12t10.5 -28t-10 -41q-2 -4 -13.5 -2t-33.5 6q-11 2 -23.5 2t-27.5 -1q-15 -10 -35 -34.5t-44.5 -72t-53.5 -121.5t-63 -184q-37 -117 -81.5 -198.5t-89.5 -126.5t-86.5 -52.5t-72.5 23.5
q-12 13 -25 32.5t-19 50.5t-0.5 75t30.5 106l1 1q10 1 25 -1.5t28 -9t21 -16t5 -20.5q-1 -2 -6.5 -15.5t-13.5 -32.5t-16.5 -41t-14.5 -41.5t-8.5 -33.5t2.5 -16q30 -16 58 -13.5t56 36t58 103.5t65 190q22 78 44 140t43.5 111t42.5 85.5t42 62.5l-68 -14q-42 -9 -86 -27.5
t-84 -45t-72 -61t-50 -74.5q-15 -33 -22.5 -62.5t-6 -53.5t12.5 -40.5t34 -22.5q5 -2 11.5 9t13.5 27.5t14 37t12.5 38.5t9.5 31t5 15q5 10 17 11.5t25.5 -3t26.5 -12.5t20 -16q-19 -50 -39.5 -82.5t-43 -52t-45.5 -28t-47 -9.5q-30 -1 -55.5 12t-38 41.5t-8.5 72t33 103.5
q24 51 67 88.5t94.5 64.5t107.5 44.5t106 26.5z" />
    <glyph glyph-name="J" unicode="J" horiz-adv-x="455" 
d="M435 370q-46 -165 -97 -297t-102.5 -215t-101.5 -110t-95 18q-29 29 -28.5 83t26.5 120l1 1q10 1 25 -1.5t28 -9t21 -15.5t5 -20q-1 -3 -14.5 -21t-28 -38.5t-24 -38.5t-2.5 -22q37 -19 70.5 9t69 100.5t74 187t84.5 269.5t89 251t84 149q-33 -6 -69 -15
q-42 -9 -86 -27.5t-83.5 -45t-71.5 -61t-51 -74.5q-15 -33 -22.5 -62.5t-6 -53.5t12.5 -40.5t34 -22.5q5 -2 12 9t14 27.5t13.5 37t12 38.5t9.5 31t5 15q5 10 17 11.5t26 -3t27 -12.5t20 -16h-1q-18 -50 -39 -82.5t-43 -52t-45 -28t-47 -9.5q-30 -1 -56 12t-38.5 41.5
t-8.5 72t33 103.5q25 51 67.5 88.5t94.5 64.5t107.5 44.5t105.5 26.5q23 5 44 7t39 4q23 23 45.5 35.5t46.5 18.5q33 8 54.5 6t32 -12t11 -28t-9.5 -41q-2 -4 -14 -2t-33 6q-11 2 -26 2.5t-32 -1.5q-16 -11 -35.5 -36t-43 -72.5t-50 -121.5t-56.5 -182z" />
    <glyph glyph-name="K" unicode="K" horiz-adv-x="485" 
d="M318 189q37 -72 66 -97.5t43 -14.5q17 14 44 52.5t53 86.5q14 26 18.5 29.5t4.5 -10.5q0 -4 -2.5 -14t-11.5 -26q-23 -41 -47 -78t-48 -63q-28 -30 -51 -47t-41 -9q-12 5 -24 17.5t-26 36.5t-32 61t-43 91q-13 28 -30.5 38.5t-49.5 12.5q-7 -25 -13.5 -50t-13.5 -52
q-14 -54 -21 -83.5t-10 -45.5q-4 -18 -3 -24q-26 -5 -43 -1t-23 23t-1 55.5t22 97.5q42 152 70.5 257.5t48 178.5t32 122t21.5 88q0 1 17.5 -0.5t37 -7.5t34 -16.5t9.5 -26.5q-2 -5 -13 -33t-30.5 -85t-47.5 -146.5t-64 -217.5q49 5 100 46t97 110.5t84 164t63 205.5
q0 1 18 0.5t38 -5t34.5 -14.5t8.5 -28q-68 -208 -156 -335t-209 -162q25 -8 48 -26.5t42 -54.5z" />
    <glyph glyph-name="L" unicode="L" horiz-adv-x="469" 
d="M278 46q44 -22 80 -15.5t64.5 33.5t50 71t37.5 98q8 29 12 33.5t7 -9.5q1 -5 0 -15.5t-6 -27.5q-17 -50 -43.5 -99.5t-63.5 -83t-84 -43.5t-104 18q-29 14 -53 25.5t-43 19.5q-23 -26 -42 -37t-33 -12.5t-23.5 3.5t-12.5 11q-22 43 0.5 65t76.5 20q9 15 22 40.5
t29.5 65.5t36 96.5t43.5 132.5q37 121 83 203t92.5 126t89.5 50t74 -25q13 -13 24 -32.5t14.5 -50.5t-4 -75.5t-32.5 -105.5v-1q-11 -1 -25.5 2t-27.5 9t-21 15.5t-5 20.5q1 2 7.5 15.5t15.5 33t19 41.5t17.5 41.5t10.5 33t-2 16.5q-61 31 -123.5 -47t-123.5 -270
q-41 -131 -79 -214t-71 -132q26 -7 55 -17.5t61 -26.5z" />
    <glyph glyph-name="M" unicode="M" horiz-adv-x="674" 
d="M58 -4q-27 -9 -38.5 -4.5t-8.5 26t20 63t47 107.5q40 88 83.5 180.5t83 177t71.5 154.5t49 113q1 2 10.5 3t18.5 -2q12 -1 25.5 -4t24.5 -8.5t17 -14t3 -20.5q-20 -74 -36.5 -143.5t-31 -137t-27 -134.5t-23.5 -136q38 84 79 171t77.5 166t67 145t47.5 108l2 7l2 1
q3 2 12 2.5t17 -3.5q13 -1 27 -4t24.5 -8.5t15.5 -13.5t1 -20q-1 -2 -8.5 -23t-18 -57t-22 -84.5t-20.5 -103.5q-12 -74 -21.5 -131t-16 -102t-11.5 -79t-9 -62q-8 -55 1.5 -65.5t32.5 8.5q7 6 18 20.5t24 34.5t27 44t27 48q14 26 18.5 30t4.5 -10q0 -5 -2.5 -15t-11.5 -26
q-23 -40 -47 -77.5t-48 -63.5q-56 -61 -92 -46q-14 6 -20.5 22.5t-7.5 41t1.5 56.5t7.5 69q3 23 9.5 71t15 108.5t18.5 127.5t20 129q-22 -47 -47.5 -104t-53 -118.5t-55 -125t-52.5 -123.5q-21 -49 -34 -80t-20 -49t-9.5 -25t-2.5 -9v-2q0 -1 -11.5 -1.5t-25 3t-23.5 13
t-7 30.5q2 16 6.5 51.5t11 83.5t15 105t17.5 117.5t18.5 120.5t18.5 113q-22 -47 -47.5 -104t-53 -118.5t-55.5 -125t-53 -123.5q-24 -58 -37.5 -90.5t-19.5 -49.5q-8 -19 -9 -25z" />
    <glyph glyph-name="N" unicode="N" horiz-adv-x="503" 
d="M61 0q-26 -5 -38 -1t-12.5 23t9 55.5t26.5 97.5q42 152 71 257.5t48.5 178.5t32 122t21.5 88q0 1 10 0t24 -4.5t28.5 -9t24.5 -12.5q14 -9 14 -23q-1 -87 0.5 -166t5.5 -155t10 -151.5t14 -155.5l9 31q28 101 49.5 179.5t38 139t29 107t22 84.5t17.5 70.5t16 65.5
q0 1 18.5 -1t39 -8.5t35 -17t6.5 -24.5q-16 -29 -32 -60.5t-33 -70.5t-35.5 -88t-39.5 -113t-45.5 -145t-52.5 -184q-6 -21 -10.5 -40.5t-7.5 -35t-5 -25l-2 -9.5l-11 -3.5t-24.5 -3.5t-25.5 7t-15 28q-2 15 -6 48t-9.5 78t-11.5 99.5t-12 111.5t-12 115t-11 110
q-26 -70 -59 -175.5t-74 -260.5q-14 -53 -21 -83.5t-10 -46t-3.5 -19.5z" />
    <glyph glyph-name="O" unicode="O" horiz-adv-x="446" 
d="M466 371q-33 -105 -80 -176.5t-97.5 -114.5t-98.5 -61.5t-82 -18.5q-39 0 -62.5 38t-31 100t1 140t32.5 158q33 106 75.5 178t89.5 115.5t94.5 61.5t89.5 17q52 -2 67 -35.5t-5 -90.5q21 -14 32.5 -37.5t13 -60.5t-7.5 -89t-31 -124zM379 371q34 117 53.5 185t13.5 96
q-19 -2 -36 2t-29 12t-16 18t3 19q11 16 18 30t6 24t-11.5 15t-33.5 4q-62 -4 -115.5 -93t-99.5 -247q-26 -88 -37 -161.5t-8 -126t21 -82t51 -29.5q30 0 59.5 23t57.5 66t54 105t49 140z" />
    <glyph glyph-name="P" unicode="P" horiz-adv-x="376" 
d="M35 175q8 29 15.5 56t16.5 57.5t19.5 69t25 91t33.5 122.5t45 165q0 1 17.5 -1t37 -8t34 -16.5t9.5 -25.5q-2 -6 -10.5 -27t-21.5 -54.5t-29.5 -78.5t-34.5 -99l-22 -65q45 7 83 29.5t68 54.5t52.5 71.5t35.5 81.5q16 54 13 89.5t-17.5 56.5t-37 29.5t-45.5 8.5
q-26 0 -58.5 -8t-67.5 -25t-70 -43.5t-66 -63.5q-3 -4 -6.5 8t-6.5 28.5t-4 31.5t2 18q13 13 42.5 29t70 30t88 24t97.5 10q38 0 73.5 -12.5t58.5 -39.5t29.5 -69t-12.5 -102q-17 -50 -48.5 -95.5t-75 -81.5t-96.5 -61t-113 -35q-7 -21 -9.5 -32t-6 -25.5t-10 -40
t-19.5 -74.5q-14 -54 -21 -83.5t-10 -45.5q-4 -18 -3 -24q-26 -5 -43 -1t-23 23t-1 55.5t22 97.5z" />
    <glyph glyph-name="Q" unicode="Q" horiz-adv-x="443" 
d="M293 -87q-47 24 -85 114q-29 -14 -54.5 -20.5t-45.5 -6.5q-39 0 -63 38t-31.5 100t1 140t33.5 158q33 106 75.5 178t89 115.5t94.5 61.5t90 17q51 -2 66 -35.5t-5 -90.5q21 -14 32.5 -37t13 -60t-7.5 -89.5t-31 -124.5q-18 -58 -40.5 -105.5t-48 -85t-53 -66.5t-55.5 -50
q5 -26 10 -51.5t9.5 -46t7.5 -35t4 -18.5q1 -1 -0.5 -1.5t-5.5 1.5zM378 371q35 117 54.5 185t12.5 96q-19 -2 -36 2t-28.5 12t-16 18t2.5 19q12 16 18.5 30t5.5 24t-11.5 15t-33.5 4q-61 -4 -115 -93t-100 -247q-25 -88 -36.5 -161.5t-8.5 -126t21 -82t51 -29.5q20 0 42 11
q-14 37 -26 82t-23 99v1q8 7 21.5 9.5t27 0.5t24.5 -9t14 -18q1 -3 7 -35t15 -74q65 86 118 267z" />
    <glyph glyph-name="R" unicode="R" horiz-adv-x="465" 
d="M35 175q12 43 24.5 86.5t29.5 105.5t42 152.5t62 227.5q-35 -17 -69 -43t-64 -62q-3 -4 -7 8t-6.5 28.5t-3.5 31.5t2 18q13 13 42.5 29t70 30t88 24t97.5 10q38 0 73 -12.5t58.5 -39.5t30 -69t-12.5 -102q-28 -85 -96 -152t-162 -101q24 -14 46 -51t50 -112
q14 -38 26.5 -62.5t23.5 -37.5t20 -15.5t16 2.5q9 7 20 21.5t24 34.5t26 43.5t26 47.5q14 26 18.5 29.5t4.5 -10.5q0 -4 -2.5 -14t-11.5 -26q-23 -41 -47 -78t-48 -63q-56 -61 -92 -46q-12 5 -22 15.5t-21.5 32.5t-24.5 58.5t-31 92.5q-15 47 -34 79.5t-42 38.5
q-7 -21 -10 -32t-6.5 -25.5t-9.5 -40t-19 -74.5q-14 -54 -21 -83.5t-10 -45.5q-4 -18 -3 -24q-26 -5 -43 -1t-23 23t-1 55.5t22 97.5zM322 782q-21 0 -47 -5.5t-55 -16.5q12 -2 27 -6t27 -10t19 -14.5t3 -19.5q-2 -6 -12 -31t-24.5 -63t-32 -87t-35.5 -103l-22 -65
q45 7 83 29.5t68 54.5t52 71.5t35 81.5q16 54 13.5 89.5t-17 56.5t-37 29.5t-45.5 8.5z" />
    <glyph glyph-name="S" unicode="S" horiz-adv-x="346" 
d="M244 163q12 45 1.5 83.5t-31 74.5t-46.5 71.5t-46 74.5t-28.5 83t5.5 97q16 61 49 99t71 55t74 14t58 -25q17 -17 28.5 -38.5t14.5 -51t-4 -67.5t-27 -87v-1q-11 -2 -25.5 1t-27.5 9.5t-21 15.5t-5 20q1 2 6.5 14.5t13.5 29.5t17 36.5t15 37t8.5 29.5t-2.5 15
q-21 11 -46.5 9.5t-49.5 -13.5t-42.5 -34t-25.5 -53q-12 -51 -2.5 -92.5t29.5 -77.5t45.5 -70.5t45 -71.5t28 -80.5t-5.5 -97.5q-18 -68 -54 -110t-76.5 -60.5t-79.5 -15t-63 27.5q-17 17 -26 49.5t-9 75t9 91.5t29 99l1 1q10 1 25 -2t28 -9t21 -15.5t5 -20.5q-1 -2 -8 -19
t-17 -42t-20.5 -53.5t-18.5 -53.5t-11.5 -43t1.5 -20q24 -12 52.5 -11t55.5 15t49 40.5t33 66.5z" />
    <glyph glyph-name="T" unicode="T" horiz-adv-x="417" 
d="M48 665q38 68 89.5 105t113 51t131 9t143.5 -21q36 31 72.5 47.5t71.5 22t68 1.5t63 -13q29 -9 39.5 -31.5t4.5 -48.5t-27.5 -51t-57.5 -39q-20 -8 -50.5 -6t-64 10t-67.5 20.5t-61 25.5q-2 0 -3 1q-36 -56 -67 -150t-72 -228q-36 -117 -80 -198.5t-89 -126.5t-87 -52.5
t-73 23.5q-13 13 -22 42t-10 71t8.5 95.5t34.5 115.5l1 1q10 1 25 -1.5t28 -9t21 -16t5 -20.5q-1 -2 -8.5 -20t-18.5 -43.5t-22.5 -55.5t-20.5 -56t-13 -44.5t1 -20.5q30 -16 58 -13.5t56 36t58 103.5t65 190q42 143 89 238t98 155q-55 19 -109 20t-102.5 -16.5t-88.5 -51.5
t-67 -85q-17 -32 -23 -60.5t-1.5 -51t18 -38.5t35.5 -22q5 -2 12 9t14 27.5t14 37t12.5 38.5t9.5 31t5 15q5 10 17 11.5t25.5 -3t26.5 -12.5t20 -16q-19 -50 -39.5 -82.5t-43 -52t-45.5 -28t-47 -9.5q-30 -1 -57 14.5t-41.5 46.5t-11 76.5t36.5 103.5zM566 800q27 -7 63 -16
t69 -16.5t57 -12t27 -2.5q7 5 4.5 15t-11.5 20.5t-23.5 19.5t-32.5 13q-52 12 -90 7t-68 -27q2 -1 5 -1z" />
    <glyph glyph-name="U" unicode="U" horiz-adv-x="447" 
d="M273 196q7 28 17.5 68.5t23 86t26 93.5t27.5 91l24.5 80.5t19.5 65t17 62t17 71.5q0 1 18.5 0.5t38.5 -5t34.5 -14.5t7.5 -28q-1 -2 -10 -24.5t-23 -60t-31.5 -86t-35.5 -101.5q-18 -54 -35 -109t-32 -104.5t-25.5 -90t-14.5 -65.5q-5 -28 -3 -44t8.5 -22t16.5 -3.5
t22 11.5q7 6 18 20.5t24 34.5t27 44t27 48q14 26 18.5 30t4.5 -10q0 -5 -2.5 -15t-11.5 -26q-23 -40 -47 -77.5t-48 -63.5q-56 -61 -92 -46q-17 7 -26.5 30t-11.5 58q-36 -42 -77 -68.5t-81 -26.5q-33 0 -56 30.5t-32 87.5t-0.5 137.5t38.5 180.5q24 81 40 138t27.5 100
t19 77t13.5 70q0 1 17.5 -0.5t37 -7.5t34 -16.5t9.5 -26.5q-12 -38 -25 -73t-27.5 -73.5t-30 -84t-32.5 -103.5q-27 -94 -35.5 -164.5t-4.5 -118.5t17 -73t30 -28q21 -5 53 14.5t66 58.5q1 31 11 71z" />
    <glyph glyph-name="V" unicode="V" horiz-adv-x="442" 
d="M126 0q-33 1 -56 32t-32 87t-0.5 136.5t38.5 180.5q24 81 40.5 138t27.5 100t18.5 77t13.5 70q0 1 17.5 -0.5t37.5 -7.5t34.5 -16.5t9.5 -26.5q-13 -38 -26 -73t-27.5 -73.5t-29.5 -84t-32 -103.5q-27 -94 -36 -165t-5 -119t17.5 -73t30.5 -27q18 -2 48 31t64 88
t67.5 127t57.5 148q23 72 36.5 124.5t21 95t10.5 79t5 76.5q0 1 17.5 -0.5t38 -7.5t36.5 -16.5t12 -26.5q-7 -30 -12 -51t-9.5 -38t-9 -33t-10 -34.5t-13.5 -43t-19 -59.5q-23 -70 -54 -135.5t-66 -122.5t-72 -104t-72 -80.5t-65.5 -51.5t-52.5 -17z" />
    <glyph glyph-name="W" unicode="W" horiz-adv-x="682" 
d="M386 0q-36 1 -60 36t-31 101q-21 -29 -44 -53.5t-47.5 -43.5t-50 -29.5t-50.5 -10.5q-33 0 -56 30.5t-32 87.5t-0.5 137.5t38.5 180.5q24 81 40.5 138t27.5 100t18.5 77t13.5 70q0 1 17.5 -0.5t37.5 -7.5t34.5 -16.5t9.5 -26.5q-13 -38 -26 -73t-27.5 -73.5t-29.5 -84
t-32 -103.5q-27 -94 -36 -164.5t-5 -118.5t17.5 -73t30.5 -28q26 -5 67.5 24.5t81.5 88.5q-2 54 8 122t35 149q24 81 40.5 138t27.5 100t18.5 77t13.5 70q0 1 17.5 -0.5t37.5 -7.5t34.5 -16.5t9.5 -26.5q-13 -38 -26 -73t-27.5 -73.5t-29.5 -84t-32 -103.5q-27 -94 -36 -165
t-5 -119t17.5 -73t30.5 -27q18 -2 40.5 18t47 60.5t49.5 99.5t48 136q30 98 48 165.5t29.5 118t17 90t10.5 81.5q0 1 18 -0.5t38 -7.5t36 -16.5t12 -26.5q-11 -45 -21.5 -82t-22.5 -75.5t-26.5 -81.5t-34.5 -100q-37 -104 -81 -184.5t-88 -136t-86 -83.5t-75 -27z" />
    <glyph glyph-name="X" unicode="X" horiz-adv-x="514" 
d="M54 -3q-28 -5 -37.5 1.5t-3 28.5t30 61t61.5 101q14 23 38 59t53 81q-31 97 -60.5 217.5t-62.5 266.5q0 1 14 3t32 -0.5t34 -11t19 -27.5q20 -110 39 -200t40 -165q39 59 80 120.5t77.5 116.5t65.5 99.5t44 69.5q1 1 14.5 -1t27 -8t21 -16.5t-3.5 -25.5q-4 -6 -21.5 -29
t-45 -59.5t-62.5 -83.5t-72 -100q-28 -40 -54.5 -78t-50.5 -74q31 -94 69 -163t91 -120q10 -11 32 8q7 6 18.5 20.5t24.5 34.5t27 44t26 48q14 26 19 30t5 -10q0 -5 -3 -15t-12 -26q-23 -40 -46.5 -77.5t-48.5 -63.5q-28 -30 -52 -43.5t-40 -2.5q-51 36 -90 100.5t-73 156.5
q-23 -35 -41.5 -64.5t-30.5 -49.5q-32 -54 -50 -84.5t-27.5 -45.5t-12 -19z" />
    <glyph glyph-name="Y" unicode="Y" horiz-adv-x="464" 
d="M298 770q-12 -38 -25 -73t-27.5 -73.5t-30 -84t-32.5 -103.5q-27 -94 -38 -164.5t-10 -118.5t12 -73t28 -28q15 -3 34 5t39.5 27t40.5 47.5t35 67.5q29 91 56.5 186.5t50 180.5t38.5 151t23 97q0 1 18.5 0.5t38.5 -5t34.5 -14.5t7.5 -28q-1 -1 -12.5 -36.5t-30.5 -95
t-44 -136t-52.5 -159.5t-55.5 -166.5t-53 -156.5q-29 -83 -72 -140t-87.5 -88t-83.5 -37t-58 14q-29 29 -31.5 83t24.5 120v1q10 1 25 -1.5t28 -9t21 -15.5t5 -20q-1 -3 -13.5 -21t-26 -38.5t-22.5 -38.5t-1 -22q17 -9 43 1.5t55 37.5t58 71t53 103l32 86q-33 -46 -74 -74.5
t-83 -28.5q-33 0 -54 30.5t-26.5 87.5t5 137.5t40.5 180.5q24 81 40.5 138t27.5 100t18.5 77t13.5 70q0 1 17.5 -0.5t37 -7.5t34 -16.5t9.5 -26.5z" />
    <glyph glyph-name="Z" unicode="Z" horiz-adv-x="507" 
d="M627 852q28 0 47.5 -10.5t28.5 -28t7 -41t-15 -50.5q-3 -6 -10 -8.5t-23 1.5t-42.5 15t-67.5 32l-15 7q-15 -9 -34 -29.5t-41.5 -59t-47.5 -98t-52 -146.5q-40 -128 -79.5 -209.5t-75.5 -130.5q20 -7 42 -15t46 -19q51 -23 90 -27.5t69 14.5t54 63.5t46 120.5
q8 29 14 33.5t9 -9.5q1 -5 0 -15.5t-6 -27.5q-23 -72 -52 -123.5t-67.5 -79t-88.5 -29t-116 27.5l-82 36q-25 -24 -46.5 -34t-37.5 -11t-26.5 4t-13.5 11q-29 57 -3 84t107 12q11 16 25 42t31 65t36 92.5t41 124.5q45 149 93.5 235.5t100.5 127.5q-28 10 -64 15.5t-84 1.5
q-49 -3 -86.5 -18.5t-65 -39.5t-46 -55t-30.5 -66q-23 -68 -10 -109t60 -46q8 -1 14.5 23.5t12 55.5t9 57.5t4.5 29.5q3 11 15 14.5t26 1.5t28 -7.5t22 -12.5v-1q-11 -52 -26 -87.5t-34 -58.5t-40.5 -35t-44.5 -17q-35 -6 -62.5 8t-44.5 42.5t-20 66.5t12 80q17 46 49 82.5
t75.5 63.5t96 43t109.5 20q59 4 101.5 -3t71.5 -19q26 13 52.5 18t54.5 5z" />
    <glyph glyph-name="bracketleft" unicode="[" horiz-adv-x="453" 
d="M471 777q3 -11 -1 -18t-23 -11t-57 -4t-104 4q-5 0 -8 0.5t-7 0.5q-6 -18 -22 -68t-40 -137.5t-56 -217.5t-71 -309l-26 -125q37 -6 76.5 -9t72.5 -5q39 -2 76 -1q6 -21 -48.5 -29t-186.5 0q-4 0 -5 1q-9 0 -14.5 6.5t-6 26.5t4.5 57t16 97q6 30 17.5 91t26.5 137.5
t31 160.5t31 159t27 134t18 85q0 1 10 1t23 -2q3 -1 8 -1q37 -6 78.5 -10.5t77 -7.5t59 -4.5z" />
    <glyph glyph-name="backslash" unicode="\" horiz-adv-x="243" 
d="M231 -155q-10 -6 -18 -4t-16.5 19.5t-18 54.5t-22.5 102q-6 30 -18 91t-26.5 137.5t-30.5 160.5t-30 159.5t-25 134t-15 85.5q0 1 14 6.5t31.5 7.5t32.5 -2t16 -20q0 -6 2.5 -50.5t12 -135.5t28.5 -233.5t53 -343.5q9 -54 14.5 -87.5t9.5 -51.5q4 -21 6 -30z" />
    <glyph glyph-name="bracketright" unicode="]" horiz-adv-x="452" 
d="M22 -129q-3 10 1 17.5t22.5 11.5t57 4t104.5 -4q4 0 7 -0.5t6 -0.5q6 18 22.5 68t41 138t56.5 217.5t70 308.5q10 46 16 76t11 49q-37 6 -77 9t-73 4.5t-54 2l-21 0.5q-7 20 47.5 28t186.5 0q10 1 17 -3.5t8.5 -24t-3.5 -57.5t-17 -103q-5 -30 -17 -91t-26.5 -137.5
t-31 -160t-31 -159t-26.5 -134.5t-18 -85q-1 -2 -15.5 -1t-31.5 5q-37 6 -77.5 10t-75.5 7q-40 3 -79 5z" />
    <glyph glyph-name="asciicircum" unicode="^" horiz-adv-x="304" 
d="M40 347q-8 -2 -12 -0.5t-5.5 5t-1.5 6.5t2 4q15 8 39 23t51 33.5t53.5 40.5t45.5 45q11 13 40.5 -29t70.5 -121q0 -1 1 -1q-9 -15 -22 -22.5t-25.5 -9t-21.5 2t-10 9.5q-5 26 -17 54.5t-28 52.5q-12 -8 -32.5 -21.5t-43.5 -28t-45.5 -27t-38.5 -16.5z" />
    <glyph glyph-name="grave" unicode="`" horiz-adv-x="833" 
d="M524 539q1 -1 1.5 -5t-1 -8t-6 -6.5t-11.5 -0.5q-17 5 -41 21.5t-47 36t-42 37.5t-26 27h-1q6 16 17.5 27t23.5 16.5t21.5 5.5t11.5 -6q7 -19 18 -40.5t24.5 -42t28.5 -37t29 -25.5z" />
    <glyph glyph-name="a" unicode="a" horiz-adv-x="392" 
d="M248 197q-9 -26 -23 -60t-33 -64.5t-42.5 -51.5t-51.5 -21q-30 0 -50.5 22.5t-29.5 59t-6.5 84t17.5 97.5q23 75 60.5 128.5t76 84t72 38t48.5 -9.5q11 -13 21 -28t17 -29q11 -2 22.5 -6t20.5 -10t14 -13.5t2 -15.5q-1 -3 -11.5 -28t-24 -63.5t-27.5 -87t-22 -97.5
q-5 -28 -4.5 -44t5 -22t13 -3.5t20.5 11.5q9 7 20 22t24 34.5t26.5 43t25.5 47.5q14 26 19 30t5 -10q0 -5 -3 -15t-12 -26q-23 -40 -46.5 -77.5t-48.5 -63.5q-56 -61 -92 -46q-13 6 -18 24t-4 44.5t6.5 58t14.5 63.5q1 4 0.5 3.5t-1.5 -3.5zM294 431q2 6 3 9.5t2 5.5
q-5 6 -10.5 11.5t-10.5 8.5q-15 8 -38.5 -6t-47.5 -43.5t-45.5 -69.5t-33.5 -84q-13 -44 -17 -81t-1 -64t12 -42t23 -15q25 0 51.5 41t56.5 140q18 61 33 110t23 79z" />
    <glyph glyph-name="b" unicode="b" horiz-adv-x="373" 
d="M351 253q-21 -64 -60.5 -114t-84.5 -83t-88.5 -46t-71.5 -3q-26 9 -33.5 54t12.5 128q7 29 21.5 79.5t32 112t37 127.5t37 126t31 108.5t19.5 75.5q0 1 17.5 -1t37 -8t34.5 -16.5t10 -25.5q-2 -6 -11 -29t-23 -59.5t-31 -83.5t-35 -100q-11 -31 -20.5 -60.5t-18.5 -58.5
q15 27 31.5 52t33 44.5t33 31.5t31.5 12q30 0 49 -22.5t26.5 -59t3.5 -84t-20 -97.5zM260 455q-12 0 -31 -22.5t-40 -58.5t-42 -82t-36 -93q-4 -14 -6.5 -26.5l-4.5 -22.5q-10 -51 -4 -79.5t26 -28.5q13 0 31.5 12.5t38 38t39.5 65.5t37 95q13 44 18.5 81t4 64t-9.5 42
t-21 15z" />
    <glyph glyph-name="c" unicode="c" horiz-adv-x="292" 
d="M257 249q-11 -2 -25.5 1t-27.5 9.5t-21 16t-5 20.5q1 2 10 14.5t22 30.5t27.5 39t25.5 39t16.5 31t0.5 16q-15 8 -38.5 -6.5t-47.5 -43.5t-45.5 -69t-33.5 -84q-13 -44 -17 -81.5t0 -65t14.5 -44.5t26.5 -20t39.5 7t49.5 31t52.5 52.5t47.5 72.5q14 26 19 30t5 -10
q0 -5 -3 -15t-12 -26q-22 -38 -50.5 -73t-60 -62t-64 -43t-63.5 -16q-34 0 -54.5 22.5t-28.5 59t-4 84t19 97.5q23 75 60 128t75 84t71.5 38t50.5 -9q13 -13 19 -31t3.5 -47t-15 -72t-37.5 -104z" />
    <glyph glyph-name="d" unicode="d" horiz-adv-x="388" 
d="M248 197q-9 -26 -23 -60t-33 -64.5t-42.5 -51.5t-51.5 -21q-30 0 -50.5 22.5t-29.5 59t-6.5 84t17.5 97.5q23 75 60.5 128.5t76 84t72 38t48.5 -9.5q6 -8 12 -15.5t11 -15.5q5 16 9.5 31t9.5 31q14 46 25 80.5t20 65t16.5 62t16.5 71.5q0 1 18.5 0.5t38.5 -5t34.5 -14.5
t7.5 -28q0 -2 -9 -24.5t-23.5 -60t-32 -86t-34.5 -101.5q-18 -54 -35.5 -109t-32 -104.5t-25.5 -90t-15 -65.5q-5 -28 -4.5 -44t5 -22t13 -3.5t20.5 11.5q7 6 18.5 20.5t24.5 34.5t27 44t26 48q14 26 19 30t5 -10q0 -5 -3 -15t-12 -26q-23 -40 -46.5 -77.5t-48.5 -63.5
q-56 -61 -92 -46q-13 6 -18 24t-4 44.5t6.5 58t14.5 63.5q1 4 0.5 3.5t-1.5 -3.5zM300 444q-11 16 -22 22q-15 8 -38.5 -6t-47.5 -43.5t-45.5 -69.5t-33.5 -84q-13 -44 -17 -81t-1 -64t12 -42t23 -15q25 0 51.5 41t56.5 140z" />
    <glyph glyph-name="e" unicode="e" horiz-adv-x="301" 
d="M345 410q-5 -24 -27 -54.5t-56 -63t-77 -65.5t-88 -63q-3 -48 8 -78t34 -34q16 -3 41 7t52.5 31t55.5 52.5t49 72.5q14 26 19 30t5 -10q0 -5 -3 -15t-12 -26q-22 -38 -51.5 -73t-63 -62t-67.5 -43t-65 -16q-34 0 -54.5 22.5t-28.5 59t-4 84t19 97.5q23 75 60 128t75.5 84
t72 38t50.5 -9q5 -5 15.5 -14.5t20.5 -21.5t16.5 -27t3.5 -31zM115 263q-6 -20 -10 -38t-6 -35q46 35 84.5 80.5t64 87.5t35 73.5t-2.5 37.5q-15 8 -38 -7t-47 -44.5t-45.5 -70t-34.5 -84.5z" />
    <glyph glyph-name="f" unicode="f" horiz-adv-x="272" 
d="M372 363q-11 -17 -30 -40t-44.5 -47t-56.5 -46.5t-67 -37.5q10 -27 15.5 -58.5t6.5 -65.5t-2 -67.5t-9 -64.5q-11 -52 -34.5 -96t-53 -74.5t-62 -44t-61.5 -2.5q-13 4 -21.5 25.5t-11.5 53.5t0.5 71.5t13.5 81.5q7 27 25 87.5t41 139.5q-21 6 -29 20.5t-4.5 30.5t18.5 29
t40 18h5q25 83 50.5 169t48 161t38.5 131.5t22 80.5q0 1 17.5 -1t37 -8t34 -16.5t9.5 -25.5q-2 -6 -11 -29t-23 -59.5t-31 -83.5t-35 -100q-14 -42 -34.5 -105t-42.5 -134q17 -14 29 -35q30 10 61 28.5t58.5 41t49.5 47t35 46.5q16 26 21 29t4 -11q0 -5 -3.5 -14.5
t-13.5 -24.5zM134 -66q6 28 9 60.5t3 64.5t-3.5 62.5t-10.5 56.5q-7 -2 -13.5 -3t-13.5 -2q-14 -44 -26 -84.5t-22 -75t-17 -61t-10 -40.5q-5 -26 -6.5 -54t1 -51t8.5 -38.5t16 -15.5q29 0 48.5 48t36.5 133zM43 252q-1 -1 -1 -4q0 1 0.5 1.5t0.5 2.5zM119 212q-1 1 -1 2
q0 -1 -0.5 -1t-0.5 -1h2z" />
    <glyph glyph-name="g" unicode="g" horiz-adv-x="357" 
d="M191 17q25 66 37 102.5t16.5 53.5t3.5 20.5l-1 3.5q-9 -26 -23 -60t-33 -64.5t-42.5 -51.5t-51.5 -21q-30 0 -50.5 22.5t-29.5 59t-6.5 84t17.5 97.5q23 75 60 128.5t75.5 84t72 38t49.5 -9.5q11 -13 21 -28t17 -29q23 -4 43 -16t15 -29q-1 -3 -9 -26.5t-23.5 -70
t-39.5 -118t-56 -170.5q-27 -84 -61.5 -139t-69 -84.5t-65 -33.5t-49.5 16q-14 14 -21 36.5t-6.5 50t7.5 59.5t21 65l1 1q10 1 25 -1.5t28 -9t20.5 -16t4.5 -20.5q-1 -3 -14.5 -22t-28.5 -41t-25 -41.5t-3 -22.5q34 -18 80.5 33.5t93.5 169.5zM298 445q-12 15 -22 21
q-15 8 -38 -6t-47 -43.5t-45.5 -69.5t-34.5 -84q-12 -44 -16 -81t-1 -64t12 -42t23 -15q25 0 51.5 41t56.5 140q18 61 33 110t23 79z" />
    <glyph glyph-name="h" unicode="h" 
d="M75 -3q-26 -5 -41.5 1.5t-20.5 28.5t0.5 61t20.5 101q7 29 21.5 79.5t32 112t37 127.5t37 126t31 108.5t19.5 75.5q0 1 17.5 -1t37 -8t34.5 -16.5t10 -25.5q-2 -6 -11 -29t-23 -59.5t-31 -83.5t-35 -100q-21 -65 -40 -125t-33 -111q23 54 49 100.5t53 81.5t54 55t53 20
q30 0 43 -18.5t13 -53t-12 -83t-31 -108.5q-18 -57 -24 -97t-3.5 -62.5t11.5 -28.5t21 3q9 7 20 22t24 34.5t26 43t26 47.5q14 26 18.5 30t4.5 -10q0 -5 -2.5 -15t-11.5 -26q-23 -40 -47 -77.5t-48 -63.5q-56 -61 -92 -46q-12 5 -21 23t-12 48.5t3 74.5t24 100q16 54 29 92
t19.5 62.5t4.5 36t-15 11.5q-18 0 -44.5 -25.5t-56.5 -75t-62 -123t-62 -169.5q-5 -23 -7.5 -35.5t-4.5 -19.5q-2 -8 -3 -10z" />
    <glyph glyph-name="i" unicode="i" horiz-adv-x="191" 
d="M35 242q18 61 33 110t23 79q2 5 2.5 8t1.5 5q1 3 2 4q10 1 26 -1.5t29.5 -9t22 -15.5t5.5 -20q-1 -3 -11.5 -28t-24 -63.5t-27.5 -87t-22 -97.5q-5 -28 -4.5 -44t5 -22t13 -3.5t20.5 11.5q9 7 20 22t24 34.5t26.5 43t25.5 47.5q14 26 19 30t5 -10q0 -5 -3 -15t-12 -26
q-23 -40 -46.5 -77.5t-48.5 -63.5q-56 -61 -92 -46q-14 6 -23.5 23t-12.5 46.5t2.5 70.5t21.5 95zM254 535q-13 -20 -41.5 -29.5t-53.5 3.5q-26 13 -37 33t2 41q13 20 41.5 29.5t53.5 -3.5q26 -13 37 -33t-2 -41z" />
    <glyph glyph-name="j" unicode="j" horiz-adv-x="173" 
d="M-18 17q25 66 46 133t36 124.5t25 99.5t15 57q2 5 2.5 8t1.5 5q1 3 1 4q10 1 26 -1.5t29.5 -9t22 -15.5t5.5 -20q-1 -3 -9 -26.5t-23.5 -70t-39.5 -118t-57 -170.5q-27 -84 -61.5 -139t-68.5 -84.5t-64.5 -33.5t-49.5 16q-29 29 -29 83t27 120v1q10 1 25 -1.5t28 -9
t21 -16t5 -20.5q-1 -2 -7.5 -11t-15.5 -21.5t-19 -26.5t-17.5 -26.5t-10.5 -22t2 -11.5q34 -18 70.5 33.5t83.5 169.5zM266 535q-13 -20 -41.5 -29.5t-53.5 3.5q-26 13 -36.5 33t1.5 41q13 20 41.5 29.5t54.5 -3.5q25 -13 36 -33t-2 -41z" />
    <glyph glyph-name="k" unicode="k" 
d="M74 -3q-26 -5 -41 1.5t-20 28.5t0.5 61t20.5 101q7 29 21.5 79.5t32 112t37 127.5t37 126t31 108.5t19.5 75.5q0 1 17.5 -1t37 -8t34 -16.5t9.5 -25.5q-2 -6 -11 -29t-23 -59.5t-31 -83.5t-34 -100q-20 -60 -37.5 -115.5t-31.5 -103.5q50 115 105.5 178.5t119.5 63.5
q40 0 56.5 -31t4.5 -76.5t-55 -97.5t-122 -95q-1 -1 1 -6q25 -50 42.5 -81t30.5 -47.5t22 -19.5t18 4q8 7 19.5 22t24 34.5t26 43t25.5 47.5q14 26 19 30t5 -10q0 -5 -3 -15t-12 -26q-23 -40 -46.5 -77.5t-47.5 -63.5q-57 -61 -93 -46q-12 5 -22 16t-22 33t-28.5 57.5
t-41.5 89.5l9 8q7 6 20.5 18.5t39.5 35.5q43 38 66 72.5t30 60.5t1 41.5t-19 15.5q-18 0 -44.5 -26t-57 -76t-63 -125t-62.5 -172q-5 -20 -7.5 -32t-4.5 -18q-2 -7 -2 -9z" />
    <glyph glyph-name="l" unicode="l" horiz-adv-x="189" 
d="M26 196q7 28 17.5 68.5t23 86t26 93.5t26.5 91q14 46 25 80.5t20 65t16.5 62t16.5 71.5q0 1 18.5 0.5t38.5 -5t34.5 -14.5t7.5 -28q0 -2 -9 -24.5t-23.5 -60t-32 -86t-34.5 -101.5q-18 -54 -35.5 -109t-32 -104.5t-25.5 -90t-15 -65.5q-5 -28 -4.5 -44t5 -22t13 -3.5
t20.5 11.5q7 6 18 20.5t24 34.5t27 44t27 48q14 26 19 30t5 -10q0 -5 -3 -15t-12 -26q-23 -40 -47 -77.5t-48 -63.5q-56 -61 -92 -46q-14 6 -21.5 22.5t-9 41.5t2.5 57t13 68z" />
    <glyph glyph-name="m" unicode="m" horiz-adv-x="634" 
d="M74 -3q-26 -5 -41.5 1.5t-20 28.5t1 61t20.5 101q11 44 25 93t28.5 97.5t27.5 95.5t22 86q0 1 17 0t35.5 -6.5t32.5 -15t9 -25.5q-2 -5 -9 -19.5t-18 -43t-26.5 -72t-33.5 -105.5q23 51 48 95t51 77t52 51.5t51 18.5q27 0 40.5 -15.5t15.5 -44.5t-6 -69.5t-23 -91.5
q22 47 46.5 87.5t49 70t49.5 46.5t48 17q30 0 43.5 -18.5t13 -53t-12 -83t-30.5 -108.5q-19 -57 -25 -97t-3.5 -62.5t11.5 -28.5t21 3q9 7 20 22t24 34.5t26.5 43t25.5 47.5q14 26 19 30t5 -10q0 -5 -3 -15t-12 -26q-23 -40 -46.5 -77.5t-48.5 -63.5q-56 -61 -92 -46
q-12 5 -21 23t-11.5 48.5t3 74.5t23.5 100q17 54 30 92t19.5 62.5t4.5 36t-15 11.5q-19 0 -46.5 -26.5t-58.5 -79t-64 -129.5t-63 -178q-4 -15 -5.5 -24t-2.5 -14t-2 -7q-36 -6 -50 11t-13 52t14 84.5t32 108.5q17 54 30.5 92t19.5 62.5t4 36t-15 11.5q-19 0 -46 -26
t-58 -77.5t-63.5 -127t-62.5 -174.5q-5 -18 -7 -29t-3 -16q-1 -6 -1 -8z" />
    <glyph glyph-name="n" unicode="n" 
d="M74 -3q-26 -5 -41.5 1.5t-20 28.5t1 61t20.5 101q11 44 25 93t28.5 97.5t27.5 95.5t22 86q0 1 17 0t35.5 -6.5t32.5 -15t9 -25.5q-2 -5 -9 -19.5t-18 -43t-26.5 -72t-33.5 -105.5q23 51 48 95t51 77t52 51.5t51 18.5q30 0 43.5 -18.5t13 -53t-12 -83t-30.5 -108.5
q-19 -57 -25 -97t-3.5 -62.5t11.5 -28.5t21 3q9 7 20 22t24 34.5t26.5 43t25.5 47.5q14 26 19 30t5 -10q0 -5 -3 -15t-12 -26q-23 -40 -46.5 -77.5t-48.5 -63.5q-56 -61 -92 -46q-12 5 -21 23t-11.5 48.5t3 74.5t23.5 100q17 54 30 92t19.5 62.5t4.5 36t-15 11.5
q-19 0 -46 -26t-57.5 -77.5t-63.5 -127t-63 -174.5q-5 -18 -7 -29t-3 -16q-1 -6 -1 -8z" />
    <glyph glyph-name="o" unicode="o" horiz-adv-x="381" 
d="M446 254q-14 -22 -45 -46.5t-69 -32.5q-22 -45 -49 -78t-56 -54.5t-59 -32t-57 -10.5q-33 0 -56 22.5t-34 59t-10 84t16 97.5q24 76 61 130t75.5 85t72 37.5t49.5 -11.5q5 -7 10.5 -14t10.5 -15q3 1 8 1q30 0 47 -16.5t22.5 -46t0 -70.5t-20.5 -90q-5 -14 -9.5 -27
t-9.5 -25q29 6 54 27t39 47t19 30t5 -10q0 -5 -2.5 -15t-12.5 -26zM128 28q16 0 33 12.5t34 34t32.5 51t29.5 62.5q-19 13 -29 35.5t-13 50t0.5 57t12 56t22.5 47.5t32 32q-4 4 -6 5q-19 10 -42 -2.5t-45.5 -41.5t-43 -71.5t-34.5 -92.5q-13 -44 -17.5 -86t-2 -75t12 -53.5
t24.5 -20.5zM292 445q-11 0 -22 -26.5t-17 -62.5t-3 -73.5t21 -59.5l9 30q18 66 27 113t1 67l-5 7q-5 5 -11 5z" />
    <glyph glyph-name="p" unicode="p" horiz-adv-x="389" 
d="M216 514q-4 -15 -13 -35t-20 -44.5t-22.5 -53.5t-20.5 -61q-1 -4 -1 -3.5t2 2.5q9 26 27.5 60t42.5 65t52 52t56 21q30 0 47 -23t21 -62.5t-5 -93t-32 -114.5q-28 -75 -64.5 -124t-72 -74.5t-66 -28t-46.5 15.5q-17 19 -30 41q-19 -62 -32.5 -112t-24 -91.5t-18.5 -77.5
t-15 -70q0 -2 -16.5 -2t-35 4t-31 13.5t-5.5 27.5q1 1 8.5 24.5t19.5 61.5t27.5 87.5t33.5 102.5q18 54 38 122.5t39 141t35.5 144t26.5 131.5q0 1 16.5 0t35 -6t33 -15t10.5 -26zM80 83q7 -10 14.5 -19.5t15.5 -13.5q16 -8 36.5 2t41.5 34.5t41.5 61t36.5 81.5
q39 111 43.5 169t-21.5 58q-13 0 -35 -20.5t-46.5 -55t-47.5 -79.5t-39 -94z" />
    <glyph glyph-name="q" unicode="q" horiz-adv-x="334" 
d="M174 2q24 50 37 87t19.5 61t7.5 35.5l1 11.5q-9 -26 -23 -60t-33 -64.5t-42.5 -51.5t-51.5 -21q-30 0 -50.5 22.5t-30 59t-7 84t17.5 97.5q23 75 60.5 128.5t76 84t72 38t49.5 -9.5q11 -13 21 -28.5t17 -29.5q11 -2 22.5 -6t20 -9.5t13.5 -13t2 -15.5q-1 -3 -9 -26.5
t-23.5 -70t-39.5 -118t-57 -170.5q-18 -55 -31.5 -97.5t-24 -79t-19 -70t-18.5 -71.5q0 -2 -15 0t-32 8t-30 16.5t-8 26.5q6 18 16.5 45t25 60t31.5 70.5t35 76.5zM285 431q2 5 3 8.5t1 5.5q-5 7 -10.5 12.5t-10.5 8.5q-15 8 -38 -6t-47 -43.5t-45.5 -69.5t-34.5 -84
q-12 -44 -16 -81t-1 -64t12 -42t22 -15q26 0 52.5 41t55.5 140q19 61 33.5 110t23.5 79z" />
    <glyph glyph-name="r" unicode="r" horiz-adv-x="317" 
d="M30 202q38 68 55.5 132t21.5 118q-23 14 -37.5 30t-18.5 36q-4 19 11.5 31t35.5 18t37.5 7.5t17.5 0.5q2 -25 1 -49.5t-5 -50.5l49 -18q35 -13 56 -21.5t30 -19.5t6.5 -29.5t-13.5 -51.5q-10 -30 -17.5 -53.5t-13.5 -47t-11.5 -49t-11.5 -60.5q-5 -27 -5 -43t5 -22
t13.5 -3.5t20.5 11.5q9 7 20 21.5t24 34.5t26 43.5t26 47.5q14 26 19 29.5t5 -10.5q0 -4 -3 -14t-12 -26q-23 -41 -47 -78t-48 -63q-56 -61 -92 -46q-28 11 -36 69t24 166q19 63 27 97.5t9 51t-5 21t-16 8.5q-10 3 -19 6.5t-17 7.5q-14 -63 -39.5 -121.5t-50.5 -106.5
q-8 -16 -15 -24t-10 -10q-12 -8 -11.5 -2t14.5 32z" />
    <glyph glyph-name="s" unicode="s" horiz-adv-x="297" 
d="M277 216q0 -27 -6 -51q21 8 36.5 21t25.5 29q16 26 20 30t4 -10q0 -5 -2.5 -15t-12.5 -25q-12 -20 -32 -33.5t-46 -20.5q-17 -47 -49 -78.5t-67.5 -48t-66.5 -18t-46 13.5q-16 16 -11 39.5t25.5 45t54.5 38t75 19.5q10 63 -4 122t-37 109q-20 -49 -43 -93.5t-43 -82.5
q-8 -17 -15 -25t-10 -10q-12 -8 -11.5 -1.5t14.5 32.5q33 60 54.5 116.5t32.5 106.5q-17 33 -30.5 57t-15.5 36q-4 19 11.5 30.5t36 17.5t38.5 7.5t18 0.5q3 -31 -1 -62t-13 -63q18 -25 38.5 -54.5t38 -60.5t28.5 -61.5t11 -57.5zM78 36q8 -9 20 -10.5t25.5 7.5t26.5 30.5
t23 59.5l3 11q-32 -2 -54 -14.5t-34.5 -28t-15 -31.5t5.5 -24z" />
    <glyph glyph-name="t" unicode="t" horiz-adv-x="185" 
d="M333 518q-12 -14 -23.5 -23.5t-27.5 -15.5t-38.5 -10t-56.5 -5q-18 -54 -34 -104t-28.5 -94t-22 -79.5t-13.5 -60.5q-5 -28 -4.5 -44t5 -22t13 -3.5t20.5 11.5q7 6 18.5 20.5t24.5 34.5t27 44t26 48q14 26 19 30t5 -10q0 -5 -3 -15t-12 -26q-23 -40 -46.5 -77.5
t-48.5 -63.5q-56 -61 -92 -46q-14 6 -21.5 22.5t-9 41.5t2.5 57t13 68q8 32 29 102.5t48 164.5q-11 0 -21.5 0.5t-23.5 0.5q-10 19 0.5 39t33.5 22h29q15 54 30 112.5t30 120.5q0 1 18.5 1t38.5 -5t34.5 -15t7.5 -28q-2 -3 -23 -53.5t-50 -132.5h127q3 0 -1 -7z" />
    <glyph glyph-name="u" unicode="u" horiz-adv-x="400" 
d="M113 523q31 6 50 -5t22.5 -41.5t-9 -82t-43.5 -127.5q-43 -107 -53.5 -154.5t15.5 -47.5q18 0 44 25t55.5 73.5t61.5 120t62 164.5l15 51q2 5 2.5 8t1.5 5q1 3 1 4q10 1 26 -1.5t29.5 -9t22 -16t5.5 -20.5q-1 -2 -7.5 -19t-16.5 -44t-21.5 -62t-23 -72.5t-21.5 -75
t-15 -70.5q-5 -28 -4.5 -44t5 -22t13 -3.5t20.5 11.5q9 7 20 22t24 34.5t26.5 43t25.5 47.5q14 26 19 30t5 -10q0 -5 -3 -15t-12 -26q-23 -40 -46.5 -77.5t-48.5 -63.5q-56 -61 -92 -46q-25 10 -34.5 58t11.5 137q-22 -43 -44.5 -79t-46 -62.5t-46.5 -41.5t-45 -15
q-60 0 -62 69t49 194q28 69 41.5 117.5t18.5 79.5q5 36 3 59z" />
    <glyph glyph-name="v" unicode="v" horiz-adv-x="388" 
d="M387 317q-11 -37 -33 -77q28 7 52 27t38 46t18.5 29.5t5.5 -10.5q0 -4 -3 -14.5t-12 -25.5q-14 -22 -45.5 -47t-69.5 -33q-26 -41 -58 -79t-67 -66.5t-70.5 -45.5t-66.5 -17q-62 0 -65.5 79.5t63.5 244.5q19 46 27.5 82.5t11.5 61t2.5 37.5l-0.5 13q32 7 50 -5t22.5 -39
t-3.5 -65.5t-26 -84.5q-33 -83 -52 -140t-25.5 -92t-1.5 -50.5t19 -15.5q19 0 41 16t44.5 42.5t44 61.5t39.5 73q-24 15 -37 40t-17 55t1.5 61.5t18.5 59t34 48.5t49 29q29 9 49 -3.5t29.5 -40.5t8 -68.5t-15.5 -86.5zM304 482q-18 -6 -32.5 -34t-20 -63.5t0.5 -71t29 -56.5
q7 15 12 30l10 30q23 81 25 127t-24 38z" />
    <glyph glyph-name="w" unicode="w" horiz-adv-x="567" 
d="M98 30q17 0 39.5 14t47.5 38q-6 24 -7 52.5t3 57.5t11 56t16 50q13 32 30 57t35.5 42t37.5 26t36 9q22 0 27 -28t-13 -89q-16 -51 -46 -104.5t-68 -98.5q0 -35 11.5 -58.5t39.5 -23.5q19 0 39 16t39.5 42.5t38 61t34.5 72.5l-1 1q-24 15 -37.5 40t-17 55t1.5 61.5t18 59
t33.5 48.5t48.5 29q29 9 49 -3.5t30 -40.5t8 -68.5t-16 -86.5q-6 -19 -14 -38t-17 -39q28 8 51.5 27.5t37.5 45.5t18.5 29.5t4.5 -10.5q0 -4 -2.5 -14.5t-11.5 -25.5q-7 -11 -18.5 -23t-26 -23t-32 -20t-35.5 -13q-23 -42 -52.5 -79.5t-62 -66.5t-66 -46t-64.5 -17
q-32 0 -52 14.5t-31 39.5q-29 -25 -59 -39.5t-58 -14.5q-62 0 -65.5 79.5t63.5 244.5q19 46 27.5 82.5t11.5 61t2.5 37.5l-0.5 13q32 7 50 -5t22.5 -39t-3.5 -65.5t-26 -84.5q-33 -83 -52 -140t-25.5 -92t-1.5 -50.5t19 -15.5zM484 482q-12 -4 -22.5 -18.5t-18.5 -35
t-12 -45t-2 -48.5t9.5 -45t23.5 -35q11 30 21 62q23 81 25 127t-24 38zM342 385q-8 0 -21.5 -20.5t-31.5 -66.5q-13 -31 -23 -66.5t-15 -70.5q26 37 47 77t32 77q9 31 14.5 50.5t-2.5 19.5z" />
    <glyph glyph-name="x" unicode="x" horiz-adv-x="440" 
d="M415 524q16 -16 27 -30t16.5 -34t3.5 -49.5t-13 -76.5v-1q-10 -3 -25.5 -2.5t-29.5 5t-23.5 12t-7.5 19.5q1 3 10 20.5t18.5 38t15 38.5t-1.5 22q-4 3 -16.5 -11t-30.5 -39t-40.5 -59t-47.5 -72l7 -31q14 -78 26.5 -125.5t26 -70t28.5 -23.5t33 13q9 7 20 22t24 34.5
t26 43t26 47.5q14 26 18.5 30t4.5 -10q0 -5 -2.5 -15t-11.5 -26q-23 -40 -47 -77.5t-48 -63.5q-28 -30 -52.5 -43.5t-42.5 -5.5q-8 3 -20.5 15.5t-27 36t-29.5 59t-27 84.5q-27 -40 -51.5 -76t-45 -61.5t-35.5 -38t-21 -6.5q-13 13 -23.5 31t-13.5 47.5t5 72t33 103.5l1 1
q10 1 25 -1.5t28 -9t21 -15.5t5 -20q-1 -2 -8 -15t-16.5 -31t-20 -39t-18 -39t-11 -31.5t1.5 -15.5q4 -2 16.5 12t30.5 39t40.5 59t47.5 72q-17 75 -33 121.5t-30 74t-27 39t-25 15.5q-14 5 -25 2t-12 -3q11 25 38 36.5t60 -1.5t66 -55.5t56 -124.5q27 40 52 76t45.5 61.5
t35.5 38.5t21 7z" />
    <glyph glyph-name="y" unicode="y" horiz-adv-x="376" 
d="M118 523q31 6 49.5 -5t22.5 -41.5t-8.5 -82t-43.5 -127.5q-43 -107 -54 -154.5t15 -47.5q19 0 46 27t58 79t64 129t64 178q3 13 6 21q1 5 2 8t2 5q1 3 1 4q10 1 26 -1.5t29.5 -8.5t22 -15.5t5.5 -20.5l-12.5 -37.5t-31.5 -93.5t-47.5 -141t-59.5 -181q-27 -84 -61.5 -139
t-69 -84.5t-65 -33.5t-49.5 16q-29 29 -29 83t27 120l1 1q10 1 25 -1.5t28 -9t20.5 -16t4.5 -20.5q-1 -3 -14.5 -20.5t-27.5 -38.5t-23.5 -39t-2.5 -21q34 -18 70.5 33.5t83.5 169.5q18 48 35.5 102t34.5 109q-23 -48 -47 -89t-49 -71t-50 -47t-48 -17q-61 0 -62.5 69.5
t48.5 193.5q28 69 41.5 118t18.5 79.5t4.5 44.5z" />
    <glyph glyph-name="z" unicode="z" horiz-adv-x="314" 
d="M33 -40q23 14 43 26.5t40 23.5q0 25 -8 41t-21 24.5t-28 11.5t-29 3v1l2 2q2 3 16 15t52 46q79 70 114 126t43 95t-3 59.5t-24 20.5q-31 0 -51.5 -3t-33.5 -6q-15 -4 -24 -9q0 -20 -5.5 -47.5t-15 -59t-23.5 -66t-31 -68.5q-8 -17 -15 -25t-10 -10q-12 -8 -11.5 -1.5
t14.5 32.5q34 67 53 139.5t19 153.5q23 9 52 16q25 6 58.5 11.5t73.5 5.5q27 0 43 -18.5t19 -49.5t-7.5 -72t-37 -85.5t-69.5 -91t-104 -87.5q-9 -7 2 -7h18t22.5 -3.5t21.5 -13t15 -27.5q55 35 93 68.5t64 83.5q14 26 19 30t5 -10q0 -5 -3 -15t-12 -26q-27 -47 -65.5 -84.5
t-97.5 -77.5q0 -32 -16 -81q-24 -75 -61.5 -128.5t-76 -84.5t-71.5 -38.5t-49 10.5q-36 40 -42 73.5t10.5 63.5t51.5 57.5t81 55.5zM106 -49q2 6 2.5 11t2.5 10l-43 -26q-57 -35 -91.5 -66t-49 -57.5t-10 -46t25.5 -29.5q15 -8 38 6.5t46.5 44t44.5 69.5t34 84z" />
    <glyph glyph-name="braceleft" unicode="{" horiz-adv-x="493" 
d="M274 561q-10 -40 -26.5 -71.5t-37 -55.5t-43.5 -41t-45 -27q17 -6 31.5 -18.5t23 -35t8 -57t-13.5 -83.5q-15 -57 -17.5 -107t8.5 -89.5t37.5 -66.5t69.5 -37q4 -1 5.5 -4.5t-0.5 -7t-8 -5.5t-18 1q-119 28 -159 109.5t-2 206.5q14 46 13 78.5t-9.5 53.5t-21.5 31t-23 11
h-6q-13 1 -17 6t-2.5 11t5.5 10.5t6 4.5q21 0 43.5 8t43.5 28t39.5 55t31.5 88q15 64 46.5 107.5t74 72.5t92.5 45.5t101 26.5q7 1 8 -3t-2 -10t-8 -11.5t-10 -6.5q-38 -7 -73 -26.5t-64 -48.5t-50 -65.5t-31 -76.5z" />
    <glyph glyph-name="bar" unicode="|" horiz-adv-x="258" 
d="M47 -152q-11 -2 -17.5 2.5t-8 24t3 57.5t16.5 103q5 30 17 91t26.5 137.5t31 160.5t31.5 159t26.5 134t17.5 85q0 1 15.5 1t32.5 -4.5t29.5 -13.5t7.5 -25q-2 -6 -16.5 -48t-39.5 -130t-60 -227.5t-78 -338.5q-12 -54 -18.5 -87t-10.5 -51q-4 -21 -6 -30z" />
    <glyph glyph-name="braceright" unicode="}" horiz-adv-x="493" 
d="M259 102q10 40 26.5 71.5t37 55.5t43 40.5t45.5 27.5q-17 6 -32 18t-23 34.5t-7.5 57t13.5 84.5q15 57 17.5 107t-8.5 89.5t-37 66.5t-69 37q-4 1 -6 4.5t0 7t8 5.5t18 -1q120 -28 159.5 -109.5t1.5 -206.5q-15 -47 -13.5 -80t10.5 -54t22.5 -30.5t23.5 -9.5
q15 0 19.5 -5t3.5 -11t-5 -11t-6 -5q-21 0 -43.5 -8t-43.5 -28.5t-39.5 -55t-31.5 -87.5q-15 -64 -46.5 -107.5t-74 -72.5t-92.5 -45.5t-101 -26.5q-7 -1 -8 3t2 10t8 11.5t10 6.5q38 7 73 26.5t64 48.5t50 65t31 77z" />
    <glyph glyph-name="asciitilde" unicode="~" horiz-adv-x="338" 
d="M350 355q-8 -11 -21 -14.5t-34 1.5t-51 18.5t-72 36.5q-49 26 -82 29t-48 -23q-5 -9 -10.5 -15t-8.5 -6t-2.5 7.5t6.5 24.5q15 38 32.5 55t36.5 20q13 2 28.5 -3t33.5 -14t39.5 -20.5t47.5 -22.5q52 -22 64.5 -14.5t-0.5 34.5q-5 10 -6.5 17.5t0 10t7.5 -2t16 -19.5
q47 -68 24 -100z" />
    <glyph glyph-name="exclamdown" unicode="&#xa1;" horiz-adv-x="321" 
d="M228 425q11 1 16 -3t6 -14t-1.5 -25t-6.5 -35q-4 -24 -13 -68t-20.5 -98t-24.5 -113t-24.5 -114t-21.5 -100.5t-16 -71.5q0 -2 -17.5 0.5t-37 8.5t-34.5 16.5t-10 25.5q1 3 10 29.5t23.5 68.5t33 95t37.5 108q45 128 101 290zM206 579q6 10 17 18t24 11.5t27.5 3
t26.5 -6.5q25 -13 36 -33t-2 -41q-6 -10 -17 -18t-24 -11.5t-27 -3t-27 6.5q-25 13 -36 33t2 41z" />
    <glyph glyph-name="cent" unicode="&#xa2;" horiz-adv-x="344" 
d="M332 254q-11 -2 -25.5 1t-27.5 9.5t-21 16t-5 20.5q1 2 6 14.5t12 30.5t14 39t12 39t6.5 31t-3.5 16q-15 8 -40 -7t-50.5 -45t-49 -71t-35.5 -85q-13 -44 -17 -81.5t0 -65t14.5 -44.5t26.5 -20q35 -7 80.5 22t83.5 101q14 26 19 30t5 -10q0 -5 -3 -15t-12 -26
q-30 -53 -71.5 -92t-90.5 -54q-8 -38 -13 -61t-7 -37q-3 -16 -4 -23q-9 -2 -15.5 1t-9 15t-1.5 35t7 62h-8q-34 0 -54.5 22.5t-28.5 59t-4 84t19 97.5q26 85 70 142t89 86q8 45 15 81.5t12 59.5q0 1 15.5 0.5t32.5 -5t29 -13.5t7 -24q-2 -5 -7.5 -22.5t-14.5 -49.5
q12 -2 19 -9q13 -13 27.5 -31t22.5 -47t4 -72t-29 -104z" />
    <glyph glyph-name="sterling" unicode="&#xa3;" horiz-adv-x="599" 
d="M288 46q44 -22 80 -15.5t64.5 33.5t50 71t37.5 98q8 29 12 33.5t7 -9.5q1 -5 0 -15.5t-6 -27.5q-17 -50 -43.5 -99.5t-63.5 -83t-84 -43.5t-104 18q-29 14 -53 25.5t-43 19.5q-23 -26 -42 -37t-33.5 -12.5t-23.5 3.5t-12 11q-22 43 0.5 65t76.5 20q10 17 24 45.5t33 75.5
q-16 0 -33 0.5t-34 1.5h-1q-5 9 -4 22.5t6 26t14 21.5t21 10q2 0 18.5 -0.5t41.5 -1.5q11 29 21.5 62t22.5 72q37 121 83.5 203t93 126t89.5 50t74 -25q13 -13 24 -32.5t14.5 -50.5t-4 -75.5t-32.5 -105.5v-1q-11 -1 -25.5 2t-27.5 9t-21 15.5t-5 20.5q0 2 7 15.5t16 33
t19 41.5t17.5 41.5t10.5 33t-2 16.5q-61 31 -124 -47t-123 -270q-25 -79 -48 -137q25 -1 49.5 -1.5t44.5 -1t34 -1t18 -0.5t-2 -7q-22 -26 -64.5 -41.5t-108.5 -20.5q-20 -45 -38 -78t-35 -58q26 -7 55 -17.5t61 -26.5z" />
    <glyph glyph-name="currency" unicode="&#xa4;" horiz-adv-x="339" 
d="M308 256q4 -28 -7 -55t-32 -48l35 -35l-21 -22l-37 38q-27 -18 -61 -24q-26 -4 -50 -0.5t-44 13.5l-27 -27l-21 22l22 23q-14 12 -23 28t-11 36q-4 29 7 55.5t34 46.5l-29 29l21 22l32 -32q24 16 59 22q29 5 55 0t46 -16l27 26l21 -22l-23 -23q23 -24 27 -57zM181 137
q20 4 36.5 14t28.5 25t17.5 33t3.5 37q-5 38 -36 60t-72 14q-20 -3 -36.5 -13.5t-28.5 -25t-17.5 -32.5t-3.5 -37q5 -38 36 -60t72 -15z" />
    <glyph glyph-name="yen" unicode="&#xa5;" horiz-adv-x="546" 
d="M563 767q0 -2 -15.5 -37.5t-40.5 -99t-58 -150.5t-69 -190q27 -1 46.5 -1.5t24.5 -0.5q3 0 -1 -5q-24 -29 -87 -41q-5 -12 -10 -22.5t-10 -21.5q26 -1 45 -1h24q4 0 -1 -5q-26 -31 -95 -43q-32 -51 -69 -84.5t-71 -50.5t-62.5 -17.5t-44.5 15.5q-14 15 -26 36t-18 47.5
t-4 56.5t16 63q0 1 1 1q10 1 25 -1.5t28 -8.5t20.5 -15.5t4.5 -20.5q-1 -3 -9.5 -21t-17.5 -38.5t-13.5 -38.5t2.5 -22q23 -12 62 11.5t79 77.5h-37.5t-39.5 1h-1q-4 7 -3 18t5 21t11 17.5t16 7.5q2 0 27.5 -0.5t60.5 -2.5l15 31q-42 -3 -92 0h-1q-4 7 -3 18t5 21t11 17
t16 8q2 0 28.5 -1t61.5 -2q16 41 30 79t27 75q-35 -57 -78 -91.5t-91 -34.5q-41 0 -62.5 20.5t-28 53.5t-1 74t17.5 81q12 38 19.5 70t14 62.5t12 64t13.5 74.5q0 1 17.5 -0.5t37 -7.5t34.5 -16.5t10 -26.5q-15 -43 -25.5 -74t-19 -56t-15.5 -46.5t-14 -43.5
q-11 -35 -16.5 -65.5t-3.5 -53.5t14 -38.5t37 -19.5q18 -3 41 9.5t46 39t45.5 67t40.5 92.5q23 74 38.5 132.5t24.5 100.5q0 1 18.5 0.5t38.5 -5t34.5 -14.5t7.5 -28z" />
    <glyph glyph-name="brokenbar" unicode="&#xa6;" horiz-adv-x="368" 
d="M187 328q-11 -2 -17.5 2.5t-8 24t3 57.5t16.5 103q8 45 13.5 80.5t11 68.5l11 66t14.5 72q0 1 15.5 1t33 -4.5t30 -13.5t6.5 -25q-6 -15 -15.5 -45.5t-21.5 -69t-25.5 -82.5t-26 -87t-23 -81.5t-17.5 -66.5zM76 -172q-11 -2 -17.5 1t-7.5 20.5t4 54t17 101.5
q8 45 13.5 79t10 64.5t10 61.5t14.5 70q0 1 12.5 1t26 -4.5t23 -13.5t3.5 -25q-8 -23 -22.5 -74.5t-30 -112l-31 -121t-25.5 -102.5z" />
    <glyph glyph-name="section" unicode="&#xa7;" horiz-adv-x="413" 
d="M240 158q44 -58 54 -107.5t-3 -88t-43 -65t-63.5 -40t-65.5 -12t-49 18.5q-32 32 -45.5 78.5t10.5 106.5v1q10 1 25 -2t28 -9t21 -15.5t5 -20.5q-1 -3 -9.5 -18t-16.5 -32t-12 -32t3 -19q35 -18 62.5 -16t46 18t27 44t5.5 62.5t-19 72.5t-45 75q-44 55 -67 95t-26 73.5
t13.5 64.5t50.5 67q17 18 25 22t8.5 -0.5t-5 -16.5t-15.5 -25q-13 -17 -21 -30.5t-9.5 -27.5t4 -31.5t21 -43t41.5 -61.5t64 -86zM213 396q-45 59 -54.5 108.5t3.5 88t42.5 65t63.5 39.5t65.5 11.5t48.5 -18.5q16 -16 28 -35.5t18 -43t4 -50t-14 -55.5v-1q-11 -2 -25.5 1
t-27.5 9.5t-21 15.5t-5 20q1 3 9 18t16.5 32.5t12.5 32.5t-3 19q-41 21 -70 19.5t-47 -19t-24 -47.5t-1 -65.5t21.5 -73.5t43.5 -71q48 -60 70 -102.5t22.5 -76t-16.5 -62t-47 -59.5q-17 -18 -25 -22t-9 0.5t5 16t16 25.5q12 17 20.5 30.5t10.5 27.5t-4 31.5t-21 43t-41 61
t-65 86.5z" />
    <glyph glyph-name="dieresis" unicode="&#xa8;" horiz-adv-x="299" 
d="M140 584q-11 -20 -36 -29t-47 4q-23 12 -32.5 31t1.5 39t36.5 29t47.5 -4q22 -12 31.5 -31t-1.5 -39zM313 577q-11 -20 -36 -28.5t-47 3.5q-23 12 -32.5 31.5t1.5 39.5t36.5 28.5t47.5 -3.5q22 -13 31.5 -32t-1.5 -39z" />
    <glyph glyph-name="copyright" unicode="&#xa9;" horiz-adv-x="439" 
d="M221 374q35 0 66 -13.5t53.5 -37t35.5 -54.5t13 -67t-13 -68t-36 -55.5t-53.5 -37t-66.5 -13.5t-67 13.5t-54 37t-36 55.5t-13 68t13 67t36 54.5t54 37t67 13.5h1zM220 351q-30 0 -56 -11.5t-45 -32t-30 -48t-11 -59.5q0 -31 11 -58t30 -47t45 -32t56 -12t55.5 11.5
t44.5 32t30 48t11 59.5q0 31 -11 58t-30 47.5t-44.5 32t-55.5 11.5zM282 269q-7 3 -19.5 6t-29.5 3q-39 0 -58 -22t-19 -56q0 -33 19.5 -56t58.5 -23q14 0 27.5 3t23.5 8q1 0 2.5 -3t3 -7t2 -7.5l0.5 -3.5q-14 -8 -31 -11t-34 -3q-49 0 -75 29.5t-26 71.5q0 24 8.5 43.5
t23 33t34 21t40.5 7.5q17 0 32 -3.5t24 -7.5q1 -1 0.5 -4.5t-2 -8t-3 -7.5t-2.5 -3z" />
    <glyph glyph-name="guillemotleft" unicode="&#xab;" horiz-adv-x="337" 
d="M322 119q2 -8 0.5 -12t-4.5 -5.5t-6.5 -1.5t-4.5 2q-16 29 -56 65t-86 74q-5 4 -5 8.5t4.5 12.5t15 19.5t27.5 28.5l29.5 29.5l29 29t24 24.5t15.5 17l1 1q17 -3 28.5 -11.5t16.5 -18.5t5 -19.5t-5 -12.5q-11 -7 -26.5 -16.5t-33 -20t-34 -20.5t-28.5 -18q8 -12 22 -32
t28.5 -42t26.5 -43.5t16 -37.5zM183 119q2 -8 0.5 -12t-5 -5.5t-6.5 -1.5t-4 2q-17 29 -56.5 65t-85.5 74q-7 6 -4.5 13.5t16.5 24.5q2 2 10 12.5t19.5 25t25 31t26 31t22 25.5t13.5 14l1 1q16 -6 28.5 -16.5t19.5 -20.5t8 -18t-5 -10q-12 -5 -28.5 -15t-34 -23.5
t-34.5 -29.5t-29 -32q9 -10 24.5 -26.5t31.5 -35.5t29 -38t18 -35z" />
    <glyph glyph-name="logicalnot" unicode="&#xac;" horiz-adv-x="575" 
d="M509 87q-15 9 -27.5 23.5t-21.5 37t-13.5 55t-3.5 79.5q-28 -13 -71.5 -22t-95 -14t-108.5 -6.5t-112 0.5h-1q-5 9 -4 22.5t6 26t14 21.5t21 10q2 0 24 -0.5t55 -1t73.5 -1.5t80.5 -2.5t74 -2.5t55 -1q9 2 20 0h4l1 -1q17 -4 30 -14.5t15 -24.5q0 -2 -0.5 -15t-1.5 -32
t-2 -41t-2.5 -42t-2 -35.5t-0.5 -20.5q0 -2 -6 2z" />
    <glyph glyph-name="uni00AD" unicode="&#xad;" horiz-adv-x="439" 
d="M416 265q-32 -38 -109 -54t-211 -11h-1q-5 9 -4 22.5t6 26t14 21.5t21 10q2 0 22.5 -0.5t50.5 -1.5t65 -2t66 -2.5t53.5 -2t28.5 -0.5q4 0 -2 -6z" />
    <glyph glyph-name="registered" unicode="&#xae;" horiz-adv-x="289" 
d="M145 394q20 0 37 -7t30 -19.5t20 -29.5t7 -36q0 -39 -27 -65.5t-67 -26.5t-67.5 26.5t-27.5 65.5q0 19 7.5 36t20 29.5t30 19.5t37.5 7zM144 375q-30 0 -50.5 -21.5t-20.5 -51.5q0 -31 20.5 -52t51.5 -21q30 -1 50 20.5t20 52.5q0 30 -20 51.5t-50 21.5h-1zM130 254h-21
v92q6 1 15 2t20 1q17 0 29 -6.5t12 -20.5q0 -15 -19 -22v-1q13 -4 17 -22q2 -11 3 -16t3 -7h-23q-2 3 -3.5 8.5t-3.5 13.5q-3 15 -19 15h-10v-37zM131 306h10q8 0 14.5 3t6.5 10q0 14 -20 14q-9 0 -11 -1v-26z" />
    <glyph glyph-name="macron" unicode="&#xaf;" horiz-adv-x="329" 
d="M346 641q-32 -38 -109 -54t-211 -11h-1q-5 9 -4 22.5t6 26t14 21.5t21 10q2 0 22.5 -0.5t50.5 -1.5t65 -2t66 -2.5t53.5 -2t28.5 -0.5q4 0 -2 -6z" />
    <glyph glyph-name="degree" unicode="&#xb0;" horiz-adv-x="169" 
d="M140 654q29 -14 42.5 -35.5t-1.5 -44.5q-8 -11 -20.5 -19.5t-28.5 -13t-32.5 -3.5t-31.5 8q-29 14 -42 35.5t2 43.5q7 11 20 19.5t28.5 13t32 4t31.5 -7.5zM128 569q11 15 11 33.5t-8 33.5t-24 12.5t-27 -17.5t-11 -34t8 -34q9 -15 24.5 -12t26.5 18z" />
    <glyph glyph-name="plusminus" unicode="&#xb1;" horiz-adv-x="329" 
d="M337 77q-32 -38 -109 -54t-211 -11h-1q-5 9 -4 22.5t6 26t14 21.5t21 10q2 0 22.5 -0.5t50.5 -1.5t65 -2t66 -2.5t53.5 -2t28.5 -0.5q4 0 -2 -6zM155 117q-28 40 -24 122q-23 -1 -49.5 -1t-55.5 2h-1q-5 9 -4 22.5t6 26t14 21.5t21 10q2 0 25 -0.5t55 -1.5q6 28 14 59
t19 66v1q10 2 23 -2t24 -12.5t17.5 -19.5t3.5 -22l-22 -73q22 -1 43.5 -1.5t38.5 -1t29 -1t16 -0.5t-2 -6q-20 -23 -55.5 -38t-91.5 -22q-7 -23 -13.5 -45t-11.5 -40t-8.5 -30t-4.5 -16q-3 -3 -6 3z" />
    <glyph glyph-name="uni00B2" unicode="&#xb2;" horiz-adv-x="385" 
d="M294 203q-29 -10 -51 -10t-40.5 5t-35.5 12t-36.5 10.5t-43.5 0t-55 -19.5q-5 -2 -7.5 2.5t-3 11.5t0 13.5t3.5 9.5q117 117 193 230.5t99 201.5q8 31 3.5 51t-16.5 31t-29.5 15t-34.5 3.5t-31.5 -4t-21.5 -6.5q-5 -3 -6 -16t0 -31t3.5 -39t5.5 -39t5.5 -30.5t3.5 -14.5
q3 -11 -5 -20.5t-21 -16t-28 -9.5t-25 -1l-1 1q-22 54 -22.5 95t11.5 71.5t32 52t38 35.5q11 8 34.5 12t51.5 2t56.5 -12.5t49.5 -30.5t30.5 -52t-0.5 -78q-7 -32 -23.5 -65t-39 -64.5t-48.5 -61.5t-52 -56q-62 -62 -135 -118l1 -1q46 15 73 13.5t46 -8t34 -13.5t36 -3
q36 8 54 27.5t27 55.5q1 2 4 3.5t6 1.5t5 -2t1 -7q-4 -15 -10 -35.5t-16.5 -40.5t-27 -36.5t-41.5 -25.5z" />
    <glyph glyph-name="uni00B3" unicode="&#xb3;" horiz-adv-x="394" 
d="M341 372q-11 -49 -33 -82t-50 -53.5t-58.5 -30t-57.5 -10t-48.5 5t-31.5 15.5q-13 13 -24.5 30.5t-15.5 45.5t3.5 70t32.5 103v1q10 1 25 -1.5t28 -9t21 -15.5t5 -20q-1 -2 -7.5 -14.5t-15.5 -30t-18.5 -38t-17 -38t-10 -30.5t2.5 -15q7 -4 21.5 -6.5t32 -1.5t37 7.5
t37.5 20.5t32 37t21 58q17 83 6.5 117.5t-40.5 38.5l-43 -2q-5 0 -7 3t-1 7.5t3.5 8t5.5 3.5q6 0 9 1q6 2 17 4q2 0 4 0.5t4 0.5q45 11 79 41t46 77q13 49 -0.5 72.5t-37.5 29.5t-50.5 0.5t-41.5 -12.5q-7 -4 -6.5 -19.5t4 -33.5t8.5 -33.5t6 -18.5q3 -11 -5 -20.5t-21 -16
t-28 -9.5t-25 -1l-1 1q-15 37 -16 65.5t8.5 51.5t27 40.5t39.5 31.5q12 8 35.5 12t50.5 2t54 -12.5t46 -30.5t27.5 -52t-1.5 -78q-11 -52 -44.5 -74.5t-75.5 -30.5q16 -9 29 -23t21 -33.5t9 -46t-6 -59.5z" />
    <glyph glyph-name="acute" unicode="&#xb4;" horiz-adv-x="188" 
d="M40 533q-1 -2 -5 -1.5t-8 3t-5.5 7t1.5 11.5q8 16 28 37t43 40.5t44 35.5t31 21v1q15 -9 24 -22t12.5 -25.5t1.5 -22t-8 -10.5q-20 -4 -43 -11.5t-45 -17.5t-41 -21.5t-30 -24.5z" />
    <glyph glyph-name="mu" unicode="&#xb5;" horiz-adv-x="400" 
d="M113 523q31 6 50 -5t22.5 -41.5t-9 -82t-43.5 -127.5q-43 -107 -53.5 -154.5t15.5 -47.5q18 0 44 25t55.5 73.5t61.5 120t62 164.5l15 51q2 5 2.5 8t1.5 5q1 3 1 4q10 1 26 -1.5t29.5 -9t22 -16t5.5 -20.5q-1 -2 -7.5 -19t-16.5 -44t-21.5 -62t-23 -72.5t-21.5 -75
t-15 -70.5q-5 -28 -4.5 -44t5 -22t13 -3.5t20.5 11.5q9 7 20 22t24 34.5t26.5 43t25.5 47.5q14 26 19 30t5 -10q0 -5 -3 -15t-12 -26q-23 -40 -46.5 -77.5t-48.5 -63.5q-56 -61 -92 -46q-25 10 -34.5 58t11.5 137q-22 -43 -44.5 -79t-46 -62.5t-46.5 -41.5t-45 -15
q-20 0 -34 8q-17 -57 -36 -111.5t-38 -99.5v-1q-11 -1 -23 4.5t-22 14.5t-15.5 20.5t-2.5 23.5l131 331q10 33 27 73q28 69 41.5 117.5t18.5 79.5q5 36 3 59z" />
    <glyph glyph-name="mu" unicode="&#x3bc;" horiz-adv-x="400" 
d="M113 523q31 6 50 -5t22.5 -41.5t-9 -82t-43.5 -127.5q-43 -107 -53.5 -154.5t15.5 -47.5q18 0 44 25t55.5 73.5t61.5 120t62 164.5l15 51q2 5 2.5 8t1.5 5q1 3 1 4q10 1 26 -1.5t29.5 -9t22 -16t5.5 -20.5q-1 -2 -7.5 -19t-16.5 -44t-21.5 -62t-23 -72.5t-21.5 -75
t-15 -70.5q-5 -28 -4.5 -44t5 -22t13 -3.5t20.5 11.5q9 7 20 22t24 34.5t26.5 43t25.5 47.5q14 26 19 30t5 -10q0 -5 -3 -15t-12 -26q-23 -40 -46.5 -77.5t-48.5 -63.5q-56 -61 -92 -46q-25 10 -34.5 58t11.5 137q-22 -43 -44.5 -79t-46 -62.5t-46.5 -41.5t-45 -15
q-20 0 -34 8q-17 -57 -36 -111.5t-38 -99.5v-1q-11 -1 -23 4.5t-22 14.5t-15.5 20.5t-2.5 23.5l131 331q10 33 27 73q28 69 41.5 117.5t18.5 79.5q5 36 3 59z" />
    <glyph glyph-name="paragraph" unicode="&#xb6;" horiz-adv-x="775" 
d="M778 554q14 -10 16 -18t-4.5 -11t-19.5 -0.5t-29 13.5l-32 19q-29 -52 -65.5 -141t-79.5 -231q-37 -117 -81.5 -198.5t-89.5 -126.5t-86.5 -52.5t-72.5 23.5q-9 9 -12 15q-42 -35 -79 -39t-65 24q-12 13 -25 32.5t-19 50.5t-0.5 75t30.5 106l1 1q10 1 25 -1.5t28 -9
t21 -16t5 -20.5q-1 -2 -6.5 -15.5t-13.5 -32.5t-16.5 -41t-14.5 -41.5t-8.5 -33.5t2.5 -16q29 -15 56 -13t54 32t56 94t62 173q-63 -17 -131 -17q-38 0 -73.5 12.5t-59 39t-30 68.5t12.5 102q21 65 68.5 117.5t111 88.5t139 54.5t153.5 16.5q53 76 109 90q29 7 39.5 -2
t10.5 -23t-5.5 -27t-6.5 -12l-3.5 -0.5t-10.5 -3.5t-17 -10t-23 -22q48 -9 93 -27t86 -46zM408 185q-35 -113 -77.5 -192t-85.5 -125q30 -15 57.5 -12t55.5 37t57.5 103.5t64.5 188.5q79 274 153 405q-13 4 -26 7.5t-26 5.5q-16 -22 -34.5 -56t-40 -84t-46 -118.5
t-52.5 -159.5z" />
    <glyph glyph-name="periodcentered" unicode="&#xb7;" horiz-adv-x="144" 
d="M157 236q-13 -20 -41.5 -29.5t-53.5 3.5q-26 13 -37 33t2 41q13 20 41.5 29.5t53.5 -3.5q26 -13 37 -33t-2 -41z" />
    <glyph glyph-name="cedilla" unicode="&#xb8;" horiz-adv-x="145" 
d="M73 1q-7 -16 -8.5 -20t4.5 -6q41 -14 68.5 -43t27.5 -61q0 -36 -31 -58t-79 -28q-17 -2 -25.5 10t-9 28t6 29.5t20.5 15.5q27 3 42 12t15 23t-12 30t-41 26q-14 4 -14 13.5t13 33.5q10 19 20.5 17t2.5 -22z" />
    <glyph glyph-name="uni00B9" unicode="&#xb9;" horiz-adv-x="202" 
d="M186 807q16 3 24.5 -3t10.5 -26.5t-3 -59.5t-17 -103q-8 -45 -19 -101.5t-22.5 -114t-23 -111t-20.5 -92.5q0 -2 -17 -0.5t-35.5 6.5t-32.5 15t-9 25q4 11 41 113.5t87 298.5q13 53 20.5 83.5t10.5 46t4 19.5z" />
    <glyph glyph-name="ordmasculine" unicode="&#xba;" horiz-adv-x="169" 
d="M140 654q29 -14 42.5 -35.5t-1.5 -44.5q-8 -11 -20.5 -19.5t-28.5 -13t-32.5 -3.5t-31.5 8q-29 14 -42 35.5t2 43.5q7 11 20 19.5t28.5 13t32 4t31.5 -7.5zM128 569q11 15 11 33.5t-8 33.5t-24 12.5t-27 -17.5t-11 -34t8 -34q9 -15 24.5 -12t26.5 18z" />
    <glyph glyph-name="guillemotright" unicode="&#xbb;" horiz-adv-x="337" 
d="M55 400q-2 7 -0.5 11.5t4.5 6t6.5 1t4.5 -2.5q17 -29 56.5 -65t85.5 -74q4 -4 4.5 -8.5t-4 -12.5t-15 -19.5t-27.5 -28.5q-14 -14 -29.5 -29t-29 -29t-24 -25t-15.5 -17l-1 -1q-17 3 -28.5 12t-16.5 19t-5 19t5 12l122 75q-8 12 -22 32t-28.5 42.5t-26.5 44t-16 37.5z
M194 400q-2 7 -0.5 11.5t5 6t6.5 1t4 -2.5q17 -29 56.5 -65t85.5 -74q7 -5 4.5 -13t-16.5 -25q-2 -2 -10 -12t-19.5 -24.5t-25 -31t-25.5 -31t-22 -25.5t-14 -14l-1 -1q-16 6 -28.5 16.5t-19.5 20t-8 17.5t5 10q12 4 28.5 14.5t34 24t34.5 29.5t29 32q-9 10 -24.5 26.5
t-31.5 35.5t-29.5 38.5t-17.5 35.5z" />
    <glyph glyph-name="onequarter" unicode="&#xbc;" horiz-adv-x="845" 
d="M186 807q16 3 24.5 -3t10.5 -26.5t-3 -59.5t-17 -103q-8 -45 -19 -101.5t-22.5 -114t-23 -111t-20.5 -92.5q0 -2 -17 -0.5t-35.5 6.5t-32.5 15t-9 25q4 11 41 113.5t87 298.5q13 53 20.5 83.5t10.5 46t4 19.5zM189 -151q-11 -2 -17.5 2.5t-8 24t3 57.5t16.5 103
q5 30 17 91t26.5 137.5t31 160.5t31.5 159t26.5 134t17.5 85q0 1 15.5 1t32.5 -4.5t29.5 -13.5t7.5 -25q-2 -6 -16.5 -48t-39.5 -130t-60 -227.5t-78 -338.5q-12 -54 -18.5 -87t-10.5 -51q-4 -21 -6 -30zM372 146q-5 0 -18 2t-24.5 7t-17 13t4.5 19q4 4 16.5 19.5t38.5 47.5
t67.5 84.5t102.5 132.5q33 44 51.5 70t26.5 41q10 17 11 25q16 3 25 -3t11 -26.5t-3 -59.5t-17 -103q-8 -44 -18.5 -96.5t-21.5 -106.5l53 9q1 0 3.5 -8.5t1 -18.5t-8.5 -19t-23 -10q-2 0 -12.5 -1t-23.5 -2l-35 -166q0 -2 -17 -0.5t-36 6.5t-33 15t-9 25q2 5 13 33.5
t28 80.5q-26 -2 -50 -3.5t-43 -3.5q-22 -2 -42 -3h-1zM614 527q-11 -20 -27 -46.5t-39 -60.5q-46 -68 -80 -128.5t-74 -118.5q16 4 50.5 10.5t77.5 14.5q16 49 35 112.5t39 143.5z" />
    <glyph glyph-name="onehalf" unicode="&#xbd;" horiz-adv-x="845" 
d="M186 807q16 3 24.5 -3t10.5 -26.5t-3 -59.5t-17 -103q-8 -45 -19 -101.5t-22.5 -114t-23 -111t-20.5 -92.5q0 -2 -17 -0.5t-35.5 6.5t-32.5 15t-9 25q4 11 41 113.5t87 298.5q13 53 20.5 83.5t10.5 46t4 19.5zM189 -151q-11 -2 -17.5 2.5t-8 24t3 57.5t16.5 103
q5 30 17 91t26.5 137.5t31 160.5t31.5 159t26.5 134t17.5 85q0 1 15.5 1t32.5 -4.5t29.5 -13.5t7.5 -25q-2 -6 -16.5 -48t-39.5 -130t-60 -227.5t-78 -338.5q-12 -54 -18.5 -87t-10.5 -51q-4 -21 -6 -30zM604 3q-29 -10 -51 -10t-40.5 5t-35.5 12t-36.5 10.5t-43.5 0
t-55 -19.5q-5 -2 -7.5 2.5t-3 11.5t0 13.5t3.5 9.5q117 117 193 230.5t99 201.5q8 31 3.5 51t-16.5 31t-29.5 15t-34.5 3.5t-31.5 -4t-21.5 -6.5q-5 -3 -6 -16t0 -31t3.5 -39t5.5 -39t5.5 -30.5t3.5 -14.5q3 -11 -5 -20.5t-21 -16t-28 -9.5t-25 -1l-1 1q-22 54 -22.5 95
t11.5 71.5t32 52t38 35.5q11 8 34.5 12t51.5 2t56.5 -12.5t49.5 -30.5t30.5 -52t-0.5 -78q-7 -32 -23.5 -65t-39 -64.5t-48.5 -61.5t-52 -56q-62 -62 -135 -118l1 -1q46 15 73 13.5t46 -8t34 -13.5t36 -3q36 8 54 27.5t27 55.5q1 2 4 3.5t6 1.5t5 -2t1 -7q-4 -15 -10 -35.5
t-16.5 -40.5t-27 -36.5t-41.5 -25.5z" />
    <glyph glyph-name="threequarters" unicode="&#xbe;" horiz-adv-x="845" 
d="M189 -151q-11 -2 -17.5 2.5t-8 24t3 57.5t16.5 103q5 30 17 91t26.5 137.5t31 160.5t31.5 159t26.5 134t17.5 85q0 1 15.5 1t32.5 -4.5t29.5 -13.5t7.5 -25q-2 -6 -16.5 -48t-39.5 -130t-60 -227.5t-78 -338.5q-12 -54 -18.5 -87t-10.5 -51q-4 -21 -6 -30zM372 146
q-5 0 -18 2t-24.5 7t-17 13t4.5 19q4 4 16.5 19.5t38.5 47.5t67.5 84.5t102.5 132.5q33 44 51.5 70t26.5 41q10 17 11 25q16 3 25 -3t11 -26.5t-3 -59.5t-17 -103q-8 -44 -18.5 -96.5t-21.5 -106.5l53 9q1 0 3.5 -8.5t1 -18.5t-8.5 -19t-23 -10q-2 0 -12.5 -1t-23.5 -2
l-35 -166q0 -2 -17 -0.5t-36 6.5t-33 15t-9 25q2 5 13 33.5t28 80.5q-26 -2 -50 -3.5t-43 -3.5q-22 -2 -42 -3h-1zM614 527q-11 -20 -27 -46.5t-39 -60.5q-46 -68 -80 -128.5t-74 -118.5q16 4 50.5 10.5t77.5 14.5q16 49 35 112.5t39 143.5zM181 372q-11 -49 -33 -82
t-50 -53.5t-58.5 -30t-57.5 -10t-48.5 5t-31.5 15.5q-13 13 -24.5 30.5t-15.5 45.5t3.5 70t32.5 103v1q10 1 25 -1.5t28 -9t21 -15.5t5 -20q-1 -2 -7.5 -14.5t-15.5 -30t-18.5 -38t-17 -38t-10 -30.5t2.5 -15q7 -4 21.5 -6.5t32 -1.5t37 7.5t37.5 20.5t32 37t21 58
q17 83 6.5 117.5t-40.5 38.5l-43 -2q-5 0 -7 3t-1 7.5t3.5 8t5.5 3.5q6 0 9 1q6 2 17 4q2 0 4 0.5t4 0.5q45 11 79 41t46 77q13 49 -0.5 72.5t-37.5 29.5t-50.5 0.5t-41.5 -12.5q-7 -4 -6.5 -19.5t4 -33.5t8.5 -33.5t6 -18.5q3 -11 -5 -20.5t-21 -16t-28 -9.5t-25 -1l-1 1
q-15 37 -16 65.5t8.5 51.5t27 40.5t39.5 31.5q12 8 35.5 12t50.5 2t54 -12.5t46 -30.5t27.5 -52t-1.5 -78q-11 -52 -44.5 -74.5t-75.5 -30.5q16 -9 29 -23t21 -33.5t9 -46t-6 -59.5z" />
    <glyph glyph-name="questiondown" unicode="&#xbf;" horiz-adv-x="391" 
d="M323 394q9 21 10.5 35.5t2.5 14.5q27 0 31 -22.5t-7 -49.5q-9 -20 -37.5 -53t-64 -84t-70.5 -123.5t-56 -172.5q-6 -31 -1 -51t17 -31.5t28.5 -15t33.5 -3t31 3.5t21 7q5 2 6 15.5t0 31.5t-3.5 39t-5.5 39t-5.5 31t-2.5 15q-3 11 4.5 20t20.5 15.5t28 9t26 1.5v-1
q22 -54 22.5 -95t-11.5 -71.5t-32 -52t-38 -35.5q-11 -8 -34 -12t-51 -2t-56.5 12.5t-49.5 30.5t-31 52t0 78q13 61 50.5 119t81 112t84 103t58.5 90zM298 593q13 20 41.5 29.5t54.5 -3.5q25 -13 36 -33t-2 -41q-6 -10 -17 -18t-24 -11.5t-27.5 -3t-26.5 6.5q-25 13 -36 33
t1 41z" />
    <glyph glyph-name="Agrave" unicode="&#xc0;" horiz-adv-x="623" 
d="M54 -3q-28 -5 -37.5 1.5t-3 28.5t30 61t61.5 101q18 29 51.5 79.5t74 112t84.5 127.5l84 126t71.5 108.5t47.5 75.5q1 2 17.5 -1t30.5 -11l2 7q0 1 18 1t38 -4.5t34.5 -14.5t7.5 -28q0 -2 -7.5 -23t-18 -57t-22 -84.5t-20.5 -103.5q-12 -74 -21.5 -131t-16.5 -102
t-12 -79t-9 -62q-8 -55 1.5 -65.5t32.5 8.5q7 6 18.5 20.5t24.5 34.5t27 44t26 48q14 26 19 30t5 -10q0 -5 -3 -15t-12 -26q-23 -40 -46.5 -77.5t-48.5 -63.5q-56 -61 -92 -46q-14 6 -20 22.5t-7 41t1.5 56.5t7.5 69q2 14 4.5 37t7.5 52l-2 -2q-30 -35 -101.5 -51.5
t-193.5 -13.5q-13 -20 -23.5 -37t-18.5 -31q-32 -54 -50 -84.5t-27.5 -45.5t-12 -19zM485 290q6 46 14.5 104.5t18 118.5t18.5 118t17 103q-27 -35 -74.5 -98t-101.5 -141q-38 -53 -72.5 -102.5t-63.5 -94.5q28 -1 67.5 -2.5t76.5 -2.5t65.5 -2t34.5 -1zM697 869
q1 -1 1.5 -5t-1 -8t-6 -6.5t-11.5 -0.5q-17 5 -41 21.5t-47 36t-42 37.5t-26 27h-1q6 16 17.5 27t23.5 16.5t21.5 5.5t11.5 -6q7 -19 18 -40.5t24.5 -42t28.5 -37t29 -25.5z" />
    <glyph glyph-name="Aacute" unicode="&#xc1;" horiz-adv-x="623" 
d="M54 -3q-28 -5 -37.5 1.5t-3 28.5t30 61t61.5 101q18 29 51.5 79.5t74 112t84.5 127.5l84 126t71.5 108.5t47.5 75.5q1 2 17.5 -1t30.5 -11l2 7q0 1 18 1t38 -4.5t34.5 -14.5t7.5 -28q0 -2 -7.5 -23t-18 -57t-22 -84.5t-20.5 -103.5q-12 -74 -21.5 -131t-16.5 -102
t-12 -79t-9 -62q-8 -55 1.5 -65.5t32.5 8.5q7 6 18.5 20.5t24.5 34.5t27 44t26 48q14 26 19 30t5 -10q0 -5 -3 -15t-12 -26q-23 -40 -46.5 -77.5t-48.5 -63.5q-56 -61 -92 -46q-14 6 -20 22.5t-7 41t1.5 56.5t7.5 69q2 14 4.5 37t7.5 52l-2 -2q-30 -35 -101.5 -51.5
t-193.5 -13.5q-13 -20 -23.5 -37t-18.5 -31q-32 -54 -50 -84.5t-27.5 -45.5t-12 -19zM485 290q6 46 14.5 104.5t18 118.5t18.5 118t17 103q-27 -35 -74.5 -98t-101.5 -141q-38 -53 -72.5 -102.5t-63.5 -94.5q28 -1 67.5 -2.5t76.5 -2.5t65.5 -2t34.5 -1zM547 873
q-1 -2 -5 -1.5t-8 3t-5.5 7t1.5 11.5q8 16 28 37t43 40.5t44 35.5t31 21v1q15 -9 24 -22t12.5 -25.5t1.5 -22t-8 -10.5q-20 -4 -43 -11.5t-45 -17.5t-41 -21.5t-30 -24.5z" />
    <glyph glyph-name="Acircumflex" unicode="&#xc2;" horiz-adv-x="623" 
d="M54 -3q-28 -5 -37.5 1.5t-3 28.5t30 61t61.5 101q18 29 51.5 79.5t74 112t84.5 127.5l84 126t71.5 108.5t47.5 75.5q1 2 17.5 -1t30.5 -11l2 7q0 1 18 1t38 -4.5t34.5 -14.5t7.5 -28q0 -2 -7.5 -23t-18 -57t-22 -84.5t-20.5 -103.5q-12 -74 -21.5 -131t-16.5 -102
t-12 -79t-9 -62q-8 -55 1.5 -65.5t32.5 8.5q7 6 18.5 20.5t24.5 34.5t27 44t26 48q14 26 19 30t5 -10q0 -5 -3 -15t-12 -26q-23 -40 -46.5 -77.5t-48.5 -63.5q-56 -61 -92 -46q-14 6 -20 22.5t-7 41t1.5 56.5t7.5 69q2 14 4.5 37t7.5 52l-2 -2q-30 -35 -101.5 -51.5
t-193.5 -13.5q-13 -20 -23.5 -37t-18.5 -31q-32 -54 -50 -84.5t-27.5 -45.5t-12 -19zM485 290q6 46 14.5 104.5t18 118.5t18.5 118t17 103q-27 -35 -74.5 -98t-101.5 -141q-38 -53 -72.5 -102.5t-63.5 -94.5q28 -1 67.5 -2.5t76.5 -2.5t65.5 -2t34.5 -1zM480 847
q-8 -2 -12 -0.5t-5.5 5t-1.5 6.5t2 4q15 8 39 23t51 33.5t53.5 40.5t45.5 45q11 13 40.5 -29t70.5 -121q0 -1 1 -1q-9 -15 -22 -22.5t-25.5 -9t-21.5 2t-10 9.5q-5 26 -17 54.5t-28 52.5q-12 -8 -32.5 -21.5t-43.5 -28t-45.5 -27t-38.5 -16.5z" />
    <glyph glyph-name="Atilde" unicode="&#xc3;" horiz-adv-x="623" 
d="M54 -3q-28 -5 -37.5 1.5t-3 28.5t30 61t61.5 101q18 29 51.5 79.5t74 112t84.5 127.5l84 126t71.5 108.5t47.5 75.5q1 2 17.5 -1t30.5 -11l2 7q0 1 18 1t38 -4.5t34.5 -14.5t7.5 -28q0 -2 -7.5 -23t-18 -57t-22 -84.5t-20.5 -103.5q-12 -74 -21.5 -131t-16.5 -102
t-12 -79t-9 -62q-8 -55 1.5 -65.5t32.5 8.5q7 6 18.5 20.5t24.5 34.5t27 44t26 48q14 26 19 30t5 -10q0 -5 -3 -15t-12 -26q-23 -40 -46.5 -77.5t-48.5 -63.5q-56 -61 -92 -46q-14 6 -20 22.5t-7 41t1.5 56.5t7.5 69q2 14 4.5 37t7.5 52l-2 -2q-30 -35 -101.5 -51.5
t-193.5 -13.5q-13 -20 -23.5 -37t-18.5 -31q-32 -54 -50 -84.5t-27.5 -45.5t-12 -19zM485 290q6 46 14.5 104.5t18 118.5t18.5 118t17 103q-27 -35 -74.5 -98t-101.5 -141q-38 -53 -72.5 -102.5t-63.5 -94.5q28 -1 67.5 -2.5t76.5 -2.5t65.5 -2t34.5 -1zM774 855
q-8 -11 -21 -14.5t-34 1.5t-51 18.5t-72 36.5q-49 26 -82 29t-48 -23q-5 -9 -10.5 -15t-8.5 -6t-2.5 7.5t6.5 24.5q15 38 32.5 55t36.5 20q13 2 28.5 -3t33.5 -14t39.5 -20.5t47.5 -22.5q52 -22 64.5 -14.5t-0.5 34.5q-5 10 -6.5 17.5t0 10t7.5 -2t16 -19.5q47 -68 24 -100z
" />
    <glyph glyph-name="Adieresis" unicode="&#xc4;" horiz-adv-x="623" 
d="M54 -3q-28 -5 -37.5 1.5t-3 28.5t30 61t61.5 101q18 29 51.5 79.5t74 112t84.5 127.5l84 126t71.5 108.5t47.5 75.5q1 2 17.5 -1t30.5 -11l2 7q0 1 18 1t38 -4.5t34.5 -14.5t7.5 -28q0 -2 -7.5 -23t-18 -57t-22 -84.5t-20.5 -103.5q-12 -74 -21.5 -131t-16.5 -102
t-12 -79t-9 -62q-8 -55 1.5 -65.5t32.5 8.5q7 6 18.5 20.5t24.5 34.5t27 44t26 48q14 26 19 30t5 -10q0 -5 -3 -15t-12 -26q-23 -40 -46.5 -77.5t-48.5 -63.5q-56 -61 -92 -46q-14 6 -20 22.5t-7 41t1.5 56.5t7.5 69q2 14 4.5 37t7.5 52l-2 -2q-30 -35 -101.5 -51.5
t-193.5 -13.5q-13 -20 -23.5 -37t-18.5 -31q-32 -54 -50 -84.5t-27.5 -45.5t-12 -19zM485 290q6 46 14.5 104.5t18 118.5t18.5 118t17 103q-27 -35 -74.5 -98t-101.5 -141q-38 -53 -72.5 -102.5t-63.5 -94.5q28 -1 67.5 -2.5t76.5 -2.5t65.5 -2t34.5 -1zM581 884
q-11 -20 -36 -29t-47 4q-23 12 -32.5 31t1.5 39t36.5 29t47.5 -4q22 -12 31.5 -31t-1.5 -39zM754 877q-11 -20 -36 -28.5t-47 3.5q-23 12 -32.5 31.5t1.5 39.5t36.5 28.5t47.5 -3.5q22 -13 31.5 -32t-1.5 -39z" />
    <glyph glyph-name="Aring" unicode="&#xc5;" horiz-adv-x="623" 
d="M54 -3q-28 -5 -37.5 1.5t-3 28.5t30 61t61.5 101q18 29 51.5 79.5t74 112t84.5 127.5l84 126t71.5 108.5t47.5 75.5q1 2 17.5 -1t30.5 -11l2 7q0 1 18 1t38 -4.5t34.5 -14.5t7.5 -28q0 -2 -7.5 -23t-18 -57t-22 -84.5t-20.5 -103.5q-12 -74 -21.5 -131t-16.5 -102
t-12 -79t-9 -62q-8 -55 1.5 -65.5t32.5 8.5q7 6 18.5 20.5t24.5 34.5t27 44t26 48q14 26 19 30t5 -10q0 -5 -3 -15t-12 -26q-23 -40 -46.5 -77.5t-48.5 -63.5q-56 -61 -92 -46q-14 6 -20 22.5t-7 41t1.5 56.5t7.5 69q2 14 4.5 37t7.5 52l-2 -2q-30 -35 -101.5 -51.5
t-193.5 -13.5q-13 -20 -23.5 -37t-18.5 -31q-32 -54 -50 -84.5t-27.5 -45.5t-12 -19zM485 290q6 46 14.5 104.5t18 118.5t18.5 118t17 103q-27 -35 -74.5 -98t-101.5 -141q-38 -53 -72.5 -102.5t-63.5 -94.5q28 -1 67.5 -2.5t76.5 -2.5t65.5 -2t34.5 -1zM667 984
q29 -14 42.5 -35.5t-1.5 -44.5q-8 -11 -20.5 -19.5t-28.5 -13t-32.5 -3.5t-31.5 8q-29 14 -42 35.5t2 43.5q7 11 20 19.5t28.5 13t32 4t31.5 -7.5zM655 899q11 15 11 33.5t-8 33.5t-24 12.5t-27 -17.5t-11 -34t8 -34q9 -15 24.5 -12t26.5 18z" />
    <glyph glyph-name="AE" unicode="&#xc6;" horiz-adv-x="810" 
d="M54 -3q-28 -5 -37.5 2t-3 28.5t30 61t61.5 100.5q18 29 51.5 80t74 112t84.5 127l84 126t71.5 109t47.5 75q1 2 17.5 -1t30.5 -11l2 8q0 1 18 1t38 -5t34.5 -15t7.5 -28q0 -1 -2 -7q24 24 51 37.5t53 17.5t49 -2.5t38 -21.5q17 -17 28.5 -39t14.5 -51t-4 -67.5t-27 -87.5
v-1q-11 -1 -25.5 2t-27.5 9t-21 15.5t-5 20.5l7 14t14 29t17 36.5t15 37t8.5 29.5t-2.5 15q-21 11 -46 8t-48 -16.5t-41 -37.5t-25 -55q-9 -36 -9.5 -67t6 -54.5t19.5 -37t33 -13.5q17 0 31.5 -0.5t31.5 -0.5q1 0 2.5 -6t-1 -13t-10.5 -13t-24 -6h-16t-16 2
q-20 -2 -44 -12.5t-47.5 -31.5t-44 -53t-32.5 -75q-14 -48 -14 -90t10.5 -73t30 -49t45.5 -18q21 0 46.5 12t52 34.5t52.5 55t47 72.5q14 26 18.5 30t5.5 -10q0 -5 -3 -14.5t-12 -25.5q-22 -38 -49 -75t-58.5 -66t-66.5 -47t-74 -18q-41 0 -70.5 21t-45.5 58.5t-16.5 89
t17.5 112.5l3 16l-2 -2q-30 -36 -101.5 -52.5t-193.5 -13.5q-13 -20 -23.5 -37t-18.5 -31q-32 -53 -50 -83.5t-27.5 -46t-12 -19.5zM485 290q6 46 14.5 104t17.5 118.5t18 118.5t17 103q-26 -35 -73.5 -97.5t-101.5 -141.5q-38 -53 -72 -102.5t-64 -94.5q28 -1 67.5 -2.5
t77 -2.5t65.5 -2t34 -1zM584 418q26 17 52 26.5t49 13.5q-26 12 -47.5 32t-32.5 50q-2 -11 -3.5 -20.5t-3.5 -20.5z" />
    <glyph glyph-name="Ccedilla" unicode="&#xc7;" horiz-adv-x="343" 
d="M369 466q-11 -2 -25.5 1t-27.5 9t-21 15.5t-5 20.5q1 2 8.5 20t18.5 44t22.5 56t20.5 56t13 44t-1 21q-62 31 -122 -46.5t-115 -270.5q-27 -93 -34 -164t-2 -119t17.5 -73.5t24.5 -27.5q16 -3 38 7t46.5 31t49.5 52.5t46 72.5q14 26 18.5 30t4.5 -10q0 -5 -2.5 -15
t-11.5 -26q-22 -38 -49 -73t-56.5 -62t-61 -43t-62.5 -16q-28 0 -51 30.5t-33 87.5t-3.5 137.5t37.5 180.5q37 121 81.5 203t89.5 126t86 50t72 -25q13 -13 22 -42t10 -71t-8.5 -96t-34.5 -115zM117 1q-7 -16 -8.5 -20t4.5 -6q41 -14 68.5 -43t27.5 -61q0 -36 -31 -58
t-79 -28q-17 -2 -25.5 10t-9 28t6 29.5t20.5 15.5q27 3 42 12t15 23t-12 30t-41 26q-14 4 -14 13.5t13 33.5q10 19 20.5 17t2.5 -22z" />
    <glyph glyph-name="Egrave" unicode="&#xc8;" horiz-adv-x="356" 
d="M29 270q15 50 39 84t52 55.5t56.5 32.5t54.5 16q-22 10 -41 26t-31.5 39t-15.5 54t7 70q15 61 48.5 99t71.5 55t74 14t58 -25q16 -17 28 -38.5t15 -51t-4 -67.5t-27 -87l-1 -1q-11 -2 -25.5 1t-27.5 9.5t-20.5 15.5t-4.5 20q0 2 6 14.5t14 29.5t17 36.5t15 37t8.5 29.5
t-2.5 15q-21 11 -46 8t-47.5 -16.5t-40.5 -37.5t-26 -55q-9 -36 -9.5 -67t6 -54.5t19.5 -37t33 -13.5q17 0 32 -1t32 -1q1 0 2.5 -6t-1.5 -12.5t-11 -12.5t-24 -6h-13.5t-13.5 2q-21 -1 -45.5 -11.5t-48.5 -31.5t-45 -53.5t-33 -76.5q-14 -48 -14.5 -90t10 -73t30 -48.5
t45.5 -17.5q21 0 48 12t55.5 34.5t56 55t48.5 72.5q14 26 19 30t5 -10q0 -5 -3 -15t-12 -26q-21 -38 -49.5 -74.5t-62 -65.5t-70.5 -47t-75 -18q-41 0 -71 21t-46 58.5t-16.5 89t18.5 112.5zM463 839q1 -1 1.5 -5t-1 -8t-6 -6.5t-11.5 -0.5q-17 5 -41 21.5t-47 36t-42 37.5
t-26 27h-1q6 16 17.5 27t23.5 16.5t21.5 5.5t11.5 -6q7 -19 18 -40.5t24.5 -42t28.5 -37t29 -25.5z" />
    <glyph glyph-name="Eacute" unicode="&#xc9;" horiz-adv-x="356" 
d="M29 270q15 50 39 84t52 55.5t56.5 32.5t54.5 16q-22 10 -41 26t-31.5 39t-15.5 54t7 70q15 61 48.5 99t71.5 55t74 14t58 -25q16 -17 28 -38.5t15 -51t-4 -67.5t-27 -87l-1 -1q-11 -2 -25.5 1t-27.5 9.5t-20.5 15.5t-4.5 20q0 2 6 14.5t14 29.5t17 36.5t15 37t8.5 29.5
t-2.5 15q-21 11 -46 8t-47.5 -16.5t-40.5 -37.5t-26 -55q-9 -36 -9.5 -67t6 -54.5t19.5 -37t33 -13.5q17 0 32 -1t32 -1q1 0 2.5 -6t-1.5 -12.5t-11 -12.5t-24 -6h-13.5t-13.5 2q-21 -1 -45.5 -11.5t-48.5 -31.5t-45 -53.5t-33 -76.5q-14 -48 -14.5 -90t10 -73t30 -48.5
t45.5 -17.5q21 0 48 12t55.5 34.5t56 55t48.5 72.5q14 26 19 30t5 -10q0 -5 -3 -15t-12 -26q-21 -38 -49.5 -74.5t-62 -65.5t-70.5 -47t-75 -18q-41 0 -71 21t-46 58.5t-16.5 89t18.5 112.5zM289 855q-1 -2 -5 -1.5t-8 3t-5.5 7t1.5 11.5q8 16 28 37t43 40.5t44 35.5t31 21
v1q15 -9 24 -22t12.5 -25.5t1.5 -22t-8 -10.5q-20 -4 -43 -11.5t-45 -17.5t-41 -21.5t-30 -24.5z" />
    <glyph glyph-name="Ecircumflex" unicode="&#xca;" horiz-adv-x="356" 
d="M29 270q15 50 39 84t52 55.5t56.5 32.5t54.5 16q-22 10 -41 26t-31.5 39t-15.5 54t7 70q15 61 48.5 99t71.5 55t74 14t58 -25q16 -17 28 -38.5t15 -51t-4 -67.5t-27 -87l-1 -1q-11 -2 -25.5 1t-27.5 9.5t-20.5 15.5t-4.5 20q0 2 6 14.5t14 29.5t17 36.5t15 37t8.5 29.5
t-2.5 15q-21 11 -46 8t-47.5 -16.5t-40.5 -37.5t-26 -55q-9 -36 -9.5 -67t6 -54.5t19.5 -37t33 -13.5q17 0 32 -1t32 -1q1 0 2.5 -6t-1.5 -12.5t-11 -12.5t-24 -6h-13.5t-13.5 2q-21 -1 -45.5 -11.5t-48.5 -31.5t-45 -53.5t-33 -76.5q-14 -48 -14.5 -90t10 -73t30 -48.5
t45.5 -17.5q21 0 48 12t55.5 34.5t56 55t48.5 72.5q14 26 19 30t5 -10q0 -5 -3 -15t-12 -26q-21 -38 -49.5 -74.5t-62 -65.5t-70.5 -47t-75 -18q-41 0 -71 21t-46 58.5t-16.5 89t18.5 112.5zM216 867q-8 -2 -12 -0.5t-5.5 5t-1.5 6.5t2 4q15 8 39 23t51 33.5t53.5 40.5
t45.5 45q11 13 40.5 -29t70.5 -121q0 -1 1 -1q-9 -15 -22 -22.5t-25.5 -9t-21.5 2t-10 9.5q-5 26 -17 54.5t-28 52.5q-12 -8 -32.5 -21.5t-43.5 -28t-45.5 -27t-38.5 -16.5z" />
    <glyph glyph-name="Edieresis" unicode="&#xcb;" horiz-adv-x="356" 
d="M29 270q15 50 39 84t52 55.5t56.5 32.5t54.5 16q-22 10 -41 26t-31.5 39t-15.5 54t7 70q15 61 48.5 99t71.5 55t74 14t58 -25q16 -17 28 -38.5t15 -51t-4 -67.5t-27 -87l-1 -1q-11 -2 -25.5 1t-27.5 9.5t-20.5 15.5t-4.5 20q0 2 6 14.5t14 29.5t17 36.5t15 37t8.5 29.5
t-2.5 15q-21 11 -46 8t-47.5 -16.5t-40.5 -37.5t-26 -55q-9 -36 -9.5 -67t6 -54.5t19.5 -37t33 -13.5q17 0 32 -1t32 -1q1 0 2.5 -6t-1.5 -12.5t-11 -12.5t-24 -6h-13.5t-13.5 2q-21 -1 -45.5 -11.5t-48.5 -31.5t-45 -53.5t-33 -76.5q-14 -48 -14.5 -90t10 -73t30 -48.5
t45.5 -17.5q21 0 48 12t55.5 34.5t56 55t48.5 72.5q14 26 19 30t5 -10q0 -5 -3 -15t-12 -26q-21 -38 -49.5 -74.5t-62 -65.5t-70.5 -47t-75 -18q-41 0 -71 21t-46 58.5t-16.5 89t18.5 112.5zM338 884q-11 -20 -36 -29t-47 4q-23 12 -32.5 31t1.5 39t36.5 29t47.5 -4
q22 -12 31.5 -31t-1.5 -39zM511 877q-11 -20 -36 -28.5t-47 3.5q-23 12 -32.5 31.5t1.5 39.5t36.5 28.5t47.5 -3.5q22 -13 31.5 -32t-1.5 -39z" />
    <glyph glyph-name="Igrave" unicode="&#xcc;" horiz-adv-x="393" 
d="M420 787q23 5 43.5 7t38.5 4q23 23 46 35.5t47 18.5q33 8 54.5 6t32 -12t10.5 -28t-10 -41q-2 -4 -13.5 -2t-33.5 6q-11 2 -23.5 2t-27.5 -1q-15 -10 -35 -34.5t-44.5 -72t-53.5 -121.5t-63 -184q-37 -117 -81.5 -198.5t-89.5 -126.5t-86.5 -52.5t-72.5 23.5
q-12 13 -25 32.5t-19 50.5t-0.5 75t30.5 106l1 1q10 1 25 -1.5t28 -9t21 -16t5 -20.5q-1 -2 -6.5 -15.5t-13.5 -32.5t-16.5 -41t-14.5 -41.5t-8.5 -33.5t2.5 -16q30 -16 58 -13.5t56 36t58 103.5t65 190q22 78 44 140t43.5 111t42.5 85.5t42 62.5l-68 -14q-42 -9 -86 -27.5
t-84 -45t-72 -61t-50 -74.5q-15 -33 -22.5 -62.5t-6 -53.5t12.5 -40.5t34 -22.5q5 -2 11.5 9t13.5 27.5t14 37t12.5 38.5t9.5 31t5 15q5 10 17 11.5t25.5 -3t26.5 -12.5t20 -16q-19 -50 -39.5 -82.5t-43 -52t-45.5 -28t-47 -9.5q-30 -1 -55.5 12t-38 41.5t-8.5 72t33 103.5
q24 51 67 88.5t94.5 64.5t107.5 44.5t106 26.5zM514 863q1 -1 1.5 -5t-1 -8t-6 -6.5t-11.5 -0.5q-17 5 -41 21.5t-47 36t-42 37.5t-26 27h-1q6 16 17.5 27t23.5 16.5t21.5 5.5t11.5 -6q7 -19 18 -40.5t24.5 -42t28.5 -37t29 -25.5z" />
    <glyph glyph-name="Iacute" unicode="&#xcd;" horiz-adv-x="393" 
d="M420 787q23 5 43.5 7t38.5 4q23 23 46 35.5t47 18.5q33 8 54.5 6t32 -12t10.5 -28t-10 -41q-2 -4 -13.5 -2t-33.5 6q-11 2 -23.5 2t-27.5 -1q-15 -10 -35 -34.5t-44.5 -72t-53.5 -121.5t-63 -184q-37 -117 -81.5 -198.5t-89.5 -126.5t-86.5 -52.5t-72.5 23.5
q-12 13 -25 32.5t-19 50.5t-0.5 75t30.5 106l1 1q10 1 25 -1.5t28 -9t21 -16t5 -20.5q-1 -2 -6.5 -15.5t-13.5 -32.5t-16.5 -41t-14.5 -41.5t-8.5 -33.5t2.5 -16q30 -16 58 -13.5t56 36t58 103.5t65 190q22 78 44 140t43.5 111t42.5 85.5t42 62.5l-68 -14q-42 -9 -86 -27.5
t-84 -45t-72 -61t-50 -74.5q-15 -33 -22.5 -62.5t-6 -53.5t12.5 -40.5t34 -22.5q5 -2 11.5 9t13.5 27.5t14 37t12.5 38.5t9.5 31t5 15q5 10 17 11.5t25.5 -3t26.5 -12.5t20 -16q-19 -50 -39.5 -82.5t-43 -52t-45.5 -28t-47 -9.5q-30 -1 -55.5 12t-38 41.5t-8.5 72t33 103.5
q24 51 67 88.5t94.5 64.5t107.5 44.5t106 26.5zM362 840q-1 -2 -5 -1.5t-8 3t-5.5 7t1.5 11.5q8 16 28 37t43 40.5t44 35.5t31 21v1q15 -9 24 -22t12.5 -25.5t1.5 -22t-8 -10.5q-20 -4 -43 -11.5t-45 -17.5t-41 -21.5t-30 -24.5z" />
    <glyph glyph-name="Icircumflex" unicode="&#xce;" horiz-adv-x="393" 
d="M420 787q23 5 43.5 7t38.5 4q23 23 46 35.5t47 18.5q33 8 54.5 6t32 -12t10.5 -28t-10 -41q-2 -4 -13.5 -2t-33.5 6q-11 2 -23.5 2t-27.5 -1q-15 -10 -35 -34.5t-44.5 -72t-53.5 -121.5t-63 -184q-37 -117 -81.5 -198.5t-89.5 -126.5t-86.5 -52.5t-72.5 23.5
q-12 13 -25 32.5t-19 50.5t-0.5 75t30.5 106l1 1q10 1 25 -1.5t28 -9t21 -16t5 -20.5q-1 -2 -6.5 -15.5t-13.5 -32.5t-16.5 -41t-14.5 -41.5t-8.5 -33.5t2.5 -16q30 -16 58 -13.5t56 36t58 103.5t65 190q22 78 44 140t43.5 111t42.5 85.5t42 62.5l-68 -14q-42 -9 -86 -27.5
t-84 -45t-72 -61t-50 -74.5q-15 -33 -22.5 -62.5t-6 -53.5t12.5 -40.5t34 -22.5q5 -2 11.5 9t13.5 27.5t14 37t12.5 38.5t9.5 31t5 15q5 10 17 11.5t25.5 -3t26.5 -12.5t20 -16q-19 -50 -39.5 -82.5t-43 -52t-45.5 -28t-47 -9.5q-30 -1 -55.5 12t-38 41.5t-8.5 72t33 103.5
q24 51 67 88.5t94.5 64.5t107.5 44.5t106 26.5zM476 895q-8 -2 -12 -0.5t-5.5 5t-1.5 6.5t2 4q15 8 39 23t51 33.5t53.5 40.5t45.5 45q11 13 40.5 -29t70.5 -121q0 -1 1 -1q-9 -15 -22 -22.5t-25.5 -9t-21.5 2t-10 9.5q-5 26 -17 54.5t-28 52.5q-12 -8 -32.5 -21.5
t-43.5 -28t-45.5 -27t-38.5 -16.5z" />
    <glyph glyph-name="Idieresis" unicode="&#xcf;" horiz-adv-x="393" 
d="M420 787q23 5 43.5 7t38.5 4q23 23 46 35.5t47 18.5q33 8 54.5 6t32 -12t10.5 -28t-10 -41q-2 -4 -13.5 -2t-33.5 6q-11 2 -23.5 2t-27.5 -1q-15 -10 -35 -34.5t-44.5 -72t-53.5 -121.5t-63 -184q-37 -117 -81.5 -198.5t-89.5 -126.5t-86.5 -52.5t-72.5 23.5
q-12 13 -25 32.5t-19 50.5t-0.5 75t30.5 106l1 1q10 1 25 -1.5t28 -9t21 -16t5 -20.5q-1 -2 -6.5 -15.5t-13.5 -32.5t-16.5 -41t-14.5 -41.5t-8.5 -33.5t2.5 -16q30 -16 58 -13.5t56 36t58 103.5t65 190q22 78 44 140t43.5 111t42.5 85.5t42 62.5l-68 -14q-42 -9 -86 -27.5
t-84 -45t-72 -61t-50 -74.5q-15 -33 -22.5 -62.5t-6 -53.5t12.5 -40.5t34 -22.5q5 -2 11.5 9t13.5 27.5t14 37t12.5 38.5t9.5 31t5 15q5 10 17 11.5t25.5 -3t26.5 -12.5t20 -16q-19 -50 -39.5 -82.5t-43 -52t-45.5 -28t-47 -9.5q-30 -1 -55.5 12t-38 41.5t-8.5 72t33 103.5
q24 51 67 88.5t94.5 64.5t107.5 44.5t106 26.5zM501 924q-11 -20 -36 -29t-47 4q-23 12 -32.5 31t1.5 39t36.5 29t47.5 -4q22 -12 31.5 -31t-1.5 -39zM674 917q-11 -20 -36 -28.5t-47 3.5q-23 12 -32.5 31.5t1.5 39.5t36.5 28.5t47.5 -3.5q22 -13 31.5 -32t-1.5 -39z" />
    <glyph glyph-name="Eth" unicode="&#xd0;" horiz-adv-x="446" 
d="M72 -3q-16 6 -30 20.5t-22 38.5t-9 57.5t10 75.5q6 24 16 60t22 80q-21 -1 -43.5 -1t-47.5 2h-1q-5 9 -4 22.5t6 26t14 21.5t21 10q2 0 24 -0.5t54 -1.5q14 48 28.5 97.5t27.5 94.5t24 83.5t17 64.5q-35 -17 -69.5 -43t-64.5 -63q-3 -4 -7 8t-7 28.5t-3.5 31.5t2.5 18
q13 13 42.5 29t69.5 30t88 24t97 10q56 0 99 -26.5t66.5 -78.5t22.5 -128t-32 -176q-38 -120 -91.5 -205t-110.5 -136.5t-112.5 -69.5t-96.5 -4zM288 395q-38 -46 -141 -59q-20 -64 -32 -106.5t-19 -79.5q-5 -26 -8.5 -49.5t-3.5 -41.5t5 -29.5t18 -11.5q27 -1 65 24
t78.5 74.5t80 123.5t68.5 172q28 94 32.5 163.5t-9.5 115.5t-44 68.5t-71 22.5q-46 0 -102 -22q12 -2 26.5 -6t26.5 -10t19 -14.5t4 -19.5q-2 -6 -12 -31t-24.5 -63t-32 -87t-35.5 -103l-7 -22q43 -2 77.5 -2.5t42.5 -0.5q4 0 -2 -6z" />
    <glyph glyph-name="Ntilde" unicode="&#xd1;" horiz-adv-x="503" 
d="M61 0q-26 -5 -38 -1t-12.5 23t9 55.5t26.5 97.5q42 152 71 257.5t48.5 178.5t32 122t21.5 88q0 1 10 0t24 -4.5t28.5 -9t24.5 -12.5q14 -9 14 -23q-1 -87 0.5 -166t5.5 -155t10 -151.5t14 -155.5l9 31q28 101 49.5 179.5t38 139t29 107t22 84.5t17.5 70.5t16 65.5
q0 1 18.5 -1t39 -8.5t35 -17t6.5 -24.5q-16 -29 -32 -60.5t-33 -70.5t-35.5 -88t-39.5 -113t-45.5 -145t-52.5 -184q-6 -21 -10.5 -40.5t-7.5 -35t-5 -25l-2 -9.5l-11 -3.5t-24.5 -3.5t-25.5 7t-15 28q-2 15 -6 48t-9.5 78t-11.5 99.5t-12 111.5t-12 115t-11 110
q-26 -70 -59 -175.5t-74 -260.5q-14 -53 -21 -83.5t-10 -46t-3.5 -19.5zM600 883q-8 -11 -21 -14.5t-34 1.5t-51 18.5t-72 36.5q-49 26 -82 29t-48 -23q-5 -9 -10.5 -15t-8.5 -6t-2.5 7.5t6.5 24.5q15 38 32.5 55t36.5 20q13 2 28.5 -3t33.5 -14t39.5 -20.5t47.5 -22.5
q52 -22 64.5 -14.5t-0.5 34.5q-5 10 -6.5 17.5t0 10t7.5 -2t16 -19.5q47 -68 24 -100z" />
    <glyph glyph-name="Ograve" unicode="&#xd2;" horiz-adv-x="446" 
d="M466 371q-33 -105 -80 -176.5t-97.5 -114.5t-98.5 -61.5t-82 -18.5q-39 0 -62.5 38t-31 100t1 140t32.5 158q33 106 75.5 178t89.5 115.5t94.5 61.5t89.5 17q52 -2 67 -35.5t-5 -90.5q21 -14 32.5 -37.5t13 -60.5t-7.5 -89t-31 -124zM379 371q34 117 53.5 185t13.5 96
q-19 -2 -36 2t-29 12t-16 18t3 19q11 16 18 30t6 24t-11.5 15t-33.5 4q-62 -4 -115.5 -93t-99.5 -247q-26 -88 -37 -161.5t-8 -126t21 -82t51 -29.5q30 0 59.5 23t57.5 66t54 105t49 140zM496 850q1 -1 1.5 -5t-1 -8t-6 -6.5t-11.5 -0.5q-17 5 -41 21.5t-47 36t-42 37.5
t-26 27h-1q6 16 17.5 27t23.5 16.5t21.5 5.5t11.5 -6q7 -19 18 -40.5t24.5 -42t28.5 -37t29 -25.5z" />
    <glyph glyph-name="Oacute" unicode="&#xd3;" horiz-adv-x="446" 
d="M466 371q-33 -105 -80 -176.5t-97.5 -114.5t-98.5 -61.5t-82 -18.5q-39 0 -62.5 38t-31 100t1 140t32.5 158q33 106 75.5 178t89.5 115.5t94.5 61.5t89.5 17q52 -2 67 -35.5t-5 -90.5q21 -14 32.5 -37.5t13 -60.5t-7.5 -89t-31 -124zM379 371q34 117 53.5 185t13.5 96
q-19 -2 -36 2t-29 12t-16 18t3 19q11 16 18 30t6 24t-11.5 15t-33.5 4q-62 -4 -115.5 -93t-99.5 -247q-26 -88 -37 -161.5t-8 -126t21 -82t51 -29.5q30 0 59.5 23t57.5 66t54 105t49 140zM311 829q-1 -2 -5 -1.5t-8 3t-5.5 7t1.5 11.5q8 16 28 37t43 40.5t44 35.5t31 21v1
q15 -9 24 -22t12.5 -25.5t1.5 -22t-8 -10.5q-20 -4 -43 -11.5t-45 -17.5t-41 -21.5t-30 -24.5z" />
    <glyph glyph-name="Ocircumflex" unicode="&#xd4;" horiz-adv-x="446" 
d="M466 371q-33 -105 -80 -176.5t-97.5 -114.5t-98.5 -61.5t-82 -18.5q-39 0 -62.5 38t-31 100t1 140t32.5 158q33 106 75.5 178t89.5 115.5t94.5 61.5t89.5 17q52 -2 67 -35.5t-5 -90.5q21 -14 32.5 -37.5t13 -60.5t-7.5 -89t-31 -124zM379 371q34 117 53.5 185t13.5 96
q-19 -2 -36 2t-29 12t-16 18t3 19q11 16 18 30t6 24t-11.5 15t-33.5 4q-62 -4 -115.5 -93t-99.5 -247q-26 -88 -37 -161.5t-8 -126t21 -82t51 -29.5q30 0 59.5 23t57.5 66t54 105t49 140zM262 851q-8 -2 -12 -0.5t-5.5 5t-1.5 6.5t2 4q15 8 39 23t51 33.5t53.5 40.5t45.5 45
q11 13 40.5 -29t70.5 -121q0 -1 1 -1q-9 -15 -22 -22.5t-25.5 -9t-21.5 2t-10 9.5q-5 26 -17 54.5t-28 52.5q-12 -8 -32.5 -21.5t-43.5 -28t-45.5 -27t-38.5 -16.5z" />
    <glyph glyph-name="Otilde" unicode="&#xd5;" horiz-adv-x="446" 
d="M466 371q-33 -105 -80 -176.5t-97.5 -114.5t-98.5 -61.5t-82 -18.5q-39 0 -62.5 38t-31 100t1 140t32.5 158q33 106 75.5 178t89.5 115.5t94.5 61.5t89.5 17q52 -2 67 -35.5t-5 -90.5q21 -14 32.5 -37.5t13 -60.5t-7.5 -89t-31 -124zM379 371q34 117 53.5 185t13.5 96
q-19 -2 -36 2t-29 12t-16 18t3 19q11 16 18 30t6 24t-11.5 15t-33.5 4q-62 -4 -115.5 -93t-99.5 -247q-26 -88 -37 -161.5t-8 -126t21 -82t51 -29.5q30 0 59.5 23t57.5 66t54 105t49 140zM582 822q-8 -11 -21 -14.5t-34 1.5t-51 18.5t-72 36.5q-49 26 -82 29t-48 -23
q-5 -9 -10.5 -15t-8.5 -6t-2.5 7.5t6.5 24.5q15 38 32.5 55t36.5 20q13 2 28.5 -3t33.5 -14t39.5 -20.5t47.5 -22.5q52 -22 64.5 -14.5t-0.5 34.5q-5 10 -6.5 17.5t0 10t7.5 -2t16 -19.5q47 -68 24 -100z" />
    <glyph glyph-name="Odieresis" unicode="&#xd6;" horiz-adv-x="446" 
d="M466 371q-33 -105 -80 -176.5t-97.5 -114.5t-98.5 -61.5t-82 -18.5q-39 0 -62.5 38t-31 100t1 140t32.5 158q33 106 75.5 178t89.5 115.5t94.5 61.5t89.5 17q52 -2 67 -35.5t-5 -90.5q21 -14 32.5 -37.5t13 -60.5t-7.5 -89t-31 -124zM379 371q34 117 53.5 185t13.5 96
q-19 -2 -36 2t-29 12t-16 18t3 19q11 16 18 30t6 24t-11.5 15t-33.5 4q-62 -4 -115.5 -93t-99.5 -247q-26 -88 -37 -161.5t-8 -126t21 -82t51 -29.5q30 0 59.5 23t57.5 66t54 105t49 140zM375 878q-11 -20 -36 -29t-47 4q-23 12 -32.5 31t1.5 39t36.5 29t47.5 -4
q22 -12 31.5 -31t-1.5 -39zM548 871q-11 -20 -36 -28.5t-47 3.5q-23 12 -32.5 31.5t1.5 39.5t36.5 28.5t47.5 -3.5q22 -13 31.5 -32t-1.5 -39z" />
    <glyph glyph-name="multiply" unicode="&#xd7;" horiz-adv-x="329" 
d="M47 183q9 50 70 104q-36 31 -75 75q3 10 13 19t22.5 14t25 5t21.5 -7q2 -2 17.5 -18.5t38.5 -40.5q46 31 111 66l1 1q9 -6 15 -18.5t8 -26t-1 -25.5t-13 -18l-67 -37l86 -92q3 -3 -5 -3q-30 -2 -65.5 12.5t-80.5 48.5q-21 -11 -41.5 -22t-37 -20l-27.5 -15t-14 -8
q-4 0 -2 6z" />
    <glyph glyph-name="Oslash" unicode="&#xd8;" horiz-adv-x="446" 
d="M466 371q-33 -105 -80 -176.5t-97.5 -114.5t-98.5 -61.5t-82 -18.5q-39 0 -62.5 38t-31 100t1 140t32.5 158q33 106 75.5 178t89.5 115.5t94.5 61.5t89.5 17q52 -2 67 -35.5t-5 -90.5q21 -14 32.5 -37.5t13 -60.5t-7.5 -89t-31 -124zM379 371q34 117 53.5 185t13.5 96
q-19 -2 -36 2t-29 12t-16 18t3 19q11 16 18 30t6 24t-11.5 15t-33.5 4q-62 -4 -115.5 -93t-99.5 -247q-26 -88 -37 -161.5t-8 -126t21 -82t51 -29.5q30 0 59.5 23t57.5 66t54 105t49 140zM155 -81q-11 -2 -17.5 2.5t-8 24t3 57.5t16.5 103q5 30 17 91t26.5 137.5t31 160.5
t31.5 159t26.5 134t17.5 85q0 1 15.5 1t32.5 -4.5t29.5 -13.5t7.5 -25q-2 -6 -16.5 -48t-39.5 -130t-60 -227.5t-78 -338.5q-12 -54 -18.5 -87t-10.5 -51q-4 -21 -6 -30z" />
    <glyph glyph-name="Ugrave" unicode="&#xd9;" horiz-adv-x="447" 
d="M273 196q7 28 17.5 68.5t23 86t26 93.5t27.5 91l24.5 80.5t19.5 65t17 62t17 71.5q0 1 18.5 0.5t38.5 -5t34.5 -14.5t7.5 -28q-1 -2 -10 -24.5t-23 -60t-31.5 -86t-35.5 -101.5q-18 -54 -35 -109t-32 -104.5t-25.5 -90t-14.5 -65.5q-5 -28 -3 -44t8.5 -22t16.5 -3.5
t22 11.5q7 6 18 20.5t24 34.5t27 44t27 48q14 26 18.5 30t4.5 -10q0 -5 -2.5 -15t-11.5 -26q-23 -40 -47 -77.5t-48 -63.5q-56 -61 -92 -46q-17 7 -26.5 30t-11.5 58q-36 -42 -77 -68.5t-81 -26.5q-33 0 -56 30.5t-32 87.5t-0.5 137.5t38.5 180.5q24 81 40 138t27.5 100
t19 77t13.5 70q0 1 17.5 -0.5t37 -7.5t34 -16.5t9.5 -26.5q-12 -38 -25 -73t-27.5 -73.5t-30 -84t-32.5 -103.5q-27 -94 -35.5 -164.5t-4.5 -118.5t17 -73t30 -28q21 -5 53 14.5t66 58.5q1 31 11 71zM417 852q1 -1 1.5 -5t-1 -8t-6 -6.5t-11.5 -0.5q-17 5 -41 21.5t-47 36
t-42 37.5t-26 27h-1q6 16 17.5 27t23.5 16.5t21.5 5.5t11.5 -6q7 -19 18 -40.5t24.5 -42t28.5 -37t29 -25.5z" />
    <glyph glyph-name="Uacute" unicode="&#xda;" horiz-adv-x="447" 
d="M273 196q7 28 17.5 68.5t23 86t26 93.5t27.5 91l24.5 80.5t19.5 65t17 62t17 71.5q0 1 18.5 0.5t38.5 -5t34.5 -14.5t7.5 -28q-1 -2 -10 -24.5t-23 -60t-31.5 -86t-35.5 -101.5q-18 -54 -35 -109t-32 -104.5t-25.5 -90t-14.5 -65.5q-5 -28 -3 -44t8.5 -22t16.5 -3.5
t22 11.5q7 6 18 20.5t24 34.5t27 44t27 48q14 26 18.5 30t4.5 -10q0 -5 -2.5 -15t-11.5 -26q-23 -40 -47 -77.5t-48 -63.5q-56 -61 -92 -46q-17 7 -26.5 30t-11.5 58q-36 -42 -77 -68.5t-81 -26.5q-33 0 -56 30.5t-32 87.5t-0.5 137.5t38.5 180.5q24 81 40 138t27.5 100
t19 77t13.5 70q0 1 17.5 -0.5t37 -7.5t34 -16.5t9.5 -26.5q-12 -38 -25 -73t-27.5 -73.5t-30 -84t-32.5 -103.5q-27 -94 -35.5 -164.5t-4.5 -118.5t17 -73t30 -28q21 -5 53 14.5t66 58.5q1 31 11 71zM340 823q-1 -2 -5 -1.5t-8 3t-5.5 7t1.5 11.5q8 16 28 37t43 40.5
t44 35.5t31 21v1q15 -9 24 -22t12.5 -25.5t1.5 -22t-8 -10.5q-20 -4 -43 -11.5t-45 -17.5t-41 -21.5t-30 -24.5z" />
    <glyph glyph-name="Ucircumflex" unicode="&#xdb;" horiz-adv-x="447" 
d="M273 196q7 28 17.5 68.5t23 86t26 93.5t27.5 91l24.5 80.5t19.5 65t17 62t17 71.5q0 1 18.5 0.5t38.5 -5t34.5 -14.5t7.5 -28q-1 -2 -10 -24.5t-23 -60t-31.5 -86t-35.5 -101.5q-18 -54 -35 -109t-32 -104.5t-25.5 -90t-14.5 -65.5q-5 -28 -3 -44t8.5 -22t16.5 -3.5
t22 11.5q7 6 18 20.5t24 34.5t27 44t27 48q14 26 18.5 30t4.5 -10q0 -5 -2.5 -15t-11.5 -26q-23 -40 -47 -77.5t-48 -63.5q-56 -61 -92 -46q-17 7 -26.5 30t-11.5 58q-36 -42 -77 -68.5t-81 -26.5q-33 0 -56 30.5t-32 87.5t-0.5 137.5t38.5 180.5q24 81 40 138t27.5 100
t19 77t13.5 70q0 1 17.5 -0.5t37 -7.5t34 -16.5t9.5 -26.5q-12 -38 -25 -73t-27.5 -73.5t-30 -84t-32.5 -103.5q-27 -94 -35.5 -164.5t-4.5 -118.5t17 -73t30 -28q21 -5 53 14.5t66 58.5q1 31 11 71zM237 881q-8 -2 -12 -0.5t-5.5 5t-1.5 6.5t2 4q15 8 39 23t51 33.5
t53.5 40.5t45.5 45q11 13 40.5 -29t70.5 -121q0 -1 1 -1q-9 -15 -22 -22.5t-25.5 -9t-21.5 2t-10 9.5q-5 26 -17 54.5t-28 52.5q-12 -8 -32.5 -21.5t-43.5 -28t-45.5 -27t-38.5 -16.5z" />
    <glyph glyph-name="Udieresis" unicode="&#xdc;" horiz-adv-x="447" 
d="M273 196q7 28 17.5 68.5t23 86t26 93.5t27.5 91l24.5 80.5t19.5 65t17 62t17 71.5q0 1 18.5 0.5t38.5 -5t34.5 -14.5t7.5 -28q-1 -2 -10 -24.5t-23 -60t-31.5 -86t-35.5 -101.5q-18 -54 -35 -109t-32 -104.5t-25.5 -90t-14.5 -65.5q-5 -28 -3 -44t8.5 -22t16.5 -3.5
t22 11.5q7 6 18 20.5t24 34.5t27 44t27 48q14 26 18.5 30t4.5 -10q0 -5 -2.5 -15t-11.5 -26q-23 -40 -47 -77.5t-48 -63.5q-56 -61 -92 -46q-17 7 -26.5 30t-11.5 58q-36 -42 -77 -68.5t-81 -26.5q-33 0 -56 30.5t-32 87.5t-0.5 137.5t38.5 180.5q24 81 40 138t27.5 100
t19 77t13.5 70q0 1 17.5 -0.5t37 -7.5t34 -16.5t9.5 -26.5q-12 -38 -25 -73t-27.5 -73.5t-30 -84t-32.5 -103.5q-27 -94 -35.5 -164.5t-4.5 -118.5t17 -73t30 -28q21 -5 53 14.5t66 58.5q1 31 11 71zM356 898q-11 -20 -36 -29t-47 4q-23 12 -32.5 31t1.5 39t36.5 29t47.5 -4
q22 -12 31.5 -31t-1.5 -39zM529 891q-11 -20 -36 -28.5t-47 3.5q-23 12 -32.5 31.5t1.5 39.5t36.5 28.5t47.5 -3.5q22 -13 31.5 -32t-1.5 -39z" />
    <glyph glyph-name="Yacute" unicode="&#xdd;" horiz-adv-x="464" 
d="M298 770q-12 -38 -25 -73t-27.5 -73.5t-30 -84t-32.5 -103.5q-27 -94 -38 -164.5t-10 -118.5t12 -73t28 -28q15 -3 34 5t39.5 27t40.5 47.5t35 67.5q29 91 56.5 186.5t50 180.5t38.5 151t23 97q0 1 18.5 0.5t38.5 -5t34.5 -14.5t7.5 -28q-1 -1 -12.5 -36.5t-30.5 -95
t-44 -136t-52.5 -159.5t-55.5 -166.5t-53 -156.5q-29 -83 -72 -140t-87.5 -88t-83.5 -37t-58 14q-29 29 -31.5 83t24.5 120v1q10 1 25 -1.5t28 -9t21 -15.5t5 -20q-1 -3 -13.5 -21t-26 -38.5t-22.5 -38.5t-1 -22q17 -9 43 1.5t55 37.5t58 71t53 103l32 86q-33 -46 -74 -74.5
t-83 -28.5q-33 0 -54 30.5t-26.5 87.5t5 137.5t40.5 180.5q24 81 40.5 138t27.5 100t18.5 77t13.5 70q0 1 17.5 -0.5t37 -7.5t34 -16.5t9.5 -26.5zM377 846q-1 -2 -5 -1.5t-8 3t-5.5 7t1.5 11.5q8 16 28 37t43 40.5t44 35.5t31 21v1q15 -9 24 -22t12.5 -25.5t1.5 -22
t-8 -10.5q-20 -4 -43 -11.5t-45 -17.5t-41 -21.5t-30 -24.5z" />
    <glyph glyph-name="Thorn" unicode="&#xde;" horiz-adv-x="464" 
d="M101 -7q-26 -5 -43 -1t-23 22.5t-1 55t22 97.5q39 141 66 241t47 172q-71 -47 -141 -132q-3 -4 -7 8t-7 28.5t-3.5 31.5t2.5 18q23 23 67 53.5t104 50.5q16 58 26 99.5t18 76.5q0 1 17.5 -1t37 -8t34.5 -16.5t10 -25.5q-2 -5 -11.5 -29.5t-26.5 -73.5q8 1 15.5 1.5
t15.5 0.5q48 0 89.5 -15.5t68 -46.5t34 -76t-11.5 -105q-17 -51 -53.5 -96t-85.5 -81.5t-107.5 -61.5t-118.5 -35q-14 -53 -21 -83.5t-10 -45.5q-4 -18 -3 -23zM300 628q-6 0 -12 -0.5t-11 -1.5q-23 -69 -56.5 -177.5t-76.5 -267.5q1 0 1.5 0.5t1.5 0.5q45 7 86 29t75.5 54
t59.5 71.5t38 82.5q18 58 17 97.5t-16.5 64.5t-43 36t-63.5 11z" />
    <glyph glyph-name="germandbls" unicode="&#xdf;" horiz-adv-x="443" 
d="M201 270q10 1 25 -1.5t28 -9t21 -16t5 -20.5q-1 -2 -10 -14.5t-22 -30.5t-27.5 -39t-25.5 -39t-16.5 -31.5t-0.5 -15.5q15 -8 37.5 0t45.5 29.5t44 55.5t33 78q12 42 3 66.5t-28.5 37.5t-43.5 16.5t-41 5.5h-18q-11 0 -13 3.5t1.5 8t9.5 8t11 3.5q24 0 47 16t42.5 42.5
t35 60.5t25.5 69q17 58 7.5 95.5t-44.5 37.5q-26 0 -57.5 -58.5t-60.5 -157.5q-4 -13 -17 -55t-29 -95t-33 -109t-30 -96q-2 -6 -8.5 -26.5t-15.5 -50.5t-19.5 -67t-19.5 -76q0 -2 -18.5 -1.5t-38.5 5t-34.5 14.5t-7.5 28q1 1 6.5 11t16.5 34t26.5 64.5t35.5 103.5
q8 24 20.5 65.5t26 85.5t26 84.5t18.5 61.5q21 71 46 121t54.5 81t63 45t70.5 14q71 0 96 -44.5t4 -114.5q-26 -82 -63.5 -125.5t-78.5 -63.5q28 -4 53 -14t41.5 -27.5t22 -43.5t-5.5 -63q-23 -75 -59 -122t-73.5 -70t-70.5 -24.5t-49 15.5q-13 13 -19 31t-3.5 47t15 71.5
t37.5 104.5z" />
    <glyph glyph-name="agrave" unicode="&#xe0;" horiz-adv-x="392" 
d="M248 197q-9 -26 -23 -60t-33 -64.5t-42.5 -51.5t-51.5 -21q-30 0 -50.5 22.5t-29.5 59t-6.5 84t17.5 97.5q23 75 60.5 128.5t76 84t72 38t48.5 -9.5q11 -13 21 -28t17 -29q11 -2 22.5 -6t20.5 -10t14 -13.5t2 -15.5q-1 -3 -11.5 -28t-24 -63.5t-27.5 -87t-22 -97.5
q-5 -28 -4.5 -44t5 -22t13 -3.5t20.5 11.5q9 7 20 22t24 34.5t26.5 43t25.5 47.5q14 26 19 30t5 -10q0 -5 -3 -15t-12 -26q-23 -40 -46.5 -77.5t-48.5 -63.5q-56 -61 -92 -46q-13 6 -18 24t-4 44.5t6.5 58t14.5 63.5q1 4 0.5 3.5t-1.5 -3.5zM294 431q2 6 3 9.5t2 5.5
q-5 6 -10.5 11.5t-10.5 8.5q-15 8 -38.5 -6t-47.5 -43.5t-45.5 -69.5t-33.5 -84q-13 -44 -17 -81t-1 -64t12 -42t23 -15q25 0 51.5 41t56.5 140q18 61 33 110t23 79zM381 539q1 -1 1.5 -5t-1 -8t-6 -6.5t-11.5 -0.5q-17 5 -41 21.5t-47 36t-42 37.5t-26 27h-1q6 16 17.5 27
t23.5 16.5t21.5 5.5t11.5 -6q7 -19 18 -40.5t24.5 -42t28.5 -37t29 -25.5z" />
    <glyph glyph-name="aacute" unicode="&#xe1;" horiz-adv-x="392" 
d="M248 197q-9 -26 -23 -60t-33 -64.5t-42.5 -51.5t-51.5 -21q-30 0 -50.5 22.5t-29.5 59t-6.5 84t17.5 97.5q23 75 60.5 128.5t76 84t72 38t48.5 -9.5q11 -13 21 -28t17 -29q11 -2 22.5 -6t20.5 -10t14 -13.5t2 -15.5q-1 -3 -11.5 -28t-24 -63.5t-27.5 -87t-22 -97.5
q-5 -28 -4.5 -44t5 -22t13 -3.5t20.5 11.5q9 7 20 22t24 34.5t26.5 43t25.5 47.5q14 26 19 30t5 -10q0 -5 -3 -15t-12 -26q-23 -40 -46.5 -77.5t-48.5 -63.5q-56 -61 -92 -46q-13 6 -18 24t-4 44.5t6.5 58t14.5 63.5q1 4 0.5 3.5t-1.5 -3.5zM294 431q2 6 3 9.5t2 5.5
q-5 6 -10.5 11.5t-10.5 8.5q-15 8 -38.5 -6t-47.5 -43.5t-45.5 -69.5t-33.5 -84q-13 -44 -17 -81t-1 -64t12 -42t23 -15q25 0 51.5 41t56.5 140q18 61 33 110t23 79zM221 533q-1 -2 -5 -1.5t-8 3t-5.5 7t1.5 11.5q8 16 28 37t43 40.5t44 35.5t31 21v1q15 -9 24 -22
t12.5 -25.5t1.5 -22t-8 -10.5q-20 -4 -43 -11.5t-45 -17.5t-41 -21.5t-30 -24.5z" />
    <glyph glyph-name="acircumflex" unicode="&#xe2;" horiz-adv-x="392" 
d="M248 197q-9 -26 -23 -60t-33 -64.5t-42.5 -51.5t-51.5 -21q-30 0 -50.5 22.5t-29.5 59t-6.5 84t17.5 97.5q23 75 60.5 128.5t76 84t72 38t48.5 -9.5q11 -13 21 -28t17 -29q11 -2 22.5 -6t20.5 -10t14 -13.5t2 -15.5q-1 -3 -11.5 -28t-24 -63.5t-27.5 -87t-22 -97.5
q-5 -28 -4.5 -44t5 -22t13 -3.5t20.5 11.5q9 7 20 22t24 34.5t26.5 43t25.5 47.5q14 26 19 30t5 -10q0 -5 -3 -15t-12 -26q-23 -40 -46.5 -77.5t-48.5 -63.5q-56 -61 -92 -46q-13 6 -18 24t-4 44.5t6.5 58t14.5 63.5q1 4 0.5 3.5t-1.5 -3.5zM294 431q2 6 3 9.5t2 5.5
q-5 6 -10.5 11.5t-10.5 8.5q-15 8 -38.5 -6t-47.5 -43.5t-45.5 -69.5t-33.5 -84q-13 -44 -17 -81t-1 -64t12 -42t23 -15q25 0 51.5 41t56.5 140q18 61 33 110t23 79zM164 547q-8 -2 -12 -0.5t-5.5 5t-1.5 6.5t2 4q15 8 39 23t51 33.5t53.5 40.5t45.5 45q11 13 40.5 -29
t70.5 -121q0 -1 1 -1q-9 -15 -22 -22.5t-25.5 -9t-21.5 2t-10 9.5q-5 26 -17 54.5t-28 52.5q-12 -8 -32.5 -21.5t-43.5 -28t-45.5 -27t-38.5 -16.5z" />
    <glyph glyph-name="atilde" unicode="&#xe3;" horiz-adv-x="392" 
d="M248 197q-9 -26 -23 -60t-33 -64.5t-42.5 -51.5t-51.5 -21q-30 0 -50.5 22.5t-29.5 59t-6.5 84t17.5 97.5q23 75 60.5 128.5t76 84t72 38t48.5 -9.5q11 -13 21 -28t17 -29q11 -2 22.5 -6t20.5 -10t14 -13.5t2 -15.5q-1 -3 -11.5 -28t-24 -63.5t-27.5 -87t-22 -97.5
q-5 -28 -4.5 -44t5 -22t13 -3.5t20.5 11.5q9 7 20 22t24 34.5t26.5 43t25.5 47.5q14 26 19 30t5 -10q0 -5 -3 -15t-12 -26q-23 -40 -46.5 -77.5t-48.5 -63.5q-56 -61 -92 -46q-13 6 -18 24t-4 44.5t6.5 58t14.5 63.5q1 4 0.5 3.5t-1.5 -3.5zM294 431q2 6 3 9.5t2 5.5
q-5 6 -10.5 11.5t-10.5 8.5q-15 8 -38.5 -6t-47.5 -43.5t-45.5 -69.5t-33.5 -84q-13 -44 -17 -81t-1 -64t12 -42t23 -15q25 0 51.5 41t56.5 140q18 61 33 110t23 79zM458 555q-8 -11 -21 -14.5t-34 1.5t-51 18.5t-72 36.5q-49 26 -82 29t-48 -23q-5 -9 -10.5 -15t-8.5 -6
t-2.5 7.5t6.5 24.5q15 38 32.5 55t36.5 20q13 2 28.5 -3t33.5 -14t39.5 -20.5t47.5 -22.5q52 -22 64.5 -14.5t-0.5 34.5q-5 10 -6.5 17.5t0 10t7.5 -2t16 -19.5q47 -68 24 -100z" />
    <glyph glyph-name="adieresis" unicode="&#xe4;" horiz-adv-x="392" 
d="M248 197q-9 -26 -23 -60t-33 -64.5t-42.5 -51.5t-51.5 -21q-30 0 -50.5 22.5t-29.5 59t-6.5 84t17.5 97.5q23 75 60.5 128.5t76 84t72 38t48.5 -9.5q11 -13 21 -28t17 -29q11 -2 22.5 -6t20.5 -10t14 -13.5t2 -15.5q-1 -3 -11.5 -28t-24 -63.5t-27.5 -87t-22 -97.5
q-5 -28 -4.5 -44t5 -22t13 -3.5t20.5 11.5q9 7 20 22t24 34.5t26.5 43t25.5 47.5q14 26 19 30t5 -10q0 -5 -3 -15t-12 -26q-23 -40 -46.5 -77.5t-48.5 -63.5q-56 -61 -92 -46q-13 6 -18 24t-4 44.5t6.5 58t14.5 63.5q1 4 0.5 3.5t-1.5 -3.5zM294 431q2 6 3 9.5t2 5.5
q-5 6 -10.5 11.5t-10.5 8.5q-15 8 -38.5 -6t-47.5 -43.5t-45.5 -69.5t-33.5 -84q-13 -44 -17 -81t-1 -64t12 -42t23 -15q25 0 51.5 41t56.5 140q18 61 33 110t23 79zM266 584q-11 -20 -36 -29t-47 4q-23 12 -32.5 31t1.5 39t36.5 29t47.5 -4q22 -12 31.5 -31t-1.5 -39z
M439 577q-11 -20 -36 -28.5t-47 3.5q-23 12 -32.5 31.5t1.5 39.5t36.5 28.5t47.5 -3.5q22 -13 31.5 -32t-1.5 -39z" />
    <glyph glyph-name="aring" unicode="&#xe5;" horiz-adv-x="392" 
d="M248 197q-9 -26 -23 -60t-33 -64.5t-42.5 -51.5t-51.5 -21q-30 0 -50.5 22.5t-29.5 59t-6.5 84t17.5 97.5q23 75 60.5 128.5t76 84t72 38t48.5 -9.5q11 -13 21 -28t17 -29q11 -2 22.5 -6t20.5 -10t14 -13.5t2 -15.5q-1 -3 -11.5 -28t-24 -63.5t-27.5 -87t-22 -97.5
q-5 -28 -4.5 -44t5 -22t13 -3.5t20.5 11.5q9 7 20 22t24 34.5t26.5 43t25.5 47.5q14 26 19 30t5 -10q0 -5 -3 -15t-12 -26q-23 -40 -46.5 -77.5t-48.5 -63.5q-56 -61 -92 -46q-13 6 -18 24t-4 44.5t6.5 58t14.5 63.5q1 4 0.5 3.5t-1.5 -3.5zM294 431q2 6 3 9.5t2 5.5
q-5 6 -10.5 11.5t-10.5 8.5q-15 8 -38.5 -6t-47.5 -43.5t-45.5 -69.5t-33.5 -84q-13 -44 -17 -81t-1 -64t12 -42t23 -15q25 0 51.5 41t56.5 140q18 61 33 110t23 79zM351 654q29 -14 42.5 -35.5t-1.5 -44.5q-8 -11 -20.5 -19.5t-28.5 -13t-32.5 -3.5t-31.5 8
q-29 14 -42 35.5t2 43.5q7 11 20 19.5t28.5 13t32 4t31.5 -7.5zM339 569q11 15 11 33.5t-8 33.5t-24 12.5t-27 -17.5t-11 -34t8 -34q9 -15 24.5 -12t26.5 18z" />
    <glyph glyph-name="ae" unicode="&#xe6;" horiz-adv-x="557" 
d="M571 410q-5 -24 -27 -54.5t-56 -63t-77 -65.5t-88 -63q-3 -48 8 -78t34 -34q16 -3 39 7t49 31t52.5 52.5t47.5 72.5q14 26 19 30t5 -10q0 -5 -3 -15t-12 -26q-21 -38 -49.5 -73t-60 -62t-64 -43t-63.5 -16q-46 0 -68 39.5t-21 99.5q-11 -25 -24 -49.5t-29 -44.5
t-34.5 -32.5t-39.5 -12.5q-31 0 -51.5 22.5t-29.5 59t-6.5 84t17.5 97.5q23 75 60.5 128.5t76 84t72 38t49.5 -9.5q11 -13 21 -28.5t17 -29.5q5 -1 10.5 -2t10.5 -3q24 25 47.5 42t45 25t38.5 7t28 -11q5 -5 15.5 -14.5t20.5 -21.5t16.5 -27t3.5 -31zM305 431q2 5 3 8.5
t1 5.5q-5 7 -10.5 12.5t-10.5 8.5q-15 8 -38 -6t-47 -43.5t-45.5 -69.5t-34.5 -84t-16.5 -81t-0.5 -64t12 -42t22 -15q26 0 52.5 41t55.5 140zM341 263q-6 -20 -10 -38t-6 -35q46 35 84.5 80.5t64 87.5t35 73.5t-2.5 37.5q-15 8 -38 -7t-47 -44.5t-45.5 -70t-34.5 -84.5z
" />
    <glyph glyph-name="ccedilla" unicode="&#xe7;" horiz-adv-x="292" 
d="M257 249q-11 -2 -25.5 1t-27.5 9.5t-21 16t-5 20.5q1 2 10 14.5t22 30.5t27.5 39t25.5 39t16.5 31t0.5 16q-15 8 -38.5 -6.5t-47.5 -43.5t-45.5 -69t-33.5 -84q-13 -44 -17 -81.5t0 -65t14.5 -44.5t26.5 -20t39.5 7t49.5 31t52.5 52.5t47.5 72.5q14 26 19 30t5 -10
q0 -5 -3 -15t-12 -26q-22 -38 -50.5 -73t-60 -62t-64 -43t-63.5 -16q-34 0 -54.5 22.5t-28.5 59t-4 84t19 97.5q23 75 60 128t75 84t71.5 38t50.5 -9q13 -13 19 -31t3.5 -47t-15 -72t-37.5 -104zM91 1q-7 -16 -8.5 -20t4.5 -6q41 -14 68.5 -43t27.5 -61q0 -36 -31 -58
t-79 -28q-17 -2 -25.5 10t-9 28t6 29.5t20.5 15.5q27 3 42 12t15 23t-12 30t-41 26q-14 4 -14 13.5t13 33.5q10 19 20.5 17t2.5 -22z" />
    <glyph glyph-name="egrave" unicode="&#xe8;" horiz-adv-x="301" 
d="M345 410q-5 -24 -27 -54.5t-56 -63t-77 -65.5t-88 -63q-3 -48 8 -78t34 -34q16 -3 41 7t52.5 31t55.5 52.5t49 72.5q14 26 19 30t5 -10q0 -5 -3 -15t-12 -26q-22 -38 -51.5 -73t-63 -62t-67.5 -43t-65 -16q-34 0 -54.5 22.5t-28.5 59t-4 84t19 97.5q23 75 60 128t75.5 84
t72 38t50.5 -9q5 -5 15.5 -14.5t20.5 -21.5t16.5 -27t3.5 -31zM115 263q-6 -20 -10 -38t-6 -35q46 35 84.5 80.5t64 87.5t35 73.5t-2.5 37.5q-15 8 -38 -7t-47 -44.5t-45.5 -70t-34.5 -84.5zM378 568q1 -1 1.5 -5t-1 -8t-6 -6.5t-11.5 -0.5q-17 5 -41 21.5t-47 36t-42 37.5
t-26 27h-1q6 16 17.5 27t23.5 16.5t21.5 5.5t11.5 -6q7 -19 18 -40.5t24.5 -42t28.5 -37t29 -25.5z" />
    <glyph glyph-name="eacute" unicode="&#xe9;" horiz-adv-x="301" 
d="M345 410q-5 -24 -27 -54.5t-56 -63t-77 -65.5t-88 -63q-3 -48 8 -78t34 -34q16 -3 41 7t52.5 31t55.5 52.5t49 72.5q14 26 19 30t5 -10q0 -5 -3 -15t-12 -26q-22 -38 -51.5 -73t-63 -62t-67.5 -43t-65 -16q-34 0 -54.5 22.5t-28.5 59t-4 84t19 97.5q23 75 60 128t75.5 84
t72 38t50.5 -9q5 -5 15.5 -14.5t20.5 -21.5t16.5 -27t3.5 -31zM115 263q-6 -20 -10 -38t-6 -35q46 35 84.5 80.5t64 87.5t35 73.5t-2.5 37.5q-15 8 -38 -7t-47 -44.5t-45.5 -70t-34.5 -84.5zM208 533q-1 -2 -5 -1.5t-8 3t-5.5 7t1.5 11.5q8 16 28 37t43 40.5t44 35.5t31 21
v1q15 -9 24 -22t12.5 -25.5t1.5 -22t-8 -10.5q-20 -4 -43 -11.5t-45 -17.5t-41 -21.5t-30 -24.5z" />
    <glyph glyph-name="ecircumflex" unicode="&#xea;" horiz-adv-x="301" 
d="M345 410q-5 -24 -27 -54.5t-56 -63t-77 -65.5t-88 -63q-3 -48 8 -78t34 -34q16 -3 41 7t52.5 31t55.5 52.5t49 72.5q14 26 19 30t5 -10q0 -5 -3 -15t-12 -26q-22 -38 -51.5 -73t-63 -62t-67.5 -43t-65 -16q-34 0 -54.5 22.5t-28.5 59t-4 84t19 97.5q23 75 60 128t75.5 84
t72 38t50.5 -9q5 -5 15.5 -14.5t20.5 -21.5t16.5 -27t3.5 -31zM115 263q-6 -20 -10 -38t-6 -35q46 35 84.5 80.5t64 87.5t35 73.5t-2.5 37.5q-15 8 -38 -7t-47 -44.5t-45.5 -70t-34.5 -84.5zM147 550q-8 -2 -12 -0.5t-5.5 5t-1.5 6.5t2 4q15 8 39 23t51 33.5t53.5 40.5
t45.5 45q11 13 40.5 -29t70.5 -121q0 -1 1 -1q-9 -15 -22 -22.5t-25.5 -9t-21.5 2t-10 9.5q-5 26 -17 54.5t-28 52.5q-12 -8 -32.5 -21.5t-43.5 -28t-45.5 -27t-38.5 -16.5z" />
    <glyph glyph-name="edieresis" unicode="&#xeb;" horiz-adv-x="301" 
d="M345 410q-5 -24 -27 -54.5t-56 -63t-77 -65.5t-88 -63q-3 -48 8 -78t34 -34q16 -3 41 7t52.5 31t55.5 52.5t49 72.5q14 26 19 30t5 -10q0 -5 -3 -15t-12 -26q-22 -38 -51.5 -73t-63 -62t-67.5 -43t-65 -16q-34 0 -54.5 22.5t-28.5 59t-4 84t19 97.5q23 75 60 128t75.5 84
t72 38t50.5 -9q5 -5 15.5 -14.5t20.5 -21.5t16.5 -27t3.5 -31zM115 263q-6 -20 -10 -38t-6 -35q46 35 84.5 80.5t64 87.5t35 73.5t-2.5 37.5q-15 8 -38 -7t-47 -44.5t-45.5 -70t-34.5 -84.5zM246 584q-11 -20 -36 -29t-47 4q-23 12 -32.5 31t1.5 39t36.5 29t47.5 -4
q22 -12 31.5 -31t-1.5 -39zM419 577q-11 -20 -36 -28.5t-47 3.5q-23 12 -32.5 31.5t1.5 39.5t36.5 28.5t47.5 -3.5q22 -13 31.5 -32t-1.5 -39z" />
    <glyph glyph-name="igrave" unicode="&#xec;" horiz-adv-x="191" 
d="M35 242q18 61 33 110t23 79q2 5 2.5 8t1.5 5q1 3 2 4q10 1 26 -1.5t29.5 -9t22 -15.5t5.5 -20q-1 -3 -11.5 -28t-24 -63.5t-27.5 -87t-22 -97.5q-5 -28 -4.5 -44t5 -22t13 -3.5t20.5 11.5q9 7 20 22t24 34.5t26.5 43t25.5 47.5q14 26 19 30t5 -10q0 -5 -3 -15t-12 -26
q-23 -40 -46.5 -77.5t-48.5 -63.5q-56 -61 -92 -46q-14 6 -23.5 23t-12.5 46.5t2.5 70.5t21.5 95zM261 529q1 -1 1.5 -5t-1 -8t-6 -6.5t-11.5 -0.5q-17 5 -41 21.5t-47 36t-42 37.5t-26 27h-1q6 16 17.5 27t23.5 16.5t21.5 5.5t11.5 -6q7 -19 18 -40.5t24.5 -42t28.5 -37
t29 -25.5z" />
    <glyph glyph-name="iacute" unicode="&#xed;" horiz-adv-x="191" 
d="M35 242q18 61 33 110t23 79q2 5 2.5 8t1.5 5q1 3 2 4q10 1 26 -1.5t29.5 -9t22 -15.5t5.5 -20q-1 -3 -11.5 -28t-24 -63.5t-27.5 -87t-22 -97.5q-5 -28 -4.5 -44t5 -22t13 -3.5t20.5 11.5q9 7 20 22t24 34.5t26.5 43t25.5 47.5q14 26 19 30t5 -10q0 -5 -3 -15t-12 -26
q-23 -40 -46.5 -77.5t-48.5 -63.5q-56 -61 -92 -46q-14 6 -23.5 23t-12.5 46.5t2.5 70.5t21.5 95zM111 503q-1 -2 -5 -1.5t-8 3t-5.5 7t1.5 11.5q8 16 28 37t43 40.5t44 35.5t31 21v1q15 -9 24 -22t12.5 -25.5t1.5 -22t-8 -10.5q-20 -4 -43 -11.5t-45 -17.5t-41 -21.5
t-30 -24.5z" />
    <glyph glyph-name="icircumflex" unicode="&#xee;" horiz-adv-x="191" 
d="M35 242q18 61 33 110t23 79q2 5 2.5 8t1.5 5q1 3 2 4q10 1 26 -1.5t29.5 -9t22 -15.5t5.5 -20q-1 -3 -11.5 -28t-24 -63.5t-27.5 -87t-22 -97.5q-5 -28 -4.5 -44t5 -22t13 -3.5t20.5 11.5q9 7 20 22t24 34.5t26.5 43t25.5 47.5q14 26 19 30t5 -10q0 -5 -3 -15t-12 -26
q-23 -40 -46.5 -77.5t-48.5 -63.5q-56 -61 -92 -46q-14 6 -23.5 23t-12.5 46.5t2.5 70.5t21.5 95zM24 547q-8 -2 -12 -0.5t-5.5 5t-1.5 6.5t2 4q15 8 39 23t51 33.5t53.5 40.5t45.5 45q11 13 40.5 -29t70.5 -121q0 -1 1 -1q-9 -15 -22 -22.5t-25.5 -9t-21.5 2t-10 9.5
q-5 26 -17 54.5t-28 52.5q-12 -8 -32.5 -21.5t-43.5 -28t-45.5 -27t-38.5 -16.5z" />
    <glyph glyph-name="idieresis" unicode="&#xef;" horiz-adv-x="191" 
d="M35 242q18 61 33 110t23 79q2 5 2.5 8t1.5 5q1 3 2 4q10 1 26 -1.5t29.5 -9t22 -15.5t5.5 -20q-1 -3 -11.5 -28t-24 -63.5t-27.5 -87t-22 -97.5q-5 -28 -4.5 -44t5 -22t13 -3.5t20.5 11.5q9 7 20 22t24 34.5t26.5 43t25.5 47.5q14 26 19 30t5 -10q0 -5 -3 -15t-12 -26
q-23 -40 -46.5 -77.5t-48.5 -63.5q-56 -61 -92 -46q-14 6 -23.5 23t-12.5 46.5t2.5 70.5t21.5 95zM136 564q-11 -20 -36 -29t-47 4q-23 12 -32.5 31t1.5 39t36.5 29t47.5 -4q22 -12 31.5 -31t-1.5 -39zM309 557q-11 -20 -36 -28.5t-47 3.5q-23 12 -32.5 31.5t1.5 39.5
t36.5 28.5t47.5 -3.5q22 -13 31.5 -32t-1.5 -39z" />
    <glyph glyph-name="eth" unicode="&#xf0;" horiz-adv-x="478" 
d="M252 736q-4 1 -5.5 4.5t0 7t8 5.5t18.5 -1q52 -13 84.5 -40.5t49.5 -66.5l89 23q2 0 1 -4q-14 -31 -76 -59q16 -66 5 -145t-35 -157q-24 -76 -56.5 -132.5t-68.5 -94.5t-74 -57t-74 -19q-29 0 -52.5 21.5t-35.5 59.5t-9.5 89t23.5 110q29 79 69 129.5t79.5 75.5t74 26.5
t51.5 -17.5q13 -14 26 -34q5 32 8 62t1 59q-11 -4 -23.5 -7t-26.5 -6h-1q-5 5 -6.5 13t-0.5 16.5t5 15.5t11 9q1 0 11 2.5t25 6.5q-8 40 -30.5 67.5t-64.5 37.5zM307 303q8 30 16.5 62t14.5 64q-6 11 -13 19.5t-15 13.5q-20 10 -44 2.5t-48.5 -31.5t-48 -64t-41.5 -93
t-24 -98.5t-3 -78.5t12.5 -52t21.5 -19q23 0 47 23t46.5 61t43 87.5t35.5 103.5z" />
    <glyph glyph-name="ntilde" unicode="&#xf1;" 
d="M74 -3q-26 -5 -41.5 1.5t-20 28.5t1 61t20.5 101q11 44 25 93t28.5 97.5t27.5 95.5t22 86q0 1 17 0t35.5 -6.5t32.5 -15t9 -25.5q-2 -5 -9 -19.5t-18 -43t-26.5 -72t-33.5 -105.5q23 51 48 95t51 77t52 51.5t51 18.5q30 0 43.5 -18.5t13 -53t-12 -83t-30.5 -108.5
q-19 -57 -25 -97t-3.5 -62.5t11.5 -28.5t21 3q9 7 20 22t24 34.5t26.5 43t25.5 47.5q14 26 19 30t5 -10q0 -5 -3 -15t-12 -26q-23 -40 -46.5 -77.5t-48.5 -63.5q-56 -61 -92 -46q-12 5 -21 23t-11.5 48.5t3 74.5t23.5 100q17 54 30 92t19.5 62.5t4.5 36t-15 11.5
q-19 0 -46 -26t-57.5 -77.5t-63.5 -127t-63 -174.5q-5 -18 -7 -29t-3 -16q-1 -6 -1 -8zM494 581q-8 -11 -21 -14.5t-34 1.5t-51 18.5t-72 36.5q-49 26 -82 29t-48 -23q-5 -9 -10.5 -15t-8.5 -6t-2.5 7.5t6.5 24.5q15 38 32.5 55t36.5 20q13 2 28.5 -3t33.5 -14t39.5 -20.5
t47.5 -22.5q52 -22 64.5 -14.5t-0.5 34.5q-5 10 -6.5 17.5t0 10t7.5 -2t16 -19.5q47 -68 24 -100z" />
    <glyph glyph-name="ograve" unicode="&#xf2;" horiz-adv-x="381" 
d="M446 254q-14 -22 -45 -46.5t-69 -32.5q-22 -45 -49 -78t-56 -54.5t-59 -32t-57 -10.5q-33 0 -56 22.5t-34 59t-10 84t16 97.5q24 76 61 130t75.5 85t72 37.5t49.5 -11.5q5 -7 10.5 -14t10.5 -15q3 1 8 1q30 0 47 -16.5t22.5 -46t0 -70.5t-20.5 -90q-5 -14 -9.5 -27
t-9.5 -25q29 6 54 27t39 47t19 30t5 -10q0 -5 -2.5 -15t-12.5 -26zM128 28q16 0 33 12.5t34 34t32.5 51t29.5 62.5q-19 13 -29 35.5t-13 50t0.5 57t12 56t22.5 47.5t32 32q-4 4 -6 5q-19 10 -42 -2.5t-45.5 -41.5t-43 -71.5t-34.5 -92.5q-13 -44 -17.5 -86t-2 -75t12 -53.5
t24.5 -20.5zM292 445q-11 0 -22 -26.5t-17 -62.5t-3 -73.5t21 -59.5l9 30q18 66 27 113t1 67l-5 7q-5 5 -11 5zM408 539q1 -1 1.5 -5t-1 -8t-6 -6.5t-11.5 -0.5q-17 5 -41 21.5t-47 36t-42 37.5t-26 27h-1q6 16 17.5 27t23.5 16.5t21.5 5.5t11.5 -6q7 -19 18 -40.5t24.5 -42
t28.5 -37t29 -25.5z" />
    <glyph glyph-name="oacute" unicode="&#xf3;" horiz-adv-x="381" 
d="M446 254q-14 -22 -45 -46.5t-69 -32.5q-22 -45 -49 -78t-56 -54.5t-59 -32t-57 -10.5q-33 0 -56 22.5t-34 59t-10 84t16 97.5q24 76 61 130t75.5 85t72 37.5t49.5 -11.5q5 -7 10.5 -14t10.5 -15q3 1 8 1q30 0 47 -16.5t22.5 -46t0 -70.5t-20.5 -90q-5 -14 -9.5 -27
t-9.5 -25q29 6 54 27t39 47t19 30t5 -10q0 -5 -2.5 -15t-12.5 -26zM128 28q16 0 33 12.5t34 34t32.5 51t29.5 62.5q-19 13 -29 35.5t-13 50t0.5 57t12 56t22.5 47.5t32 32q-4 4 -6 5q-19 10 -42 -2.5t-45.5 -41.5t-43 -71.5t-34.5 -92.5q-13 -44 -17.5 -86t-2 -75t12 -53.5
t24.5 -20.5zM292 445q-11 0 -22 -26.5t-17 -62.5t-3 -73.5t21 -59.5l9 30q18 66 27 113t1 67l-5 7q-5 5 -11 5zM220 543q-1 -2 -5 -1.5t-8 3t-5.5 7t1.5 11.5q8 16 28 37t43 40.5t44 35.5t31 21v1q15 -9 24 -22t12.5 -25.5t1.5 -22t-8 -10.5q-20 -4 -43 -11.5t-45 -17.5
t-41 -21.5t-30 -24.5z" />
    <glyph glyph-name="ocircumflex" unicode="&#xf4;" horiz-adv-x="381" 
d="M446 254q-14 -22 -45 -46.5t-69 -32.5q-22 -45 -49 -78t-56 -54.5t-59 -32t-57 -10.5q-33 0 -56 22.5t-34 59t-10 84t16 97.5q24 76 61 130t75.5 85t72 37.5t49.5 -11.5q5 -7 10.5 -14t10.5 -15q3 1 8 1q30 0 47 -16.5t22.5 -46t0 -70.5t-20.5 -90q-5 -14 -9.5 -27
t-9.5 -25q29 6 54 27t39 47t19 30t5 -10q0 -5 -2.5 -15t-12.5 -26zM128 28q16 0 33 12.5t34 34t32.5 51t29.5 62.5q-19 13 -29 35.5t-13 50t0.5 57t12 56t22.5 47.5t32 32q-4 4 -6 5q-19 10 -42 -2.5t-45.5 -41.5t-43 -71.5t-34.5 -92.5q-13 -44 -17.5 -86t-2 -75t12 -53.5
t24.5 -20.5zM292 445q-11 0 -22 -26.5t-17 -62.5t-3 -73.5t21 -59.5l9 30q18 66 27 113t1 67l-5 7q-5 5 -11 5zM164 547q-8 -2 -12 -0.5t-5.5 5t-1.5 6.5t2 4q15 8 39 23t51 33.5t53.5 40.5t45.5 45q11 13 40.5 -29t70.5 -121q0 -1 1 -1q-9 -15 -22 -22.5t-25.5 -9t-21.5 2
t-10 9.5q-5 26 -17 54.5t-28 52.5q-12 -8 -32.5 -21.5t-43.5 -28t-45.5 -27t-38.5 -16.5z" />
    <glyph glyph-name="otilde" unicode="&#xf5;" horiz-adv-x="381" 
d="M446 254q-14 -22 -45 -46.5t-69 -32.5q-22 -45 -49 -78t-56 -54.5t-59 -32t-57 -10.5q-33 0 -56 22.5t-34 59t-10 84t16 97.5q24 76 61 130t75.5 85t72 37.5t49.5 -11.5q5 -7 10.5 -14t10.5 -15q3 1 8 1q30 0 47 -16.5t22.5 -46t0 -70.5t-20.5 -90q-5 -14 -9.5 -27
t-9.5 -25q29 6 54 27t39 47t19 30t5 -10q0 -5 -2.5 -15t-12.5 -26zM128 28q16 0 33 12.5t34 34t32.5 51t29.5 62.5q-19 13 -29 35.5t-13 50t0.5 57t12 56t22.5 47.5t32 32q-4 4 -6 5q-19 10 -42 -2.5t-45.5 -41.5t-43 -71.5t-34.5 -92.5q-13 -44 -17.5 -86t-2 -75t12 -53.5
t24.5 -20.5zM292 445q-11 0 -22 -26.5t-17 -62.5t-3 -73.5t21 -59.5l9 30q18 66 27 113t1 67l-5 7q-5 5 -11 5zM463 555q-8 -11 -21 -14.5t-34 1.5t-51 18.5t-72 36.5q-49 26 -82 29t-48 -23q-5 -9 -10.5 -15t-8.5 -6t-2.5 7.5t6.5 24.5q15 38 32.5 55t36.5 20q13 2 28.5 -3
t33.5 -14t39.5 -20.5t47.5 -22.5q52 -22 64.5 -14.5t-0.5 34.5q-5 10 -6.5 17.5t0 10t7.5 -2t16 -19.5q47 -68 24 -100z" />
    <glyph glyph-name="odieresis" unicode="&#xf6;" horiz-adv-x="381" 
d="M446 254q-14 -22 -45 -46.5t-69 -32.5q-22 -45 -49 -78t-56 -54.5t-59 -32t-57 -10.5q-33 0 -56 22.5t-34 59t-10 84t16 97.5q24 76 61 130t75.5 85t72 37.5t49.5 -11.5q5 -7 10.5 -14t10.5 -15q3 1 8 1q30 0 47 -16.5t22.5 -46t0 -70.5t-20.5 -90q-5 -14 -9.5 -27
t-9.5 -25q29 6 54 27t39 47t19 30t5 -10q0 -5 -2.5 -15t-12.5 -26zM128 28q16 0 33 12.5t34 34t32.5 51t29.5 62.5q-19 13 -29 35.5t-13 50t0.5 57t12 56t22.5 47.5t32 32q-4 4 -6 5q-19 10 -42 -2.5t-45.5 -41.5t-43 -71.5t-34.5 -92.5q-13 -44 -17.5 -86t-2 -75t12 -53.5
t24.5 -20.5zM292 445q-11 0 -22 -26.5t-17 -62.5t-3 -73.5t21 -59.5l9 30q18 66 27 113t1 67l-5 7q-5 5 -11 5zM283 584q-11 -20 -36 -29t-47 4q-23 12 -32.5 31t1.5 39t36.5 29t47.5 -4q22 -12 31.5 -31t-1.5 -39zM456 577q-11 -20 -36 -28.5t-47 3.5q-23 12 -32.5 31.5
t1.5 39.5t36.5 28.5t47.5 -3.5q22 -13 31.5 -32t-1.5 -39z" />
    <glyph glyph-name="divide" unicode="&#xf7;" horiz-adv-x="259" 
d="M166 102q-6 -10 -17 -18t-24 -11.5t-27.5 -3t-26.5 6.5q-25 13 -36 33t1 41q13 20 41.5 29.5t54.5 -3.5q25 -13 36 -33t-2 -41zM242 340q-13 -21 -41.5 -30.5t-54.5 4.5q-25 13 -36 33t2 40q13 21 41.5 30t53.5 -4q26 -13 36.5 -33t-1.5 -40zM355 267
q-16 -19 -58.5 -32.5t-101 -21.5t-126.5 -11t-134 0h-1q-5 9 -4 22.5t6 26t14 21.5t21 10q2 0 30 -0.5t69 -1.5t89 -2t90 -2.5t72 -2t36 -0.5q4 0 -2 -6z" />
    <glyph glyph-name="oslash" unicode="&#xf8;" horiz-adv-x="381" 
d="M140 -151q-10 -2 -16.5 2t-9 20t0.5 46.5t12 83.5q-4 -1 -8 -1h-8q-33 0 -56 22.5t-34 59t-10 84t16 97.5q16 53 39 95t49.5 73t53 50.5t50.5 28.5q8 40 14 71.5t11 51.5q0 1 15.5 1t32.5 -4.5t29.5 -13.5t7.5 -25q-1 -3 -3.5 -7.5t-7 -14.5t-11 -27.5t-15.5 -46.5
q8 -10 14 -20q3 1 8 1q30 0 47 -16.5t22.5 -46t0 -70.5t-20.5 -90q-5 -14 -9.5 -27t-9.5 -25q29 6 54 27t39 47t19 30t5 -10q0 -5 -2.5 -15t-12.5 -26q-14 -22 -45 -46.5t-69 -32.5q-32 -66 -73.5 -106t-84.5 -57q-11 -52 -17.5 -84t-10.5 -49q-4 -21 -6 -30zM132 28l2 8
l74 413q-28 -27 -54 -76t-43 -110q-13 -44 -17.5 -86t-2 -75t12 -53.5t24.5 -20.5h4zM251 346q-5 -34 -1 -68t21 -55l9 30q18 66 27 113t1 67l-5 7q-5 5 -11 5q-5 0 -11 -7t-11 -18zM185 62q20 22 38 55t34 71q-22 16 -33 47q-9 -38 -18.5 -80.5t-20.5 -92.5z" />
    <glyph glyph-name="ugrave" unicode="&#xf9;" horiz-adv-x="400" 
d="M113 523q31 6 50 -5t22.5 -41.5t-9 -82t-43.5 -127.5q-43 -107 -53.5 -154.5t15.5 -47.5q18 0 44 25t55.5 73.5t61.5 120t62 164.5l15 51q2 5 2.5 8t1.5 5q1 3 1 4q10 1 26 -1.5t29.5 -9t22 -16t5.5 -20.5q-1 -2 -7.5 -19t-16.5 -44t-21.5 -62t-23 -72.5t-21.5 -75
t-15 -70.5q-5 -28 -4.5 -44t5 -22t13 -3.5t20.5 11.5q9 7 20 22t24 34.5t26.5 43t25.5 47.5q14 26 19 30t5 -10q0 -5 -3 -15t-12 -26q-23 -40 -46.5 -77.5t-48.5 -63.5q-56 -61 -92 -46q-25 10 -34.5 58t11.5 137q-22 -43 -44.5 -79t-46 -62.5t-46.5 -41.5t-45 -15
q-60 0 -62 69t49 194q28 69 41.5 117.5t18.5 79.5q5 36 3 59zM335 559q1 -1 1.5 -5t-1 -8t-6 -6.5t-11.5 -0.5q-17 5 -41 21.5t-47 36t-42 37.5t-26 27h-1q6 16 17.5 27t23.5 16.5t21.5 5.5t11.5 -6q7 -19 18 -40.5t24.5 -42t28.5 -37t29 -25.5z" />
    <glyph glyph-name="uacute" unicode="&#xfa;" horiz-adv-x="400" 
d="M113 523q31 6 50 -5t22.5 -41.5t-9 -82t-43.5 -127.5q-43 -107 -53.5 -154.5t15.5 -47.5q18 0 44 25t55.5 73.5t61.5 120t62 164.5l15 51q2 5 2.5 8t1.5 5q1 3 1 4q10 1 26 -1.5t29.5 -9t22 -16t5.5 -20.5q-1 -2 -7.5 -19t-16.5 -44t-21.5 -62t-23 -72.5t-21.5 -75
t-15 -70.5q-5 -28 -4.5 -44t5 -22t13 -3.5t20.5 11.5q9 7 20 22t24 34.5t26.5 43t25.5 47.5q14 26 19 30t5 -10q0 -5 -3 -15t-12 -26q-23 -40 -46.5 -77.5t-48.5 -63.5q-56 -61 -92 -46q-25 10 -34.5 58t11.5 137q-22 -43 -44.5 -79t-46 -62.5t-46.5 -41.5t-45 -15
q-60 0 -62 69t49 194q28 69 41.5 117.5t18.5 79.5q5 36 3 59zM225 533q-1 -2 -5 -1.5t-8 3t-5.5 7t1.5 11.5q8 16 28 37t43 40.5t44 35.5t31 21v1q15 -9 24 -22t12.5 -25.5t1.5 -22t-8 -10.5q-20 -4 -43 -11.5t-45 -17.5t-41 -21.5t-30 -24.5z" />
    <glyph glyph-name="ucircumflex" unicode="&#xfb;" horiz-adv-x="400" 
d="M113 523q31 6 50 -5t22.5 -41.5t-9 -82t-43.5 -127.5q-43 -107 -53.5 -154.5t15.5 -47.5q18 0 44 25t55.5 73.5t61.5 120t62 164.5l15 51q2 5 2.5 8t1.5 5q1 3 1 4q10 1 26 -1.5t29.5 -9t22 -16t5.5 -20.5q-1 -2 -7.5 -19t-16.5 -44t-21.5 -62t-23 -72.5t-21.5 -75
t-15 -70.5q-5 -28 -4.5 -44t5 -22t13 -3.5t20.5 11.5q9 7 20 22t24 34.5t26.5 43t25.5 47.5q14 26 19 30t5 -10q0 -5 -3 -15t-12 -26q-23 -40 -46.5 -77.5t-48.5 -63.5q-56 -61 -92 -46q-25 10 -34.5 58t11.5 137q-22 -43 -44.5 -79t-46 -62.5t-46.5 -41.5t-45 -15
q-60 0 -62 69t49 194q28 69 41.5 117.5t18.5 79.5q5 36 3 59zM158 567q-8 -2 -12 -0.5t-5.5 5t-1.5 6.5t2 4q15 8 39 23t51 33.5t53.5 40.5t45.5 45q11 13 40.5 -29t70.5 -121q0 -1 1 -1q-9 -15 -22 -22.5t-25.5 -9t-21.5 2t-10 9.5q-5 26 -17 54.5t-28 52.5
q-12 -8 -32.5 -21.5t-43.5 -28t-45.5 -27t-38.5 -16.5z" />
    <glyph glyph-name="udieresis" unicode="&#xfc;" horiz-adv-x="400" 
d="M113 523q31 6 50 -5t22.5 -41.5t-9 -82t-43.5 -127.5q-43 -107 -53.5 -154.5t15.5 -47.5q18 0 44 25t55.5 73.5t61.5 120t62 164.5l15 51q2 5 2.5 8t1.5 5q1 3 1 4q10 1 26 -1.5t29.5 -9t22 -16t5.5 -20.5q-1 -2 -7.5 -19t-16.5 -44t-21.5 -62t-23 -72.5t-21.5 -75
t-15 -70.5q-5 -28 -4.5 -44t5 -22t13 -3.5t20.5 11.5q9 7 20 22t24 34.5t26.5 43t25.5 47.5q14 26 19 30t5 -10q0 -5 -3 -15t-12 -26q-23 -40 -46.5 -77.5t-48.5 -63.5q-56 -61 -92 -46q-25 10 -34.5 58t11.5 137q-22 -43 -44.5 -79t-46 -62.5t-46.5 -41.5t-45 -15
q-60 0 -62 69t49 194q28 69 41.5 117.5t18.5 79.5q5 36 3 59zM260 594q-11 -20 -36 -29t-47 4q-23 12 -32.5 31t1.5 39t36.5 29t47.5 -4q22 -12 31.5 -31t-1.5 -39zM433 587q-11 -20 -36 -28.5t-47 3.5q-23 12 -32.5 31.5t1.5 39.5t36.5 28.5t47.5 -3.5q22 -13 31.5 -32
t-1.5 -39z" />
    <glyph glyph-name="yacute" unicode="&#xfd;" horiz-adv-x="376" 
d="M118 523q31 6 49.5 -5t22.5 -41.5t-8.5 -82t-43.5 -127.5q-43 -107 -54 -154.5t15 -47.5q19 0 46 27t58 79t64 129t64 178q3 13 6 21q1 5 2 8t2 5q1 3 1 4q10 1 26 -1.5t29.5 -8.5t22 -15.5t5.5 -20.5l-12.5 -37.5t-31.5 -93.5t-47.5 -141t-59.5 -181q-27 -84 -61.5 -139
t-69 -84.5t-65 -33.5t-49.5 16q-29 29 -29 83t27 120l1 1q10 1 25 -1.5t28 -9t20.5 -16t4.5 -20.5q-1 -3 -14.5 -20.5t-27.5 -38.5t-23.5 -39t-2.5 -21q34 -18 70.5 33.5t83.5 169.5q18 48 35.5 102t34.5 109q-23 -48 -47 -89t-49 -71t-50 -47t-48 -17q-61 0 -62.5 69.5
t48.5 193.5q28 69 41.5 118t18.5 79.5t4.5 44.5zM213 533q-1 -2 -5 -1.5t-8 3t-5.5 7t1.5 11.5q8 16 28 37t43 40.5t44 35.5t31 21v1q15 -9 24 -22t12.5 -25.5t1.5 -22t-8 -10.5q-20 -4 -43 -11.5t-45 -17.5t-41 -21.5t-30 -24.5z" />
    <glyph glyph-name="thorn" unicode="&#xfe;" horiz-adv-x="499" 
d="M413 764q-3 -10 -13 -39.5t-24 -70t-30 -87.5t-31 -91.5t-27.5 -82t-17.5 -59.5q9 26 27.5 60t43 64.5t52.5 51.5t56 21q30 0 47 -23t21 -62.5t-5 -92.5t-32 -114q-28 -75 -64.5 -124t-72 -74.5t-66 -28t-46.5 15.5q-17 19 -30 41q-19 -62 -32.5 -112t-24 -91.5
t-18.5 -77.5t-15 -70q0 -2 -16.5 -2t-35 4t-31 13t-5.5 27q1 2 8.5 25.5t19.5 61.5t27.5 87t33.5 102q12 36 30 96.5t38.5 133t42 152t40.5 153.5t34 137t22 103q0 1 16 0t34.5 -6.5t33 -15t10.5 -25.5zM249 222q-11 -35 -21 -65.5t-18 -58.5q7 -10 14.5 -19t15.5 -14
q16 -8 36.5 2t41.5 34.5t41.5 61t36.5 81.5q39 111 43.5 169t-21.5 58q-13 0 -35 -20.5t-46.5 -55t-48 -79.5t-39.5 -94z" />
    <glyph glyph-name="ydieresis" unicode="&#xff;" horiz-adv-x="376" 
d="M118 523q31 6 49.5 -5t22.5 -41.5t-8.5 -82t-43.5 -127.5q-43 -107 -54 -154.5t15 -47.5q19 0 46 27t58 79t64 129t64 178q3 13 6 21q1 5 2 8t2 5q1 3 1 4q10 1 26 -1.5t29.5 -8.5t22 -15.5t5.5 -20.5l-12.5 -37.5t-31.5 -93.5t-47.5 -141t-59.5 -181q-27 -84 -61.5 -139
t-69 -84.5t-65 -33.5t-49.5 16q-29 29 -29 83t27 120l1 1q10 1 25 -1.5t28 -9t20.5 -16t4.5 -20.5q-1 -3 -14.5 -20.5t-27.5 -38.5t-23.5 -39t-2.5 -21q34 -18 70.5 33.5t83.5 169.5q18 48 35.5 102t34.5 109q-23 -48 -47 -89t-49 -71t-50 -47t-48 -17q-61 0 -62.5 69.5
t48.5 193.5q28 69 41.5 118t18.5 79.5t4.5 44.5zM248 594q-11 -20 -36 -29t-47 4q-23 12 -32.5 31t1.5 39t36.5 29t47.5 -4q22 -12 31.5 -31t-1.5 -39zM421 587q-11 -20 -36 -28.5t-47 3.5q-23 12 -32.5 31.5t1.5 39.5t36.5 28.5t47.5 -3.5q22 -13 31.5 -32t-1.5 -39z" />
    <glyph glyph-name="Amacron" unicode="&#x100;" horiz-adv-x="623" 
d="M54 -3q-28 -5 -37.5 1.5t-3 28.5t30 61t61.5 101q18 29 51.5 79.5t74 112t84.5 127.5l84 126t71.5 108.5t47.5 75.5q1 2 17.5 -1t30.5 -11l2 7q0 1 18 1t38 -4.5t34.5 -14.5t7.5 -28q0 -2 -7.5 -23t-18 -57t-22 -84.5t-20.5 -103.5q-12 -74 -21.5 -131t-16.5 -102
t-12 -79t-9 -62q-8 -55 1.5 -65.5t32.5 8.5q7 6 18.5 20.5t24.5 34.5t27 44t26 48q14 26 19 30t5 -10q0 -5 -3 -15t-12 -26q-23 -40 -46.5 -77.5t-48.5 -63.5q-56 -61 -92 -46q-14 6 -20 22.5t-7 41t1.5 56.5t7.5 69q2 14 4.5 37t7.5 52l-2 -2q-30 -35 -101.5 -51.5
t-193.5 -13.5q-13 -20 -23.5 -37t-18.5 -31q-32 -54 -50 -84.5t-27.5 -45.5t-12 -19zM485 290q6 46 14.5 104.5t18 118.5t18.5 118t17 103q-27 -35 -74.5 -98t-101.5 -141q-38 -53 -72.5 -102.5t-63.5 -94.5q28 -1 67.5 -2.5t76.5 -2.5t65.5 -2t34.5 -1zM776 941
q-32 -38 -109 -54t-211 -11h-1q-5 9 -4 22.5t6 26t14 21.5t21 10q2 0 22.5 -0.5t50.5 -1.5t65 -2t66 -2.5t53.5 -2t28.5 -0.5q4 0 -2 -6z" />
    <glyph glyph-name="amacron" unicode="&#x101;" horiz-adv-x="392" 
d="M248 197q-9 -26 -23 -60t-33 -64.5t-42.5 -51.5t-51.5 -21q-30 0 -50.5 22.5t-29.5 59t-6.5 84t17.5 97.5q23 75 60.5 128.5t76 84t72 38t48.5 -9.5q11 -13 21 -28t17 -29q11 -2 22.5 -6t20.5 -10t14 -13.5t2 -15.5q-1 -3 -11.5 -28t-24 -63.5t-27.5 -87t-22 -97.5
q-5 -28 -4.5 -44t5 -22t13 -3.5t20.5 11.5q9 7 20 22t24 34.5t26.5 43t25.5 47.5q14 26 19 30t5 -10q0 -5 -3 -15t-12 -26q-23 -40 -46.5 -77.5t-48.5 -63.5q-56 -61 -92 -46q-13 6 -18 24t-4 44.5t6.5 58t14.5 63.5q1 4 0.5 3.5t-1.5 -3.5zM294 431q2 6 3 9.5t2 5.5
q-5 6 -10.5 11.5t-10.5 8.5q-15 8 -38.5 -6t-47.5 -43.5t-45.5 -69.5t-33.5 -84q-13 -44 -17 -81t-1 -64t12 -42t23 -15q25 0 51.5 41t56.5 140q18 61 33 110t23 79zM461 641q-32 -38 -109 -54t-211 -11h-1q-5 9 -4 22.5t6 26t14 21.5t21 10q2 0 22.5 -0.5t50.5 -1.5t65 -2
t66 -2.5t53.5 -2t28.5 -0.5q4 0 -2 -6z" />
    <glyph glyph-name="Abreve" unicode="&#x102;" horiz-adv-x="623" 
d="M54 -3q-28 -5 -37.5 1.5t-3 28.5t30 61t61.5 101q18 29 51.5 79.5t74 112t84.5 127.5l84 126t71.5 108.5t47.5 75.5q1 2 17.5 -1t30.5 -11l2 7q0 1 18 1t38 -4.5t34.5 -14.5t7.5 -28q0 -2 -7.5 -23t-18 -57t-22 -84.5t-20.5 -103.5q-12 -74 -21.5 -131t-16.5 -102
t-12 -79t-9 -62q-8 -55 1.5 -65.5t32.5 8.5q7 6 18.5 20.5t24.5 34.5t27 44t26 48q14 26 19 30t5 -10q0 -5 -3 -15t-12 -26q-23 -40 -46.5 -77.5t-48.5 -63.5q-56 -61 -92 -46q-14 6 -20 22.5t-7 41t1.5 56.5t7.5 69q2 14 4.5 37t7.5 52l-2 -2q-30 -35 -101.5 -51.5
t-193.5 -13.5q-13 -20 -23.5 -37t-18.5 -31q-32 -54 -50 -84.5t-27.5 -45.5t-12 -19zM485 290q6 46 14.5 104.5t18 118.5t18.5 118t17 103q-27 -35 -74.5 -98t-101.5 -141q-38 -53 -72.5 -102.5t-63.5 -94.5q28 -1 67.5 -2.5t76.5 -2.5t65.5 -2t34.5 -1zM720 989
q-6 -23 -17.5 -44.5t-26.5 -38t-32.5 -26.5t-35.5 -10q-36 0 -58 30.5t-28 79.5q-2 16 10 24.5t27.5 9.5t29.5 -6t16 -20q3 -27 11.5 -42t22.5 -15q15 0 32 13.5t26 46.5q3 10 7.5 15t9 5t7 -5.5t-0.5 -16.5z" />
    <glyph glyph-name="abreve" unicode="&#x103;" horiz-adv-x="392" 
d="M248 197q-9 -26 -23 -60t-33 -64.5t-42.5 -51.5t-51.5 -21q-30 0 -50.5 22.5t-29.5 59t-6.5 84t17.5 97.5q23 75 60.5 128.5t76 84t72 38t48.5 -9.5q11 -13 21 -28t17 -29q11 -2 22.5 -6t20.5 -10t14 -13.5t2 -15.5q-1 -3 -11.5 -28t-24 -63.5t-27.5 -87t-22 -97.5
q-5 -28 -4.5 -44t5 -22t13 -3.5t20.5 11.5q9 7 20 22t24 34.5t26.5 43t25.5 47.5q14 26 19 30t5 -10q0 -5 -3 -15t-12 -26q-23 -40 -46.5 -77.5t-48.5 -63.5q-56 -61 -92 -46q-13 6 -18 24t-4 44.5t6.5 58t14.5 63.5q1 4 0.5 3.5t-1.5 -3.5zM294 431q2 6 3 9.5t2 5.5
q-5 6 -10.5 11.5t-10.5 8.5q-15 8 -38.5 -6t-47.5 -43.5t-45.5 -69.5t-33.5 -84q-13 -44 -17 -81t-1 -64t12 -42t23 -15q25 0 51.5 41t56.5 140q18 61 33 110t23 79zM394 669q-6 -23 -17.5 -44.5t-26.5 -38t-32.5 -26.5t-35.5 -10q-36 0 -58 30.5t-28 79.5q-2 16 10 24.5
t27.5 9.5t29.5 -6t16 -20q3 -27 11.5 -42t22.5 -15q15 0 32 13.5t26 46.5q3 10 7.5 15t9 5t7 -5.5t-0.5 -16.5z" />
    <glyph glyph-name="Aogonek" unicode="&#x104;" horiz-adv-x="623" 
d="M54 -3q-28 -5 -37.5 1.5t-3 28.5t30 61t61.5 101q18 29 51.5 79.5t74 112t84.5 127.5l84 126t71.5 108.5t47.5 75.5q1 2 17.5 -1t30.5 -11l2 7q0 1 18 1t38 -4.5t34.5 -14.5t7.5 -28q0 -2 -7.5 -23t-18 -57t-22 -84.5t-20.5 -103.5q-12 -74 -21.5 -131t-16.5 -102
t-12 -79t-9 -62q-8 -55 1.5 -65.5t32.5 8.5q7 6 18.5 20.5t24.5 34.5t27 44t26 48q14 26 19 30t5 -10q0 -5 -3 -15t-12 -26q-23 -40 -46.5 -77.5t-48.5 -63.5q-56 -61 -92 -46q-14 6 -20 22.5t-7 41t1.5 56.5t7.5 69q2 14 4.5 37t7.5 52l-2 -2q-30 -35 -101.5 -51.5
t-193.5 -13.5q-13 -20 -23.5 -37t-18.5 -31q-32 -54 -50 -84.5t-27.5 -45.5t-12 -19zM485 290q6 46 14.5 104.5t18 118.5t18.5 118t17 103q-27 -35 -74.5 -98t-101.5 -141q-38 -53 -72.5 -102.5t-63.5 -94.5q28 -1 67.5 -2.5t76.5 -2.5t65.5 -2t34.5 -1zM492 27
q19 11 22.5 0.5t-13.5 -21.5q-27 -17 -34 -36.5t-5 -37.5q2 -13 17.5 -20.5t42.5 -7.5q8 0 13.5 -13t6.5 -28.5t-3.5 -28.5t-15.5 -13q-49 1 -81.5 19.5t-36.5 54.5q-2 19 4 37.5t18 36t29 32t36 26.5z" />
    <glyph glyph-name="aogonek" unicode="&#x105;" horiz-adv-x="392" 
d="M248 197q-9 -26 -23 -60t-33 -64.5t-42.5 -51.5t-51.5 -21q-30 0 -50.5 22.5t-29.5 59t-6.5 84t17.5 97.5q23 75 60.5 128.5t76 84t72 38t48.5 -9.5q11 -13 21 -28t17 -29q11 -2 22.5 -6t20.5 -10t14 -13.5t2 -15.5q-1 -3 -11.5 -28t-24 -63.5t-27.5 -87t-22 -97.5
q-5 -28 -4.5 -44t5 -22t13 -3.5t20.5 11.5q9 7 20 22t24 34.5t26.5 43t25.5 47.5q14 26 19 30t5 -10q0 -5 -3 -15t-12 -26q-23 -40 -46.5 -77.5t-48.5 -63.5q-56 -61 -92 -46q-13 6 -18 24t-4 44.5t6.5 58t14.5 63.5q1 4 0.5 3.5t-1.5 -3.5zM294 431q2 6 3 9.5t2 5.5
q-5 6 -10.5 11.5t-10.5 8.5q-15 8 -38.5 -6t-47.5 -43.5t-45.5 -69.5t-33.5 -84q-13 -44 -17 -81t-1 -64t12 -42t23 -15q25 0 51.5 41t56.5 140q18 61 33 110t23 79zM261 27q19 11 22.5 0.5t-13.5 -21.5q-27 -17 -34 -36.5t-5 -37.5q2 -13 17.5 -20.5t42.5 -7.5
q8 0 13.5 -13t6.5 -28.5t-3.5 -28.5t-15.5 -13q-49 1 -81.5 19.5t-36.5 54.5q-2 19 4 37.5t18 36t29 32t36 26.5z" />
    <glyph glyph-name="Cacute" unicode="&#x106;" horiz-adv-x="343" 
d="M369 466q-11 -2 -25.5 1t-27.5 9t-21 15.5t-5 20.5q1 2 8.5 20t18.5 44t22.5 56t20.5 56t13 44t-1 21q-62 31 -122 -46.5t-115 -270.5q-27 -93 -34 -164t-2 -119t17.5 -73.5t24.5 -27.5q16 -3 38 7t46.5 31t49.5 52.5t46 72.5q14 26 18.5 30t4.5 -10q0 -5 -2.5 -15
t-11.5 -26q-22 -38 -49 -73t-56.5 -62t-61 -43t-62.5 -16q-28 0 -51 30.5t-33 87.5t-3.5 137.5t37.5 180.5q37 121 81.5 203t89.5 126t86 50t72 -25q13 -13 22 -42t10 -71t-8.5 -96t-34.5 -115zM297 853q-1 -2 -5 -1.5t-8 3t-5.5 7t1.5 11.5q8 16 28 37t43 40.5t44 35.5
t31 21v1q15 -9 24 -22t12.5 -25.5t1.5 -22t-8 -10.5q-20 -4 -43 -11.5t-45 -17.5t-41 -21.5t-30 -24.5z" />
    <glyph glyph-name="cacute" unicode="&#x107;" horiz-adv-x="292" 
d="M257 249q-11 -2 -25.5 1t-27.5 9.5t-21 16t-5 20.5q1 2 10 14.5t22 30.5t27.5 39t25.5 39t16.5 31t0.5 16q-15 8 -38.5 -6.5t-47.5 -43.5t-45.5 -69t-33.5 -84q-13 -44 -17 -81.5t0 -65t14.5 -44.5t26.5 -20t39.5 7t49.5 31t52.5 52.5t47.5 72.5q14 26 19 30t5 -10
q0 -5 -3 -15t-12 -26q-22 -38 -50.5 -73t-60 -62t-64 -43t-63.5 -16q-34 0 -54.5 22.5t-28.5 59t-4 84t19 97.5q23 75 60 128t75 84t71.5 38t50.5 -9q13 -13 19 -31t3.5 -47t-15 -72t-37.5 -104zM171 533q-1 -2 -5 -1.5t-8 3t-5.5 7t1.5 11.5q8 16 28 37t43 40.5t44 35.5
t31 21v1q15 -9 24 -22t12.5 -25.5t1.5 -22t-8 -10.5q-20 -4 -43 -11.5t-45 -17.5t-41 -21.5t-30 -24.5z" />
    <glyph glyph-name="Ccircumflex" unicode="&#x108;" horiz-adv-x="343" 
d="M369 466q-11 -2 -25.5 1t-27.5 9t-21 15.5t-5 20.5q1 2 8.5 20t18.5 44t22.5 56t20.5 56t13 44t-1 21q-62 31 -122 -46.5t-115 -270.5q-27 -93 -34 -164t-2 -119t17.5 -73.5t24.5 -27.5q16 -3 38 7t46.5 31t49.5 52.5t46 72.5q14 26 18.5 30t4.5 -10q0 -5 -2.5 -15
t-11.5 -26q-22 -38 -49 -73t-56.5 -62t-61 -43t-62.5 -16q-28 0 -51 30.5t-33 87.5t-3.5 137.5t37.5 180.5q37 121 81.5 203t89.5 126t86 50t72 -25q13 -13 22 -42t10 -71t-8.5 -96t-34.5 -115zM210 847q-8 -2 -12 -0.5t-5.5 5t-1.5 6.5t2 4q15 8 39 23t51 33.5t53.5 40.5
t45.5 45q11 13 40.5 -29t70.5 -121q0 -1 1 -1q-9 -15 -22 -22.5t-25.5 -9t-21.5 2t-10 9.5q-5 26 -17 54.5t-28 52.5q-12 -8 -32.5 -21.5t-43.5 -28t-45.5 -27t-38.5 -16.5z" />
    <glyph glyph-name="ccircumflex" unicode="&#x109;" horiz-adv-x="292" 
d="M257 249q-11 -2 -25.5 1t-27.5 9.5t-21 16t-5 20.5q1 2 10 14.5t22 30.5t27.5 39t25.5 39t16.5 31t0.5 16q-15 8 -38.5 -6.5t-47.5 -43.5t-45.5 -69t-33.5 -84q-13 -44 -17 -81.5t0 -65t14.5 -44.5t26.5 -20t39.5 7t49.5 31t52.5 52.5t47.5 72.5q14 26 19 30t5 -10
q0 -5 -3 -15t-12 -26q-22 -38 -50.5 -73t-60 -62t-64 -43t-63.5 -16q-34 0 -54.5 22.5t-28.5 59t-4 84t19 97.5q23 75 60 128t75 84t71.5 38t50.5 -9q13 -13 19 -31t3.5 -47t-15 -72t-37.5 -104zM135 547q-8 -2 -12 -0.5t-5.5 5t-1.5 6.5t2 4q15 8 39 23t51 33.5t53.5 40.5
t45.5 45q11 13 40.5 -29t70.5 -121q0 -1 1 -1q-9 -15 -22 -22.5t-25.5 -9t-21.5 2t-10 9.5q-5 26 -17 54.5t-28 52.5q-12 -8 -32.5 -21.5t-43.5 -28t-45.5 -27t-38.5 -16.5z" />
    <glyph glyph-name="Cdotaccent" unicode="&#x10a;" horiz-adv-x="343" 
d="M369 466q-11 -2 -25.5 1t-27.5 9t-21 15.5t-5 20.5q1 2 8.5 20t18.5 44t22.5 56t20.5 56t13 44t-1 21q-62 31 -122 -46.5t-115 -270.5q-27 -93 -34 -164t-2 -119t17.5 -73.5t24.5 -27.5q16 -3 38 7t46.5 31t49.5 52.5t46 72.5q14 26 18.5 30t4.5 -10q0 -5 -2.5 -15
t-11.5 -26q-22 -38 -49 -73t-56.5 -62t-61 -43t-62.5 -16q-28 0 -51 30.5t-33 87.5t-3.5 137.5t37.5 180.5q37 121 81.5 203t89.5 126t86 50t72 -25q13 -13 22 -42t10 -71t-8.5 -96t-34.5 -115zM446 895q-13 -20 -41.5 -29.5t-53.5 3.5q-26 13 -37 33t2 41q13 20 41.5 29.5
t53.5 -3.5q26 -13 37 -33t-2 -41z" />
    <glyph glyph-name="cdotaccent" unicode="&#x10b;" horiz-adv-x="292" 
d="M257 249q-11 -2 -25.5 1t-27.5 9.5t-21 16t-5 20.5q1 2 10 14.5t22 30.5t27.5 39t25.5 39t16.5 31t0.5 16q-15 8 -38.5 -6.5t-47.5 -43.5t-45.5 -69t-33.5 -84q-13 -44 -17 -81.5t0 -65t14.5 -44.5t26.5 -20t39.5 7t49.5 31t52.5 52.5t47.5 72.5q14 26 19 30t5 -10
q0 -5 -3 -15t-12 -26q-22 -38 -50.5 -73t-60 -62t-64 -43t-63.5 -16q-34 0 -54.5 22.5t-28.5 59t-4 84t19 97.5q23 75 60 128t75 84t71.5 38t50.5 -9q13 -13 19 -31t3.5 -47t-15 -72t-37.5 -104zM381 595q-13 -20 -41.5 -29.5t-53.5 3.5q-26 13 -37 33t2 41q13 20 41.5 29.5
t53.5 -3.5q26 -13 37 -33t-2 -41z" />
    <glyph glyph-name="Ccaron" unicode="&#x10c;" horiz-adv-x="343" 
d="M369 466q-11 -2 -25.5 1t-27.5 9t-21 15.5t-5 20.5q1 2 8.5 20t18.5 44t22.5 56t20.5 56t13 44t-1 21q-62 31 -122 -46.5t-115 -270.5q-27 -93 -34 -164t-2 -119t17.5 -73.5t24.5 -27.5q16 -3 38 7t46.5 31t49.5 52.5t46 72.5q14 26 18.5 30t4.5 -10q0 -5 -2.5 -15
t-11.5 -26q-22 -38 -49 -73t-56.5 -62t-61 -43t-62.5 -16q-28 0 -51 30.5t-33 87.5t-3.5 137.5t37.5 180.5q37 121 81.5 203t89.5 126t86 50t72 -25q13 -13 22 -42t10 -71t-8.5 -96t-34.5 -115zM500 1013q8 2 12 0.5t5.5 -4.5t1 -6.5t-1.5 -4.5q-29 -16 -65 -56t-74 -86
q-4 -5 -8.5 -5t-12.5 4.5t-19.5 15t-28.5 27.5q-14 14 -28 30.5t-26 31.5t-21 27.5t-12 19.5l-1 1q9 15 21.5 22t23.5 8.5t19.5 -1.5t9.5 -9q5 -26 17 -54.5t28 -53.5q12 8 32.5 22t43.5 28.5t45.5 26.5t38.5 16z" />
    <glyph glyph-name="ccaron" unicode="&#x10d;" horiz-adv-x="292" 
d="M257 249q-11 -2 -25.5 1t-27.5 9.5t-21 16t-5 20.5q1 2 10 14.5t22 30.5t27.5 39t25.5 39t16.5 31t0.5 16q-15 8 -38.5 -6.5t-47.5 -43.5t-45.5 -69t-33.5 -84q-13 -44 -17 -81.5t0 -65t14.5 -44.5t26.5 -20t39.5 7t49.5 31t52.5 52.5t47.5 72.5q14 26 19 30t5 -10
q0 -5 -3 -15t-12 -26q-22 -38 -50.5 -73t-60 -62t-64 -43t-63.5 -16q-34 0 -54.5 22.5t-28.5 59t-4 84t19 97.5q23 75 60 128t75 84t71.5 38t50.5 -9q13 -13 19 -31t3.5 -47t-15 -72t-37.5 -104zM455 693q8 2 12 0.5t5.5 -4.5t1 -6.5t-1.5 -4.5q-29 -16 -65 -56t-74 -86
q-4 -5 -8.5 -5t-12.5 4.5t-19.5 15t-28.5 27.5q-14 14 -28 30.5t-26 31.5t-21 27.5t-12 19.5l-1 1q9 15 21.5 22t23.5 8.5t19.5 -1.5t9.5 -9q5 -26 17 -54.5t28 -53.5q12 8 32.5 22t43.5 28.5t45.5 26.5t38.5 16z" />
    <glyph glyph-name="Dcaron" unicode="&#x10e;" horiz-adv-x="446" 
d="M72 -3q-16 6 -30 20.5t-22 38.5t-9 57.5t10 75.5q7 28 19.5 72t27.5 96.5t31.5 109t32 109t28 97.5t19.5 75q-35 -17 -69.5 -43t-64.5 -63q-3 -4 -7 8t-7 28.5t-3.5 31.5t2.5 18q13 13 42.5 29t69.5 30t88 24t97 10q56 0 99 -26.5t66.5 -78.5t22.5 -128t-32 -176
q-38 -120 -91.5 -205t-110.5 -136.5t-112.5 -69.5t-96.5 -4zM307 782q-46 0 -102 -22q12 -2 26.5 -6t26.5 -10t19 -14.5t4 -19.5q-2 -6 -12 -31t-24.5 -63t-32 -87t-35.5 -103t-31 -94.5t-22.5 -72.5t-16 -58t-11.5 -51q-5 -26 -8.5 -49.5t-3.5 -41.5t5 -29.5t18 -11.5
q27 -1 65 24t78.5 74.5t80 123.5t68.5 172q28 94 32.5 163.5t-9.5 115.5t-44 68.5t-71 22.5zM542 1013q8 2 12 0.5t5.5 -4.5t1 -6.5t-1.5 -4.5q-29 -16 -65 -56t-74 -86q-4 -5 -8.5 -5t-12.5 4.5t-19.5 15t-28.5 27.5q-14 14 -28 30.5t-26 31.5t-21 27.5t-12 19.5l-1 1
q9 15 21.5 22t23.5 8.5t19.5 -1.5t9.5 -9q5 -26 17 -54.5t28 -53.5q12 8 32.5 22t43.5 28.5t45.5 26.5t38.5 16z" />
    <glyph glyph-name="dcaron" unicode="&#x10f;" horiz-adv-x="409" 
d="M248 197q-9 -26 -23 -60t-33 -64.5t-42.5 -51.5t-51.5 -21q-30 0 -50.5 22.5t-29.5 59t-6.5 84t17.5 97.5q23 75 60.5 128.5t76 84t72 38t48.5 -9.5q6 -8 12 -15.5t11 -15.5q5 16 9.5 31t9.5 31q14 46 25 80.5t20 65t16.5 62t16.5 71.5q0 1 18.5 0.5t38.5 -5t34.5 -14.5
t7.5 -28q0 -2 -9 -24.5t-23.5 -60t-32 -86t-34.5 -101.5q-18 -54 -35.5 -109t-32 -104.5t-25.5 -90t-15 -65.5q-5 -28 -4.5 -44t5 -22t13 -3.5t20.5 11.5q7 6 18.5 20.5t24.5 34.5t27 44t26 48q14 26 19 30t5 -10q0 -5 -3 -15t-12 -26q-23 -40 -46.5 -77.5t-48.5 -63.5
q-56 -61 -92 -46q-13 6 -18 24t-4 44.5t6.5 58t14.5 63.5q1 4 0.5 3.5t-1.5 -3.5zM300 444q-11 16 -22 22q-15 8 -38.5 -6t-47.5 -43.5t-45.5 -69.5t-33.5 -84q-13 -44 -17 -81t-1 -64t12 -42t23 -15q25 0 51.5 41t56.5 140zM555 658q23 28 27 74t-16 92q-3 5 3.5 12
t18.5 11.5t28 5t32 -6.5v-1q4 -24 -1.5 -54.5t-17 -60t-26 -53.5t-29.5 -33q-7 -5 -11.5 -4t-7 4.5t-2.5 7.5t2 6z" />
    <glyph glyph-name="Dcroat" unicode="&#x110;" horiz-adv-x="446" 
d="M72 -3q-16 6 -30 20.5t-22 38.5t-9 57.5t10 75.5q7 28 19.5 72t27.5 96.5t31.5 109t32 109t28 97.5t19.5 75q-35 -17 -69.5 -43t-64.5 -63q-3 -4 -7 8t-7 28.5t-3.5 31.5t2.5 18q13 13 42.5 29t69.5 30t88 24t97 10q56 0 99 -26.5t66.5 -78.5t22.5 -128t-32 -176
q-38 -120 -91.5 -205t-110.5 -136.5t-112.5 -69.5t-96.5 -4zM307 782q-46 0 -102 -22q12 -2 26.5 -6t26.5 -10t19 -14.5t4 -19.5q-2 -6 -12 -31t-24.5 -63t-32 -87t-35.5 -103t-31 -94.5t-22.5 -72.5t-16 -58t-11.5 -51q-5 -26 -8.5 -49.5t-3.5 -41.5t5 -29.5t18 -11.5
q27 -1 65 24t78.5 74.5t80 123.5t68.5 172q28 94 32.5 163.5t-9.5 115.5t-44 68.5t-71 22.5zM321 504q-32 -38 -109 -54t-211 -11h-1q-5 9 -4 22.5t6 26t14 21.5t21 10q2 0 22.5 -0.5t50.5 -1.5t65 -2t66 -2.5t53.5 -2t28.5 -0.5q4 0 -2 -6z" />
    <glyph glyph-name="dcroat" unicode="&#x111;" horiz-adv-x="388" 
d="M248 197q-9 -26 -23 -60t-33 -64.5t-42.5 -51.5t-51.5 -21q-30 0 -50.5 22.5t-29.5 59t-6.5 84t17.5 97.5q23 75 60.5 128.5t76 84t72 38t48.5 -9.5q6 -8 12 -15.5t11 -15.5q5 16 9.5 31t9.5 31q14 46 25 80.5t20 65t16.5 62t16.5 71.5q0 1 18.5 0.5t38.5 -5t34.5 -14.5
t7.5 -28q0 -2 -9 -24.5t-23.5 -60t-32 -86t-34.5 -101.5q-18 -54 -35.5 -109t-32 -104.5t-25.5 -90t-15 -65.5q-5 -28 -4.5 -44t5 -22t13 -3.5t20.5 11.5q7 6 18.5 20.5t24.5 34.5t27 44t26 48q14 26 19 30t5 -10q0 -5 -3 -15t-12 -26q-23 -40 -46.5 -77.5t-48.5 -63.5
q-56 -61 -92 -46q-13 6 -18 24t-4 44.5t6.5 58t14.5 63.5q1 4 0.5 3.5t-1.5 -3.5zM300 444q-11 16 -22 22q-15 8 -38.5 -6t-47.5 -43.5t-45.5 -69.5t-33.5 -84q-13 -44 -17 -81t-1 -64t12 -42t23 -15q25 0 51.5 41t56.5 140zM585 714q-32 -38 -109 -54t-211 -11h-1
q-5 9 -4 22.5t6 26t14 21.5t21 10q2 0 22.5 -0.5t50.5 -1.5t65 -2t66 -2.5t53.5 -2t28.5 -0.5q4 0 -2 -6z" />
    <glyph glyph-name="Emacron" unicode="&#x112;" horiz-adv-x="356" 
d="M29 270q15 50 39 84t52 55.5t56.5 32.5t54.5 16q-22 10 -41 26t-31.5 39t-15.5 54t7 70q15 61 48.5 99t71.5 55t74 14t58 -25q16 -17 28 -38.5t15 -51t-4 -67.5t-27 -87l-1 -1q-11 -2 -25.5 1t-27.5 9.5t-20.5 15.5t-4.5 20q0 2 6 14.5t14 29.5t17 36.5t15 37t8.5 29.5
t-2.5 15q-21 11 -46 8t-47.5 -16.5t-40.5 -37.5t-26 -55q-9 -36 -9.5 -67t6 -54.5t19.5 -37t33 -13.5q17 0 32 -1t32 -1q1 0 2.5 -6t-1.5 -12.5t-11 -12.5t-24 -6h-13.5t-13.5 2q-21 -1 -45.5 -11.5t-48.5 -31.5t-45 -53.5t-33 -76.5q-14 -48 -14.5 -90t10 -73t30 -48.5
t45.5 -17.5q21 0 48 12t55.5 34.5t56 55t48.5 72.5q14 26 19 30t5 -10q0 -5 -3 -15t-12 -26q-21 -38 -49.5 -74.5t-62 -65.5t-70.5 -47t-75 -18q-41 0 -71 21t-46 58.5t-16.5 89t18.5 112.5zM543 931q-32 -38 -109 -54t-211 -11h-1q-5 9 -4 22.5t6 26t14 21.5t21 10
q2 0 22.5 -0.5t50.5 -1.5t65 -2t66 -2.5t53.5 -2t28.5 -0.5q4 0 -2 -6z" />
    <glyph glyph-name="emacron" unicode="&#x113;" horiz-adv-x="301" 
d="M345 410q-5 -24 -27 -54.5t-56 -63t-77 -65.5t-88 -63q-3 -48 8 -78t34 -34q16 -3 41 7t52.5 31t55.5 52.5t49 72.5q14 26 19 30t5 -10q0 -5 -3 -15t-12 -26q-22 -38 -51.5 -73t-63 -62t-67.5 -43t-65 -16q-34 0 -54.5 22.5t-28.5 59t-4 84t19 97.5q23 75 60 128t75.5 84
t72 38t50.5 -9q5 -5 15.5 -14.5t20.5 -21.5t16.5 -27t3.5 -31zM115 263q-6 -20 -10 -38t-6 -35q46 35 84.5 80.5t64 87.5t35 73.5t-2.5 37.5q-15 8 -38 -7t-47 -44.5t-45.5 -70t-34.5 -84.5zM467 641q-32 -38 -109 -54t-211 -11h-1q-5 9 -4 22.5t6 26t14 21.5t21 10
q2 0 22.5 -0.5t50.5 -1.5t65 -2t66 -2.5t53.5 -2t28.5 -0.5q4 0 -2 -6z" />
    <glyph glyph-name="Ebreve" unicode="&#x114;" horiz-adv-x="356" 
d="M29 270q15 50 39 84t52 55.5t56.5 32.5t54.5 16q-22 10 -41 26t-31.5 39t-15.5 54t7 70q15 61 48.5 99t71.5 55t74 14t58 -25q16 -17 28 -38.5t15 -51t-4 -67.5t-27 -87l-1 -1q-11 -2 -25.5 1t-27.5 9.5t-20.5 15.5t-4.5 20q0 2 6 14.5t14 29.5t17 36.5t15 37t8.5 29.5
t-2.5 15q-21 11 -46 8t-47.5 -16.5t-40.5 -37.5t-26 -55q-9 -36 -9.5 -67t6 -54.5t19.5 -37t33 -13.5q17 0 32 -1t32 -1q1 0 2.5 -6t-1.5 -12.5t-11 -12.5t-24 -6h-13.5t-13.5 2q-21 -1 -45.5 -11.5t-48.5 -31.5t-45 -53.5t-33 -76.5q-14 -48 -14.5 -90t10 -73t30 -48.5
t45.5 -17.5q21 0 48 12t55.5 34.5t56 55t48.5 72.5q14 26 19 30t5 -10q0 -5 -3 -15t-12 -26q-21 -38 -49.5 -74.5t-62 -65.5t-70.5 -47t-75 -18q-41 0 -71 21t-46 58.5t-16.5 89t18.5 112.5zM465 991q-6 -23 -17.5 -44.5t-26.5 -38t-32.5 -26.5t-35.5 -10q-36 0 -58 30.5
t-28 79.5q-2 16 10 24.5t27.5 9.5t29.5 -6t16 -20q3 -27 11.5 -42t22.5 -15q15 0 32 13.5t26 46.5q3 10 7.5 15t9 5t7 -5.5t-0.5 -16.5z" />
    <glyph glyph-name="ebreve" unicode="&#x115;" horiz-adv-x="301" 
d="M345 410q-5 -24 -27 -54.5t-56 -63t-77 -65.5t-88 -63q-3 -48 8 -78t34 -34q16 -3 41 7t52.5 31t55.5 52.5t49 72.5q14 26 19 30t5 -10q0 -5 -3 -15t-12 -26q-22 -38 -51.5 -73t-63 -62t-67.5 -43t-65 -16q-34 0 -54.5 22.5t-28.5 59t-4 84t19 97.5q23 75 60 128t75.5 84
t72 38t50.5 -9q5 -5 15.5 -14.5t20.5 -21.5t16.5 -27t3.5 -31zM115 263q-6 -20 -10 -38t-6 -35q46 35 84.5 80.5t64 87.5t35 73.5t-2.5 37.5q-15 8 -38 -7t-47 -44.5t-45.5 -70t-34.5 -84.5zM391 669q-6 -23 -17.5 -44.5t-26.5 -38t-32.5 -26.5t-35.5 -10q-36 0 -58 30.5
t-28 79.5q-2 16 10 24.5t27.5 9.5t29.5 -6t16 -20q3 -27 11.5 -42t22.5 -15q15 0 32 13.5t26 46.5q3 10 7.5 15t9 5t7 -5.5t-0.5 -16.5z" />
    <glyph glyph-name="Edotaccent" unicode="&#x116;" horiz-adv-x="356" 
d="M29 270q15 50 39 84t52 55.5t56.5 32.5t54.5 16q-22 10 -41 26t-31.5 39t-15.5 54t7 70q15 61 48.5 99t71.5 55t74 14t58 -25q16 -17 28 -38.5t15 -51t-4 -67.5t-27 -87l-1 -1q-11 -2 -25.5 1t-27.5 9.5t-20.5 15.5t-4.5 20q0 2 6 14.5t14 29.5t17 36.5t15 37t8.5 29.5
t-2.5 15q-21 11 -46 8t-47.5 -16.5t-40.5 -37.5t-26 -55q-9 -36 -9.5 -67t6 -54.5t19.5 -37t33 -13.5q17 0 32 -1t32 -1q1 0 2.5 -6t-1.5 -12.5t-11 -12.5t-24 -6h-13.5t-13.5 2q-21 -1 -45.5 -11.5t-48.5 -31.5t-45 -53.5t-33 -76.5q-14 -48 -14.5 -90t10 -73t30 -48.5
t45.5 -17.5q21 0 48 12t55.5 34.5t56 55t48.5 72.5q14 26 19 30t5 -10q0 -5 -3 -15t-12 -26q-21 -38 -49.5 -74.5t-62 -65.5t-70.5 -47t-75 -18q-41 0 -71 21t-46 58.5t-16.5 89t18.5 112.5zM443 885q-13 -20 -41.5 -29.5t-53.5 3.5q-26 13 -37 33t2 41q13 20 41.5 29.5
t53.5 -3.5q26 -13 37 -33t-2 -41z" />
    <glyph glyph-name="edotaccent" unicode="&#x117;" horiz-adv-x="301" 
d="M345 410q-5 -24 -27 -54.5t-56 -63t-77 -65.5t-88 -63q-3 -48 8 -78t34 -34q16 -3 41 7t52.5 31t55.5 52.5t49 72.5q14 26 19 30t5 -10q0 -5 -3 -15t-12 -26q-22 -38 -51.5 -73t-63 -62t-67.5 -43t-65 -16q-34 0 -54.5 22.5t-28.5 59t-4 84t19 97.5q23 75 60 128t75.5 84
t72 38t50.5 -9q5 -5 15.5 -14.5t20.5 -21.5t16.5 -27t3.5 -31zM115 263q-6 -20 -10 -38t-6 -35q46 35 84.5 80.5t64 87.5t35 73.5t-2.5 37.5q-15 8 -38 -7t-47 -44.5t-45.5 -70t-34.5 -84.5zM377 601q-13 -20 -41.5 -29.5t-53.5 3.5q-26 13 -37 33t2 41q13 20 41.5 29.5
t53.5 -3.5q26 -13 37 -33t-2 -41z" />
    <glyph glyph-name="Eogonek" unicode="&#x118;" horiz-adv-x="356" 
d="M29 270q15 50 39 84t52 55.5t56.5 32.5t54.5 16q-22 10 -41 26t-31.5 39t-15.5 54t7 70q15 61 48.5 99t71.5 55t74 14t58 -25q16 -17 28 -38.5t15 -51t-4 -67.5t-27 -87l-1 -1q-11 -2 -25.5 1t-27.5 9.5t-20.5 15.5t-4.5 20q0 2 6 14.5t14 29.5t17 36.5t15 37t8.5 29.5
t-2.5 15q-21 11 -46 8t-47.5 -16.5t-40.5 -37.5t-26 -55q-9 -36 -9.5 -67t6 -54.5t19.5 -37t33 -13.5q17 0 32 -1t32 -1q1 0 2.5 -6t-1.5 -12.5t-11 -12.5t-24 -6h-13.5t-13.5 2q-21 -1 -45.5 -11.5t-48.5 -31.5t-45 -53.5t-33 -76.5q-14 -48 -14.5 -90t10 -73t30 -48.5
t45.5 -17.5q21 0 48 12t55.5 34.5t56 55t48.5 72.5q14 26 19 30t5 -10q0 -5 -3 -15t-12 -26q-21 -38 -49.5 -74.5t-62 -65.5t-70.5 -47t-75 -18q-41 0 -71 21t-46 58.5t-16.5 89t18.5 112.5zM148 17q19 11 22.5 0.5t-13.5 -21.5q-27 -17 -34 -36.5t-5 -37.5
q2 -13 17.5 -20.5t42.5 -7.5q8 0 13.5 -13t6.5 -28.5t-3.5 -28.5t-15.5 -13q-49 1 -81.5 19.5t-36.5 54.5q-2 19 4 37.5t18 36t29 32t36 26.5z" />
    <glyph glyph-name="eogonek" unicode="&#x119;" horiz-adv-x="301" 
d="M345 410q-5 -24 -27 -54.5t-56 -63t-77 -65.5t-88 -63q-3 -48 8 -78t34 -34q16 -3 41 7t52.5 31t55.5 52.5t49 72.5q14 26 19 30t5 -10q0 -5 -3 -15t-12 -26q-22 -38 -51.5 -73t-63 -62t-67.5 -43t-65 -16q-34 0 -54.5 22.5t-28.5 59t-4 84t19 97.5q23 75 60 128t75.5 84
t72 38t50.5 -9q5 -5 15.5 -14.5t20.5 -21.5t16.5 -27t3.5 -31zM115 263q-6 -20 -10 -38t-6 -35q46 35 84.5 80.5t64 87.5t35 73.5t-2.5 37.5q-15 8 -38 -7t-47 -44.5t-45.5 -70t-34.5 -84.5zM109 27q19 11 22.5 0.5t-13.5 -21.5q-27 -17 -34 -36.5t-5 -37.5
q2 -13 17.5 -20.5t42.5 -7.5q8 0 13.5 -13t6.5 -28.5t-3.5 -28.5t-15.5 -13q-49 1 -81.5 19.5t-36.5 54.5q-2 19 4 37.5t18 36t29 32t36 26.5z" />
    <glyph glyph-name="Ecaron" unicode="&#x11a;" horiz-adv-x="356" 
d="M29 270q15 50 39 84t52 55.5t56.5 32.5t54.5 16q-22 10 -41 26t-31.5 39t-15.5 54t7 70q15 61 48.5 99t71.5 55t74 14t58 -25q16 -17 28 -38.5t15 -51t-4 -67.5t-27 -87l-1 -1q-11 -2 -25.5 1t-27.5 9.5t-20.5 15.5t-4.5 20q0 2 6 14.5t14 29.5t17 36.5t15 37t8.5 29.5
t-2.5 15q-21 11 -46 8t-47.5 -16.5t-40.5 -37.5t-26 -55q-9 -36 -9.5 -67t6 -54.5t19.5 -37t33 -13.5q17 0 32 -1t32 -1q1 0 2.5 -6t-1.5 -12.5t-11 -12.5t-24 -6h-13.5t-13.5 2q-21 -1 -45.5 -11.5t-48.5 -31.5t-45 -53.5t-33 -76.5q-14 -48 -14.5 -90t10 -73t30 -48.5
t45.5 -17.5q21 0 48 12t55.5 34.5t56 55t48.5 72.5q14 26 19 30t5 -10q0 -5 -3 -15t-12 -26q-21 -38 -49.5 -74.5t-62 -65.5t-70.5 -47t-75 -18q-41 0 -71 21t-46 58.5t-16.5 89t18.5 112.5zM498 1034q8 2 12 0.5t5.5 -4.5t1 -6.5t-1.5 -4.5q-29 -16 -65 -56t-74 -86
q-4 -5 -8.5 -5t-12.5 4.5t-19.5 15t-28.5 27.5q-14 14 -28 30.5t-26 31.5t-21 27.5t-12 19.5l-1 1q9 15 21.5 22t23.5 8.5t19.5 -1.5t9.5 -9q5 -26 17 -54.5t28 -53.5q12 8 32.5 22t43.5 28.5t45.5 26.5t38.5 16z" />
    <glyph glyph-name="ecaron" unicode="&#x11b;" horiz-adv-x="301" 
d="M345 410q-5 -24 -27 -54.5t-56 -63t-77 -65.5t-88 -63q-3 -48 8 -78t34 -34q16 -3 41 7t52.5 31t55.5 52.5t49 72.5q14 26 19 30t5 -10q0 -5 -3 -15t-12 -26q-22 -38 -51.5 -73t-63 -62t-67.5 -43t-65 -16q-34 0 -54.5 22.5t-28.5 59t-4 84t19 97.5q23 75 60 128t75.5 84
t72 38t50.5 -9q5 -5 15.5 -14.5t20.5 -21.5t16.5 -27t3.5 -31zM115 263q-6 -20 -10 -38t-6 -35q46 35 84.5 80.5t64 87.5t35 73.5t-2.5 37.5q-15 8 -38 -7t-47 -44.5t-45.5 -70t-34.5 -84.5zM419 723q8 2 12 0.5t5.5 -4.5t1 -6.5t-1.5 -4.5q-29 -16 -65 -56t-74 -86
q-4 -5 -8.5 -5t-12.5 4.5t-19.5 15t-28.5 27.5q-14 14 -28 30.5t-26 31.5t-21 27.5t-12 19.5l-1 1q9 15 21.5 22t23.5 8.5t19.5 -1.5t9.5 -9q5 -26 17 -54.5t28 -53.5q12 8 32.5 22t43.5 28.5t45.5 26.5t38.5 16z" />
    <glyph glyph-name="Gcircumflex" unicode="&#x11c;" horiz-adv-x="416" 
d="M256 78q-26 -35 -57 -56.5t-65 -21.5q-28 0 -51 30.5t-33 87.5t-3.5 137.5t37.5 180.5q37 121 83 203t92.5 126t89.5 50t74 -25q13 -13 22 -42t10 -71t-8.5 -95.5t-34.5 -114.5v-1q-11 -2 -26 1t-28 9t-20.5 15.5t-4.5 20.5q1 2 8.5 20t18 44t22 56t20.5 56t13 44t-1 21
q-30 15 -62 3.5t-64 -50.5t-62.5 -106.5t-58.5 -163.5q-27 -93 -33.5 -164t-1.5 -119t17.5 -73.5t24.5 -27.5q26 -5 58 27t58 95q13 40 19 65t10 48q1 5 1 9.5v7.5v7q10 1 26 -1.5t29.5 -9t22 -15.5t5.5 -20l-87 -248q-29 -83 -68.5 -140t-79 -88t-74.5 -37t-54 14
q-29 29 -29 83t27 120v1q10 1 25 -1.5t28 -9t21 -15.5t5 -20q-1 -3 -14.5 -21t-28 -38.5t-24 -38.5t-2.5 -22q17 -9 39.5 1.5t47 37.5t49.5 71t48 103zM266 847q-8 -2 -12 -0.5t-5.5 5t-1.5 6.5t2 4q15 8 39 23t51 33.5t53.5 40.5t45.5 45q11 13 40.5 -29t70.5 -121
q0 -1 1 -1q-9 -15 -22 -22.5t-25.5 -9t-21.5 2t-10 9.5q-5 26 -17 54.5t-28 52.5q-12 -8 -32.5 -21.5t-43.5 -28t-45.5 -27t-38.5 -16.5z" />
    <glyph glyph-name="gcircumflex" unicode="&#x11d;" horiz-adv-x="357" 
d="M191 17q25 66 37 102.5t16.5 53.5t3.5 20.5l-1 3.5q-9 -26 -23 -60t-33 -64.5t-42.5 -51.5t-51.5 -21q-30 0 -50.5 22.5t-29.5 59t-6.5 84t17.5 97.5q23 75 60 128.5t75.5 84t72 38t49.5 -9.5q11 -13 21 -28t17 -29q23 -4 43 -16t15 -29q-1 -3 -9 -26.5t-23.5 -70
t-39.5 -118t-56 -170.5q-27 -84 -61.5 -139t-69 -84.5t-65 -33.5t-49.5 16q-14 14 -21 36.5t-6.5 50t7.5 59.5t21 65l1 1q10 1 25 -1.5t28 -9t20.5 -16t4.5 -20.5q-1 -3 -14.5 -22t-28.5 -41t-25 -41.5t-3 -22.5q34 -18 80.5 33.5t93.5 169.5zM298 445q-12 15 -22 21
q-15 8 -38 -6t-47 -43.5t-45.5 -69.5t-34.5 -84q-12 -44 -16 -81t-1 -64t12 -42t23 -15q25 0 51.5 41t56.5 140q18 61 33 110t23 79zM137 547q-8 -2 -12 -0.5t-5.5 5t-1.5 6.5t2 4q15 8 39 23t51 33.5t53.5 40.5t45.5 45q11 13 40.5 -29t70.5 -121q0 -1 1 -1
q-9 -15 -22 -22.5t-25.5 -9t-21.5 2t-10 9.5q-5 26 -17 54.5t-28 52.5q-12 -8 -32.5 -21.5t-43.5 -28t-45.5 -27t-38.5 -16.5z" />
    <glyph glyph-name="Gbreve" unicode="&#x11e;" horiz-adv-x="416" 
d="M256 78q-26 -35 -57 -56.5t-65 -21.5q-28 0 -51 30.5t-33 87.5t-3.5 137.5t37.5 180.5q37 121 83 203t92.5 126t89.5 50t74 -25q13 -13 22 -42t10 -71t-8.5 -95.5t-34.5 -114.5v-1q-11 -2 -26 1t-28 9t-20.5 15.5t-4.5 20.5q1 2 8.5 20t18 44t22 56t20.5 56t13 44t-1 21
q-30 15 -62 3.5t-64 -50.5t-62.5 -106.5t-58.5 -163.5q-27 -93 -33.5 -164t-1.5 -119t17.5 -73.5t24.5 -27.5q26 -5 58 27t58 95q13 40 19 65t10 48q1 5 1 9.5v7.5v7q10 1 26 -1.5t29.5 -9t22 -15.5t5.5 -20l-87 -248q-29 -83 -68.5 -140t-79 -88t-74.5 -37t-54 14
q-29 29 -29 83t27 120v1q10 1 25 -1.5t28 -9t21 -15.5t5 -20q-1 -3 -14.5 -21t-28 -38.5t-24 -38.5t-2.5 -22q17 -9 39.5 1.5t47 37.5t49.5 71t48 103zM506 969q-6 -23 -17.5 -44.5t-26.5 -38t-32.5 -26.5t-35.5 -10q-36 0 -58 30.5t-28 79.5q-2 16 10 24.5t27.5 9.5
t29.5 -6t16 -20q3 -27 11.5 -42t22.5 -15q15 0 32 13.5t26 46.5q3 10 7.5 15t9 5t7 -5.5t-0.5 -16.5z" />
    <glyph glyph-name="gbreve" unicode="&#x11f;" horiz-adv-x="357" 
d="M191 17q25 66 37 102.5t16.5 53.5t3.5 20.5l-1 3.5q-9 -26 -23 -60t-33 -64.5t-42.5 -51.5t-51.5 -21q-30 0 -50.5 22.5t-29.5 59t-6.5 84t17.5 97.5q23 75 60 128.5t75.5 84t72 38t49.5 -9.5q11 -13 21 -28t17 -29q23 -4 43 -16t15 -29q-1 -3 -9 -26.5t-23.5 -70
t-39.5 -118t-56 -170.5q-27 -84 -61.5 -139t-69 -84.5t-65 -33.5t-49.5 16q-14 14 -21 36.5t-6.5 50t7.5 59.5t21 65l1 1q10 1 25 -1.5t28 -9t20.5 -16t4.5 -20.5q-1 -3 -14.5 -22t-28.5 -41t-25 -41.5t-3 -22.5q34 -18 80.5 33.5t93.5 169.5zM298 445q-12 15 -22 21
q-15 8 -38 -6t-47 -43.5t-45.5 -69.5t-34.5 -84q-12 -44 -16 -81t-1 -64t12 -42t23 -15q25 0 51.5 41t56.5 140q18 61 33 110t23 79zM407 669q-6 -23 -17.5 -44.5t-26.5 -38t-32.5 -26.5t-35.5 -10q-36 0 -58 30.5t-28 79.5q-2 16 10 24.5t27.5 9.5t29.5 -6t16 -20
q3 -27 11.5 -42t22.5 -15q15 0 32 13.5t26 46.5q3 10 7.5 15t9 5t7 -5.5t-0.5 -16.5z" />
    <glyph glyph-name="Gdotaccent" unicode="&#x120;" horiz-adv-x="416" 
d="M256 78q-26 -35 -57 -56.5t-65 -21.5q-28 0 -51 30.5t-33 87.5t-3.5 137.5t37.5 180.5q37 121 83 203t92.5 126t89.5 50t74 -25q13 -13 22 -42t10 -71t-8.5 -95.5t-34.5 -114.5v-1q-11 -2 -26 1t-28 9t-20.5 15.5t-4.5 20.5q1 2 8.5 20t18 44t22 56t20.5 56t13 44t-1 21
q-30 15 -62 3.5t-64 -50.5t-62.5 -106.5t-58.5 -163.5q-27 -93 -33.5 -164t-1.5 -119t17.5 -73.5t24.5 -27.5q26 -5 58 27t58 95q13 40 19 65t10 48q1 5 1 9.5v7.5v7q10 1 26 -1.5t29.5 -9t22 -15.5t5.5 -20l-87 -248q-29 -83 -68.5 -140t-79 -88t-74.5 -37t-54 14
q-29 29 -29 83t27 120v1q10 1 25 -1.5t28 -9t21 -15.5t5 -20q-1 -3 -14.5 -21t-28 -38.5t-24 -38.5t-2.5 -22q17 -9 39.5 1.5t47 37.5t49.5 71t48 103zM447 897q-13 -20 -41.5 -29.5t-53.5 3.5q-26 13 -37 33t2 41q13 20 41.5 29.5t53.5 -3.5q26 -13 37 -33t-2 -41z" />
    <glyph glyph-name="gdotaccent" unicode="&#x121;" horiz-adv-x="357" 
d="M191 17q25 66 37 102.5t16.5 53.5t3.5 20.5l-1 3.5q-9 -26 -23 -60t-33 -64.5t-42.5 -51.5t-51.5 -21q-30 0 -50.5 22.5t-29.5 59t-6.5 84t17.5 97.5q23 75 60 128.5t75.5 84t72 38t49.5 -9.5q11 -13 21 -28t17 -29q23 -4 43 -16t15 -29q-1 -3 -9 -26.5t-23.5 -70
t-39.5 -118t-56 -170.5q-27 -84 -61.5 -139t-69 -84.5t-65 -33.5t-49.5 16q-14 14 -21 36.5t-6.5 50t7.5 59.5t21 65l1 1q10 1 25 -1.5t28 -9t20.5 -16t4.5 -20.5q-1 -3 -14.5 -22t-28.5 -41t-25 -41.5t-3 -22.5q34 -18 80.5 33.5t93.5 169.5zM298 445q-12 15 -22 21
q-15 8 -38 -6t-47 -43.5t-45.5 -69.5t-34.5 -84q-12 -44 -16 -81t-1 -64t12 -42t23 -15q25 0 51.5 41t56.5 140q18 61 33 110t23 79zM391 593q-13 -20 -41.5 -29.5t-53.5 3.5q-26 13 -37 33t2 41q13 20 41.5 29.5t53.5 -3.5q26 -13 37 -33t-2 -41z" />
    <glyph glyph-name="uni0122" unicode="&#x122;" horiz-adv-x="416" 
d="M256 78q-26 -35 -57 -56.5t-65 -21.5q-28 0 -51 30.5t-33 87.5t-3.5 137.5t37.5 180.5q37 121 83 203t92.5 126t89.5 50t74 -25q13 -13 22 -42t10 -71t-8.5 -95.5t-34.5 -114.5v-1q-11 -2 -26 1t-28 9t-20.5 15.5t-4.5 20.5q1 2 8.5 20t18 44t22 56t20.5 56t13 44t-1 21
q-30 15 -62 3.5t-64 -50.5t-62.5 -106.5t-58.5 -163.5q-27 -93 -33.5 -164t-1.5 -119t17.5 -73.5t24.5 -27.5q26 -5 58 27t58 95q13 40 19 65t10 48q1 5 1 9.5v7.5v7q10 1 26 -1.5t29.5 -9t22 -15.5t5.5 -20l-87 -248q-29 -83 -68.5 -140t-79 -88t-74.5 -37t-54 14
q-29 29 -29 83t27 120v1q10 1 25 -1.5t28 -9t21 -15.5t5 -20q-1 -3 -14.5 -21t-28 -38.5t-24 -38.5t-2.5 -22q17 -9 39.5 1.5t47 37.5t49.5 71t48 103zM98 -387q-8 -28 -29.5 -50.5t-48.5 -40.5q-13 -8 -23.5 -9.5t-17 0t-9 5.5t0.5 6q18 15 34 28.5t24.5 24t8 16.5t-15.5 6
t-27 7.5t-18.5 19.5t-7 26.5t8.5 28.5q7 11 18 17t24 7.5t26.5 -2t25.5 -10.5q24 -16 28.5 -36t-2.5 -44z" />
    <glyph glyph-name="uni0123" unicode="&#x123;" horiz-adv-x="357" 
d="M191 17q25 66 37 102.5t16.5 53.5t3.5 20.5l-1 3.5q-9 -26 -23 -60t-33 -64.5t-42.5 -51.5t-51.5 -21q-30 0 -50.5 22.5t-29.5 59t-6.5 84t17.5 97.5q23 75 60 128.5t75.5 84t72 38t49.5 -9.5q11 -13 21 -28t17 -29q23 -4 43 -16t15 -29q-1 -3 -9 -26.5t-23.5 -70
t-39.5 -118t-56 -170.5q-27 -84 -61.5 -139t-69 -84.5t-65 -33.5t-49.5 16q-14 14 -21 36.5t-6.5 50t7.5 59.5t21 65l1 1q10 1 25 -1.5t28 -9t20.5 -16t4.5 -20.5q-1 -3 -14.5 -22t-28.5 -41t-25 -41.5t-3 -22.5q34 -18 80.5 33.5t93.5 169.5zM298 445q-12 15 -22 21
q-15 8 -38 -6t-47 -43.5t-45.5 -69.5t-34.5 -84q-12 -44 -16 -81t-1 -64t12 -42t23 -15q25 0 51.5 41t56.5 140q18 61 33 110t23 79zM347 756q-23 -28 -27 -74t16 -92q3 -5 -3.5 -12t-18.5 -11.5t-28 -5t-32 6.5v1q-4 24 1.5 54.5t17 60t26 53.5t29.5 33q7 4 11.5 3.5t7 -4
t2.5 -7.5t-2 -6z" />
    <glyph glyph-name="Hcircumflex" unicode="&#x124;" horiz-adv-x="504" 
d="M102 0q-26 -5 -43 -1t-23 23t-1 55.5t22 97.5l12 42q-13 0 -26 0.5t-27 1.5h-1q-5 9 -4 22.5t6 26t14 21.5t21 10q2 0 12 -0.5t27 -0.5q33 117 55.5 200t38.5 143t26.5 102.5t18.5 77.5q0 1 17.5 -0.5t37 -7.5t34 -16.5t9.5 -26.5q-2 -5 -13 -33t-30.5 -84t-47 -144
t-62.5 -214q28 -1 56.5 -2t53.5 -1.5t43 -1t26 -0.5q15 57 33.5 122t36.5 123l24.5 80.5t19.5 65t17 62t17 71.5q0 1 18.5 0.5t38.5 -5t34.5 -14.5t7.5 -28q-1 -2 -10 -24.5t-23 -60t-31.5 -86t-35.5 -101.5q-18 -54 -35 -109t-32 -104.5t-25.5 -90t-14.5 -65.5
q-5 -28 -3 -44t8.5 -22t16.5 -3.5t22 11.5q7 6 18 20.5t24 34.5t27 44t27 48q14 26 18.5 30t4.5 -10q0 -5 -3 -15t-11 -26q-23 -40 -47 -77.5t-48 -63.5q-28 -30 -56 -42t-46 -4q-14 6 -21.5 22.5t-9 41.5t2 57t12.5 68l20 81q-24 -23 -74 -37.5t-122 -19.5l-17 -67
q-14 -53 -21 -83.5t-10 -46t-3.5 -19.5zM291 903q-8 -2 -12 -0.5t-5.5 5t-1.5 6.5t2 4q15 8 39 23t51 33.5t53.5 40.5t45.5 45q11 13 40.5 -29t70.5 -121q0 -1 1 -1q-9 -15 -22 -22.5t-25.5 -9t-21.5 2t-10 9.5q-5 26 -17 54.5t-28 52.5q-12 -8 -32.5 -21.5t-43.5 -28
t-45.5 -27t-38.5 -16.5z" />
    <glyph glyph-name="hcircumflex" unicode="&#x125;" 
d="M75 -3q-26 -5 -41.5 1.5t-20.5 28.5t0.5 61t20.5 101q7 29 21.5 79.5t32 112t37 127.5t37 126t31 108.5t19.5 75.5q0 1 17.5 -1t37 -8t34.5 -16.5t10 -25.5q-2 -6 -11 -29t-23 -59.5t-31 -83.5t-35 -100q-21 -65 -40 -125t-33 -111q23 54 49 100.5t53 81.5t54 55t53 20
q30 0 43 -18.5t13 -53t-12 -83t-31 -108.5q-18 -57 -24 -97t-3.5 -62.5t11.5 -28.5t21 3q9 7 20 22t24 34.5t26 43t26 47.5q14 26 18.5 30t4.5 -10q0 -5 -2.5 -15t-11.5 -26q-23 -40 -47 -77.5t-48 -63.5q-56 -61 -92 -46q-12 5 -21 23t-12 48.5t3 74.5t24 100q16 54 29 92
t19.5 62.5t4.5 36t-15 11.5q-18 0 -44.5 -25.5t-56.5 -75t-62 -123t-62 -169.5q-5 -23 -7.5 -35.5t-4.5 -19.5q-2 -8 -3 -10zM142 816q-8 -2 -12 -0.5t-5.5 5t-1.5 6.5t2 4q15 8 39 23t51 33.5t53.5 40.5t45.5 45q11 13 40.5 -29t70.5 -121q0 -1 1 -1q-9 -15 -22 -22.5
t-25.5 -9t-21.5 2t-10 9.5q-5 26 -17 54.5t-28 52.5q-12 -8 -32.5 -21.5t-43.5 -28t-45.5 -27t-38.5 -16.5z" />
    <glyph glyph-name="Hbar" unicode="&#x126;" horiz-adv-x="504" 
d="M102 0q-26 -5 -43 -1t-23 23t-1 55.5t22 97.5l12 42q-13 0 -26 0.5t-27 1.5h-1q-5 9 -4 22.5t6 26t14 21.5t21 10q2 0 12 -0.5t27 -0.5q33 117 55.5 200t38.5 143t26.5 102.5t18.5 77.5q0 1 17.5 -0.5t37 -7.5t34 -16.5t9.5 -26.5q-2 -5 -13 -33t-30.5 -84t-47 -144
t-62.5 -214q28 -1 56.5 -2t53.5 -1.5t43 -1t26 -0.5q15 57 33.5 122t36.5 123l24.5 80.5t19.5 65t17 62t17 71.5q0 1 18.5 0.5t38.5 -5t34.5 -14.5t7.5 -28q-1 -2 -10 -24.5t-23 -60t-31.5 -86t-35.5 -101.5q-18 -54 -35 -109t-32 -104.5t-25.5 -90t-14.5 -65.5
q-5 -28 -3 -44t8.5 -22t16.5 -3.5t22 11.5q7 6 18 20.5t24 34.5t27 44t27 48q14 26 18.5 30t4.5 -10q0 -5 -3 -15t-11 -26q-23 -40 -47 -77.5t-48 -63.5q-28 -30 -56 -42t-46 -4q-14 6 -21.5 22.5t-9 41.5t2 57t12.5 68l20 81q-24 -23 -74 -37.5t-122 -19.5l-17 -67
q-14 -53 -21 -83.5t-10 -46t-3.5 -19.5zM463 444q6 6 2 6q-6 0 -28.5 0.5t-53.5 2t-66 2.5t-65 2t-50.5 1.5t-22.5 0.5q-12 -1 -21 -10t-14 -21.5t-6 -26t4 -22.5h1q134 -5 211 11t109 54z" />
    <glyph glyph-name="hbar" unicode="&#x127;" 
d="M75 -3q-26 -5 -41.5 1.5t-20.5 28.5t0.5 61t20.5 101q7 29 21.5 79.5t32 112t37 127.5t37 126t31 108.5t19.5 75.5q0 1 17.5 -1t37 -8t34.5 -16.5t10 -25.5q-2 -6 -11 -29t-23 -59.5t-31 -83.5t-35 -100q-21 -65 -40 -125t-33 -111q23 54 49 100.5t53 81.5t54 55t53 20
q30 0 43 -18.5t13 -53t-12 -83t-31 -108.5q-18 -57 -24 -97t-3.5 -62.5t11.5 -28.5t21 3q9 7 20 22t24 34.5t26 43t26 47.5q14 26 18.5 30t4.5 -10q0 -5 -2.5 -15t-11.5 -26q-23 -40 -47 -77.5t-48 -63.5q-56 -61 -92 -46q-12 5 -21 23t-12 48.5t3 74.5t24 100q16 54 29 92
t19.5 62.5t4.5 36t-15 11.5q-18 0 -44.5 -25.5t-56.5 -75t-62 -123t-62 -169.5q-5 -23 -7.5 -35.5t-4.5 -19.5q-2 -8 -3 -10zM372 641q-32 -38 -109 -54t-211 -11h-1q-5 9 -4 22.5t6 26t14 21.5t21 10q2 0 22.5 -0.5t50.5 -1.5t65 -2t66 -2.5t53.5 -2t28.5 -0.5q4 0 -2 -6z
" />
    <glyph glyph-name="Itilde" unicode="&#x128;" horiz-adv-x="393" 
d="M420 787q23 5 43.5 7t38.5 4q23 23 46 35.5t47 18.5q33 8 54.5 6t32 -12t10.5 -28t-10 -41q-2 -4 -13.5 -2t-33.5 6q-11 2 -23.5 2t-27.5 -1q-15 -10 -35 -34.5t-44.5 -72t-53.5 -121.5t-63 -184q-37 -117 -81.5 -198.5t-89.5 -126.5t-86.5 -52.5t-72.5 23.5
q-12 13 -25 32.5t-19 50.5t-0.5 75t30.5 106l1 1q10 1 25 -1.5t28 -9t21 -16t5 -20.5q-1 -2 -6.5 -15.5t-13.5 -32.5t-16.5 -41t-14.5 -41.5t-8.5 -33.5t2.5 -16q30 -16 58 -13.5t56 36t58 103.5t65 190q22 78 44 140t43.5 111t42.5 85.5t42 62.5l-68 -14q-42 -9 -86 -27.5
t-84 -45t-72 -61t-50 -74.5q-15 -33 -22.5 -62.5t-6 -53.5t12.5 -40.5t34 -22.5q5 -2 11.5 9t13.5 27.5t14 37t12.5 38.5t9.5 31t5 15q5 10 17 11.5t25.5 -3t26.5 -12.5t20 -16q-19 -50 -39.5 -82.5t-43 -52t-45.5 -28t-47 -9.5q-30 -1 -55.5 12t-38 41.5t-8.5 72t33 103.5
q24 51 67 88.5t94.5 64.5t107.5 44.5t106 26.5zM707 903q-8 -11 -21 -14.5t-34 1.5t-51 18.5t-72 36.5q-49 26 -82 29t-48 -23q-5 -9 -10.5 -15t-8.5 -6t-2.5 7.5t6.5 24.5q15 38 32.5 55t36.5 20q13 2 28.5 -3t33.5 -14t39.5 -20.5t47.5 -22.5q52 -22 64.5 -14.5t-0.5 34.5
q-5 10 -6.5 17.5t0 10t7.5 -2t16 -19.5q47 -68 24 -100z" />
    <glyph glyph-name="itilde" unicode="&#x129;" horiz-adv-x="191" 
d="M35 242q18 61 33 110t23 79q2 5 2.5 8t1.5 5q1 3 2 4q10 1 26 -1.5t29.5 -9t22 -15.5t5.5 -20q-1 -3 -11.5 -28t-24 -63.5t-27.5 -87t-22 -97.5q-5 -28 -4.5 -44t5 -22t13 -3.5t20.5 11.5q9 7 20 22t24 34.5t26.5 43t25.5 47.5q14 26 19 30t5 -10q0 -5 -3 -15t-12 -26
q-23 -40 -46.5 -77.5t-48.5 -63.5q-56 -61 -92 -46q-14 6 -23.5 23t-12.5 46.5t2.5 70.5t21.5 95zM334 526q-8 -11 -21 -14.5t-34 1.5t-51 18.5t-72 36.5q-49 26 -82 29t-48 -23q-5 -9 -10.5 -15t-8.5 -6t-2.5 7.5t6.5 24.5q15 38 32.5 55t36.5 20q13 2 28.5 -3t33.5 -14
t39.5 -20.5t47.5 -22.5q52 -22 64.5 -14.5t-0.5 34.5q-5 10 -6.5 17.5t0 10t7.5 -2t16 -19.5q47 -68 24 -100z" />
    <glyph glyph-name="imacron" unicode="&#x12b;" horiz-adv-x="191" 
d="M35 242q18 61 33 110t23 79q2 5 2.5 8t1.5 5q1 3 2 4q10 1 26 -1.5t29.5 -9t22 -15.5t5.5 -20q-1 -3 -11.5 -28t-24 -63.5t-27.5 -87t-22 -97.5q-5 -28 -4.5 -44t5 -22t13 -3.5t20.5 11.5q9 7 20 22t24 34.5t26.5 43t25.5 47.5q14 26 19 30t5 -10q0 -5 -3 -15t-12 -26
q-23 -40 -46.5 -77.5t-48.5 -63.5q-56 -61 -92 -46q-14 6 -23.5 23t-12.5 46.5t2.5 70.5t21.5 95zM371 621q-32 -38 -109 -54t-211 -11h-1q-5 9 -4 22.5t6 26t14 21.5t21 10q2 0 22.5 -0.5t50.5 -1.5t65 -2t66 -2.5t53.5 -2t28.5 -0.5q4 0 -2 -6z" />
    <glyph glyph-name="Ibreve" unicode="&#x12c;" horiz-adv-x="393" 
d="M420 787q23 5 43.5 7t38.5 4q23 23 46 35.5t47 18.5q33 8 54.5 6t32 -12t10.5 -28t-10 -41q-2 -4 -13.5 -2t-33.5 6q-11 2 -23.5 2t-27.5 -1q-15 -10 -35 -34.5t-44.5 -72t-53.5 -121.5t-63 -184q-37 -117 -81.5 -198.5t-89.5 -126.5t-86.5 -52.5t-72.5 23.5
q-12 13 -25 32.5t-19 50.5t-0.5 75t30.5 106l1 1q10 1 25 -1.5t28 -9t21 -16t5 -20.5q-1 -2 -6.5 -15.5t-13.5 -32.5t-16.5 -41t-14.5 -41.5t-8.5 -33.5t2.5 -16q30 -16 58 -13.5t56 36t58 103.5t65 190q22 78 44 140t43.5 111t42.5 85.5t42 62.5l-68 -14q-42 -9 -86 -27.5
t-84 -45t-72 -61t-50 -74.5q-15 -33 -22.5 -62.5t-6 -53.5t12.5 -40.5t34 -22.5q5 -2 11.5 9t13.5 27.5t14 37t12.5 38.5t9.5 31t5 15q5 10 17 11.5t25.5 -3t26.5 -12.5t20 -16q-19 -50 -39.5 -82.5t-43 -52t-45.5 -28t-47 -9.5q-30 -1 -55.5 12t-38 41.5t-8.5 72t33 103.5
q24 51 67 88.5t94.5 64.5t107.5 44.5t106 26.5zM579 985q-6 -23 -17.5 -44.5t-26.5 -38t-32.5 -26.5t-35.5 -10q-36 0 -58 30.5t-28 79.5q-2 16 10 24.5t27.5 9.5t29.5 -6t16 -20q3 -27 11.5 -42t22.5 -15q15 0 32 13.5t26 46.5q3 10 7.5 15t9 5t7 -5.5t-0.5 -16.5z" />
    <glyph glyph-name="Iogonek" unicode="&#x12e;" horiz-adv-x="393" 
d="M420 787q23 5 43.5 7t38.5 4q23 23 46 35.5t47 18.5q33 8 54.5 6t32 -12t10.5 -28t-10 -41q-2 -4 -13.5 -2t-33.5 6q-11 2 -23.5 2t-27.5 -1q-15 -10 -35 -34.5t-44.5 -72t-53.5 -121.5t-63 -184q-37 -117 -81.5 -198.5t-89.5 -126.5t-86.5 -52.5t-72.5 23.5
q-12 13 -25 32.5t-19 50.5t-0.5 75t30.5 106l1 1q10 1 25 -1.5t28 -9t21 -16t5 -20.5q-1 -2 -6.5 -15.5t-13.5 -32.5t-16.5 -41t-14.5 -41.5t-8.5 -33.5t2.5 -16q30 -16 58 -13.5t56 36t58 103.5t65 190q22 78 44 140t43.5 111t42.5 85.5t42 62.5l-68 -14q-42 -9 -86 -27.5
t-84 -45t-72 -61t-50 -74.5q-15 -33 -22.5 -62.5t-6 -53.5t12.5 -40.5t34 -22.5q5 -2 11.5 9t13.5 27.5t14 37t12.5 38.5t9.5 31t5 15q5 10 17 11.5t25.5 -3t26.5 -12.5t20 -16q-19 -50 -39.5 -82.5t-43 -52t-45.5 -28t-47 -9.5q-30 -1 -55.5 12t-38 41.5t-8.5 72t33 103.5
q24 51 67 88.5t94.5 64.5t107.5 44.5t106 26.5zM109 17q19 11 22.5 0.5t-13.5 -21.5q-27 -17 -34 -36.5t-5 -37.5q2 -13 17.5 -20.5t42.5 -7.5q8 0 13.5 -13t6.5 -28.5t-3.5 -28.5t-15.5 -13q-49 1 -81.5 19.5t-36.5 54.5q-2 19 4 37.5t18 36t29 32t36 26.5z" />
    <glyph glyph-name="iogonek" unicode="&#x12f;" horiz-adv-x="191" 
d="M35 242q18 61 33 110t23 79q2 5 2.5 8t1.5 5q1 3 2 4q10 1 26 -1.5t29.5 -9t22 -15.5t5.5 -20q-1 -3 -11.5 -28t-24 -63.5t-27.5 -87t-22 -97.5q-5 -28 -4.5 -44t5 -22t13 -3.5t20.5 11.5q9 7 20 22t24 34.5t26.5 43t25.5 47.5q14 26 19 30t5 -10q0 -5 -3 -15t-12 -26
q-23 -40 -46.5 -77.5t-48.5 -63.5q-56 -61 -92 -46q-14 6 -23.5 23t-12.5 46.5t2.5 70.5t21.5 95zM254 535q-13 -20 -41.5 -29.5t-53.5 3.5q-26 13 -37 33t2 41q13 20 41.5 29.5t53.5 -3.5q26 -13 37 -33t-2 -41zM51 27q19 11 22.5 0.5t-13.5 -21.5q-27 -17 -34 -36.5
t-5 -37.5q2 -13 17.5 -20.5t42.5 -7.5q8 0 13.5 -13t6.5 -28.5t-3.5 -28.5t-15.5 -13q-49 1 -81.5 19.5t-36.5 54.5q-2 19 4 37.5t18 36t29 32t36 26.5z" />
    <glyph glyph-name="Idotaccent" unicode="&#x130;" horiz-adv-x="393" 
d="M420 787q23 5 43.5 7t38.5 4q23 23 46 35.5t47 18.5q33 8 54.5 6t32 -12t10.5 -28t-10 -41q-2 -4 -13.5 -2t-33.5 6q-11 2 -23.5 2t-27.5 -1q-15 -10 -35 -34.5t-44.5 -72t-53.5 -121.5t-63 -184q-37 -117 -81.5 -198.5t-89.5 -126.5t-86.5 -52.5t-72.5 23.5
q-12 13 -25 32.5t-19 50.5t-0.5 75t30.5 106l1 1q10 1 25 -1.5t28 -9t21 -16t5 -20.5q-1 -2 -6.5 -15.5t-13.5 -32.5t-16.5 -41t-14.5 -41.5t-8.5 -33.5t2.5 -16q30 -16 58 -13.5t56 36t58 103.5t65 190q22 78 44 140t43.5 111t42.5 85.5t42 62.5l-68 -14q-42 -9 -86 -27.5
t-84 -45t-72 -61t-50 -74.5q-15 -33 -22.5 -62.5t-6 -53.5t12.5 -40.5t34 -22.5q5 -2 11.5 9t13.5 27.5t14 37t12.5 38.5t9.5 31t5 15q5 10 17 11.5t25.5 -3t26.5 -12.5t20 -16q-19 -50 -39.5 -82.5t-43 -52t-45.5 -28t-47 -9.5q-30 -1 -55.5 12t-38 41.5t-8.5 72t33 103.5
q24 51 67 88.5t94.5 64.5t107.5 44.5t106 26.5zM565 909q-13 -20 -41.5 -29.5t-53.5 3.5q-26 13 -37 33t2 41q13 20 41.5 29.5t53.5 -3.5q26 -13 37 -33t-2 -41z" />
    <glyph glyph-name="dotlessi" unicode="&#x131;" horiz-adv-x="191" 
d="M35 242q18 61 33 110t23 79q2 5 2.5 8t1.5 5q1 3 2 4q10 1 26 -1.5t29.5 -9t22 -15.5t5.5 -20q-1 -3 -11.5 -28t-24 -63.5t-27.5 -87t-22 -97.5q-5 -28 -4.5 -44t5 -22t13 -3.5t20.5 11.5q9 7 20 22t24 34.5t26.5 43t25.5 47.5q14 26 19 30t5 -10q0 -5 -3 -15t-12 -26
q-23 -40 -46.5 -77.5t-48.5 -63.5q-56 -61 -92 -46q-14 6 -23.5 23t-12.5 46.5t2.5 70.5t21.5 95z" />
    <glyph glyph-name="Jcircumflex" unicode="&#x134;" horiz-adv-x="455" 
d="M435 370q-46 -165 -97 -297t-102.5 -215t-101.5 -110t-95 18q-29 29 -28.5 83t26.5 120l1 1q10 1 25 -1.5t28 -9t21 -15.5t5 -20q-1 -3 -14.5 -21t-28 -38.5t-24 -38.5t-2.5 -22q37 -19 70.5 9t69 100.5t74 187t84.5 269.5t89 251t84 149q-33 -6 -69 -15
q-42 -9 -86 -27.5t-83.5 -45t-71.5 -61t-51 -74.5q-15 -33 -22.5 -62.5t-6 -53.5t12.5 -40.5t34 -22.5q5 -2 12 9t14 27.5t13.5 37t12 38.5t9.5 31t5 15q5 10 17 11.5t26 -3t27 -12.5t20 -16h-1q-18 -50 -39 -82.5t-43 -52t-45 -28t-47 -9.5q-30 -1 -56 12t-38.5 41.5
t-8.5 72t33 103.5q25 51 67.5 88.5t94.5 64.5t107.5 44.5t105.5 26.5q23 5 44 7t39 4q23 23 45.5 35.5t46.5 18.5q33 8 54.5 6t32 -12t11 -28t-9.5 -41q-2 -4 -14 -2t-33 6q-11 2 -26 2.5t-32 -1.5q-16 -11 -35.5 -36t-43 -72.5t-50 -121.5t-56.5 -182zM514 886
q-8 -2 -12 -0.5t-5.5 5t-1.5 6.5t2 4q15 8 39 23t51 33.5t53.5 40.5t45.5 45q11 13 40.5 -29t70.5 -121q0 -1 1 -1q-9 -15 -22 -22.5t-25.5 -9t-21.5 2t-10 9.5q-5 26 -17 54.5t-28 52.5q-12 -8 -32.5 -21.5t-43.5 -28t-45.5 -27t-38.5 -16.5z" />
    <glyph glyph-name="jcircumflex" unicode="&#x135;" horiz-adv-x="173" 
d="M-18 17q25 66 46 133t36 124.5t25 99.5t15 57q2 5 2.5 8t1.5 5q1 3 1 4q10 1 26 -1.5t29.5 -9t22 -15.5t5.5 -20q-1 -3 -9 -26.5t-23.5 -70t-39.5 -118t-57 -170.5q-27 -84 -61.5 -139t-68.5 -84.5t-64.5 -33.5t-49.5 16q-29 29 -29 83t27 120v1q10 1 25 -1.5t28 -9
t21 -16t5 -20.5q-1 -2 -7.5 -11t-15.5 -21.5t-19 -26.5t-17.5 -26.5t-10.5 -22t2 -11.5q34 -18 70.5 33.5t83.5 169.5zM69 517q-8 -2 -12 -0.5t-5.5 5t-1.5 6.5t2 4q15 8 39 23t51 33.5t53.5 40.5t45.5 45q11 13 40.5 -29t70.5 -121q0 -1 1 -1q-9 -15 -22 -22.5t-25.5 -9
t-21.5 2t-10 9.5q-5 26 -17 54.5t-28 52.5q-12 -8 -32.5 -21.5t-43.5 -28t-45.5 -27t-38.5 -16.5z" />
    <glyph glyph-name="uni0136" unicode="&#x136;" horiz-adv-x="485" 
d="M318 189q37 -72 66 -97.5t43 -14.5q17 14 44 52.5t53 86.5q14 26 18.5 29.5t4.5 -10.5q0 -4 -2.5 -14t-11.5 -26q-23 -41 -47 -78t-48 -63q-28 -30 -51 -47t-41 -9q-12 5 -24 17.5t-26 36.5t-32 61t-43 91q-13 28 -30.5 38.5t-49.5 12.5q-7 -25 -13.5 -50t-13.5 -52
q-14 -54 -21 -83.5t-10 -45.5q-4 -18 -3 -24q-26 -5 -43 -1t-23 23t-1 55.5t22 97.5q42 152 70.5 257.5t48 178.5t32 122t21.5 88q0 1 17.5 -0.5t37 -7.5t34 -16.5t9.5 -26.5q-2 -5 -13 -33t-30.5 -85t-47.5 -146.5t-64 -217.5q49 5 100 46t97 110.5t84 164t63 205.5
q0 1 18 0.5t38 -5t34.5 -14.5t8.5 -28q-68 -208 -156 -335t-209 -162q25 -8 48 -26.5t42 -54.5zM269 -126q-8 -28 -29.5 -50.5t-48.5 -40.5q-13 -8 -23.5 -9.5t-17 0t-9 5.5t0.5 6q18 15 34 28.5t24.5 24t8 16.5t-15.5 6t-27 7.5t-18.5 19.5t-7 26.5t8.5 28.5q7 11 18 17
t24 7.5t26.5 -2t25.5 -10.5q24 -16 28.5 -36t-2.5 -44z" />
    <glyph glyph-name="uni0137" unicode="&#x137;" 
d="M74 -3q-26 -5 -41 1.5t-20 28.5t0.5 61t20.5 101q7 29 21.5 79.5t32 112t37 127.5t37 126t31 108.5t19.5 75.5q0 1 17.5 -1t37 -8t34 -16.5t9.5 -25.5q-2 -6 -11 -29t-23 -59.5t-31 -83.5t-34 -100q-20 -60 -37.5 -115.5t-31.5 -103.5q50 115 105.5 178.5t119.5 63.5
q40 0 56.5 -31t4.5 -76.5t-55 -97.5t-122 -95q-1 -1 1 -6q25 -50 42.5 -81t30.5 -47.5t22 -19.5t18 4q8 7 19.5 22t24 34.5t26 43t25.5 47.5q14 26 19 30t5 -10q0 -5 -3 -15t-12 -26q-23 -40 -46.5 -77.5t-47.5 -63.5q-57 -61 -93 -46q-12 5 -22 16t-22 33t-28.5 57.5
t-41.5 89.5l9 8q7 6 20.5 18.5t39.5 35.5q43 38 66 72.5t30 60.5t1 41.5t-19 15.5q-18 0 -44.5 -26t-57 -76t-63 -125t-62.5 -172q-5 -20 -7.5 -32t-4.5 -18q-2 -7 -2 -9zM234 -116q-8 -28 -29.5 -50.5t-48.5 -40.5q-13 -8 -23.5 -9.5t-17 0t-9 5.5t0.5 6q18 15 34 28.5
t24.5 24t8 16.5t-15.5 6t-27 7.5t-18.5 19.5t-7 26.5t8.5 28.5q7 11 18 17t24 7.5t26.5 -2t25.5 -10.5q24 -16 28.5 -36t-2.5 -44z" />
    <glyph glyph-name="kgreenlandic" unicode="&#x138;" 
d="M74 -3q-26 -5 -41 1.5t-20 28.5t0.5 61t20.5 101q11 44 21.5 91t20.5 94.5t19.5 92.5t18.5 85q0 1 17.5 -1t37 -8t34 -16.5t9.5 -25.5q-1 -3 -7.5 -23t-15.5 -50.5t-20 -67.5l-22 -74q49 111 103 171.5t117 60.5q40 0 56.5 -31t4.5 -76.5t-55 -97.5t-122 -95q-1 -1 1 -6
q25 -50 42.5 -81t30.5 -47.5t22 -19.5t18 4q8 7 19.5 22t24 34.5t26 43t25.5 47.5q14 26 19 30t5 -10q0 -5 -3 -15t-12 -26q-23 -40 -46.5 -77.5t-47.5 -63.5q-57 -61 -93 -46q-12 5 -22 16t-22 33t-28.5 57.5t-41.5 89.5l9 8q7 6 20.5 18.5t39.5 35.5q43 38 66 72.5
t30 60.5t1 41.5t-19 15.5q-18 0 -44.5 -26t-57 -76t-63 -125t-62.5 -172q-5 -20 -7.5 -32t-4.5 -18q-2 -7 -2 -9z" />
    <glyph glyph-name="Lacute" unicode="&#x139;" horiz-adv-x="469" 
d="M278 46q44 -22 80 -15.5t64.5 33.5t50 71t37.5 98q8 29 12 33.5t7 -9.5q1 -5 0 -15.5t-6 -27.5q-17 -50 -43.5 -99.5t-63.5 -83t-84 -43.5t-104 18q-29 14 -53 25.5t-43 19.5q-23 -26 -42 -37t-33 -12.5t-23.5 3.5t-12.5 11q-22 43 0.5 65t76.5 20q9 15 22 40.5
t29.5 65.5t36 96.5t43.5 132.5q37 121 83 203t92.5 126t89.5 50t74 -25q13 -13 24 -32.5t14.5 -50.5t-4 -75.5t-32.5 -105.5v-1q-11 -1 -25.5 2t-27.5 9t-21 15.5t-5 20.5q1 2 7.5 15.5t15.5 33t19 41.5t17.5 41.5t10.5 33t-2 16.5q-61 31 -123.5 -47t-123.5 -270
q-41 -131 -79 -214t-71 -132q26 -7 55 -17.5t61 -26.5zM399 824q-1 -2 -5 -1.5t-8 3t-5.5 7t1.5 11.5q8 16 28 37t43 40.5t44 35.5t31 21v1q15 -9 24 -22t12.5 -25.5t1.5 -22t-8 -10.5q-20 -4 -43 -11.5t-45 -17.5t-41 -21.5t-30 -24.5z" />
    <glyph glyph-name="lacute" unicode="&#x13a;" horiz-adv-x="189" 
d="M26 196q7 28 17.5 68.5t23 86t26 93.5t26.5 91q14 46 25 80.5t20 65t16.5 62t16.5 71.5q0 1 18.5 0.5t38.5 -5t34.5 -14.5t7.5 -28q0 -2 -9 -24.5t-23.5 -60t-32 -86t-34.5 -101.5q-18 -54 -35.5 -109t-32 -104.5t-25.5 -90t-15 -65.5q-5 -28 -4.5 -44t5 -22t13 -3.5
t20.5 11.5q7 6 18 20.5t24 34.5t27 44t27 48q14 26 19 30t5 -10q0 -5 -3 -15t-12 -26q-23 -40 -47 -77.5t-48 -63.5q-56 -61 -92 -46q-14 6 -21.5 22.5t-9 41.5t2.5 57t13 68zM231 872q-1 -2 -5 -1.5t-8 3t-5.5 7t1.5 11.5q8 16 28 37t43 40.5t44 35.5t31 21v1q15 -9 24 -22
t12.5 -25.5t1.5 -22t-8 -10.5q-20 -4 -43 -11.5t-45 -17.5t-41 -21.5t-30 -24.5z" />
    <glyph glyph-name="uni013B" unicode="&#x13b;" horiz-adv-x="469" 
d="M278 46q44 -22 80 -15.5t64.5 33.5t50 71t37.5 98q8 29 12 33.5t7 -9.5q1 -5 0 -15.5t-6 -27.5q-17 -50 -43.5 -99.5t-63.5 -83t-84 -43.5t-104 18q-29 14 -53 25.5t-43 19.5q-23 -26 -42 -37t-33 -12.5t-23.5 3.5t-12.5 11q-22 43 0.5 65t76.5 20q9 15 22 40.5
t29.5 65.5t36 96.5t43.5 132.5q37 121 83 203t92.5 126t89.5 50t74 -25q13 -13 24 -32.5t14.5 -50.5t-4 -75.5t-32.5 -105.5v-1q-11 -1 -25.5 2t-27.5 9t-21 15.5t-5 20.5q1 2 7.5 15.5t15.5 33t19 41.5t17.5 41.5t10.5 33t-2 16.5q-61 31 -123.5 -47t-123.5 -270
q-41 -131 -79 -214t-71 -132q26 -7 55 -17.5t61 -26.5zM275 -134q-8 -28 -29.5 -50.5t-48.5 -40.5q-13 -8 -23.5 -9.5t-17 0t-9 5.5t0.5 6q18 15 34 28.5t24.5 24t8 16.5t-15.5 6t-27 7.5t-18.5 19.5t-7 26.5t8.5 28.5q7 11 18 17t24 7.5t26.5 -2t25.5 -10.5
q24 -16 28.5 -36t-2.5 -44z" />
    <glyph glyph-name="uni013C" unicode="&#x13c;" horiz-adv-x="189" 
d="M26 196q7 28 17.5 68.5t23 86t26 93.5t26.5 91q14 46 25 80.5t20 65t16.5 62t16.5 71.5q0 1 18.5 0.5t38.5 -5t34.5 -14.5t7.5 -28q0 -2 -9 -24.5t-23.5 -60t-32 -86t-34.5 -101.5q-18 -54 -35.5 -109t-32 -104.5t-25.5 -90t-15 -65.5q-5 -28 -4.5 -44t5 -22t13 -3.5
t20.5 11.5q7 6 18 20.5t24 34.5t27 44t27 48q14 26 19 30t5 -10q0 -5 -3 -15t-12 -26q-23 -40 -47 -77.5t-48 -63.5q-56 -61 -92 -46q-14 6 -21.5 22.5t-9 41.5t2.5 57t13 68zM72 -131q-8 -28 -29.5 -50.5t-48.5 -40.5q-13 -8 -23.5 -9.5t-17 0t-9 5.5t0.5 6q18 15 34 28.5
t24.5 24t8 16.5t-15.5 6t-27 7.5t-18.5 19.5t-7 26.5t8.5 28.5q7 11 18 17t24 7.5t26.5 -2t25.5 -10.5q24 -16 28.5 -36t-2.5 -44z" />
    <glyph glyph-name="Lcaron" unicode="&#x13d;" horiz-adv-x="469" 
d="M278 46q44 -22 80 -15.5t64.5 33.5t50 71t37.5 98q8 29 12 33.5t7 -9.5q1 -5 0 -15.5t-6 -27.5q-17 -50 -43.5 -99.5t-63.5 -83t-84 -43.5t-104 18q-29 14 -53 25.5t-43 19.5q-23 -26 -42 -37t-33 -12.5t-23.5 3.5t-12.5 11q-22 43 0.5 65t76.5 20q9 15 22 40.5
t29.5 65.5t36 96.5t43.5 132.5q37 121 83 203t92.5 126t89.5 50t74 -25q13 -13 24 -32.5t14.5 -50.5t-4 -75.5t-32.5 -105.5v-1q-11 -1 -25.5 2t-27.5 9t-21 15.5t-5 20.5q1 2 7.5 15.5t15.5 33t19 41.5t17.5 41.5t10.5 33t-2 16.5q-61 31 -123.5 -47t-123.5 -270
q-41 -131 -79 -214t-71 -132q26 -7 55 -17.5t61 -26.5zM640 702q23 28 27 74t-16 92q-3 5 3.5 12t18.5 11.5t28 5t32 -6.5v-1q4 -24 -1.5 -54.5t-17 -60t-26 -53.5t-29.5 -33q-7 -5 -11.5 -4t-7 4.5t-2.5 7.5t2 6z" />
    <glyph glyph-name="lcaron" unicode="&#x13e;" horiz-adv-x="203" 
d="M26 196q7 28 17.5 68.5t23 86t26 93.5t26.5 91q14 46 25 80.5t20 65t16.5 62t16.5 71.5q0 1 18.5 0.5t38.5 -5t34.5 -14.5t7.5 -28q0 -2 -9 -24.5t-23.5 -60t-32 -86t-34.5 -101.5q-18 -54 -35.5 -109t-32 -104.5t-25.5 -90t-15 -65.5q-5 -28 -4.5 -44t5 -22t13 -3.5
t20.5 11.5q7 6 18 20.5t24 34.5t27 44t27 48q14 26 19 30t5 -10q0 -5 -3 -15t-12 -26q-23 -40 -47 -77.5t-48 -63.5q-56 -61 -92 -46q-14 6 -21.5 22.5t-9 41.5t2.5 57t13 68zM326 641q23 28 27 74t-16 92q-3 5 3.5 12t18.5 11.5t28 5t32 -6.5v-1q4 -24 -1.5 -54.5t-17 -60
t-26 -53.5t-29.5 -33q-7 -5 -11.5 -4t-7 4.5t-2.5 7.5t2 6z" />
    <glyph glyph-name="Ldot" unicode="&#x13f;" horiz-adv-x="469" 
d="M278 46q44 -22 80 -15.5t64.5 33.5t50 71t37.5 98q8 29 12 33.5t7 -9.5q1 -5 0 -15.5t-6 -27.5q-17 -50 -43.5 -99.5t-63.5 -83t-84 -43.5t-104 18q-29 14 -53 25.5t-43 19.5q-23 -26 -42 -37t-33 -12.5t-23.5 3.5t-12.5 11q-22 43 0.5 65t76.5 20q9 15 22 40.5
t29.5 65.5t36 96.5t43.5 132.5q37 121 83 203t92.5 126t89.5 50t74 -25q13 -13 24 -32.5t14.5 -50.5t-4 -75.5t-32.5 -105.5v-1q-11 -1 -25.5 2t-27.5 9t-21 15.5t-5 20.5q1 2 7.5 15.5t15.5 33t19 41.5t17.5 41.5t10.5 33t-2 16.5q-61 31 -123.5 -47t-123.5 -270
q-41 -131 -79 -214t-71 -132q26 -7 55 -17.5t61 -26.5zM476 321q-13 -20 -41.5 -29.5t-53.5 3.5q-26 13 -37 33t2 41q13 20 41.5 29.5t53.5 -3.5q26 -13 37 -33t-2 -41z" />
    <glyph glyph-name="ldot" unicode="&#x140;" horiz-adv-x="189" 
d="M26 196q7 28 17.5 68.5t23 86t26 93.5t26.5 91q14 46 25 80.5t20 65t16.5 62t16.5 71.5q0 1 18.5 0.5t38.5 -5t34.5 -14.5t7.5 -28q0 -2 -9 -24.5t-23.5 -60t-32 -86t-34.5 -101.5q-18 -54 -35.5 -109t-32 -104.5t-25.5 -90t-15 -65.5q-5 -28 -4.5 -44t5 -22t13 -3.5
t20.5 11.5q7 6 18 20.5t24 34.5t27 44t27 48q14 26 19 30t5 -10q0 -5 -3 -15t-12 -26q-23 -40 -47 -77.5t-48 -63.5q-56 -61 -92 -46q-14 6 -21.5 22.5t-9 41.5t2.5 57t13 68zM401 543q-13 -20 -41.5 -29.5t-53.5 3.5q-26 13 -37 33t2 41q13 20 41.5 29.5t53.5 -3.5
q26 -13 37 -33t-2 -41z" />
    <glyph glyph-name="Lslash" unicode="&#x141;" horiz-adv-x="469" 
d="M427 488q-4 -24 -34.5 -57t-77 -69t-104 -72.5t-115.5 -67.5h-1q-9 6 -15 17.5t-7.5 25t2 26t13.5 18.5q1 1 25.5 15t60.5 33.5t78 42.5t79 43t63.5 34t31.5 17q1 2 1.5 0.5t-0.5 -6.5zM278 46q44 -22 80 -15.5t64.5 33.5t50 71t37.5 98q8 29 12 33.5t7 -9.5
q1 -5 0 -15.5t-6 -27.5q-17 -50 -43.5 -99.5t-63.5 -83t-84 -43.5t-104 18q-29 14 -53 25.5t-43 19.5q-23 -26 -42 -37t-33 -12.5t-23.5 3.5t-12.5 11q-22 43 0.5 65t76.5 20q9 15 22 40.5t29.5 65.5t36 96.5t43.5 132.5q37 121 83 203t92.5 126t89.5 50t74 -25
q13 -13 24 -32.5t14.5 -50.5t-4 -75.5t-32.5 -105.5v-1q-11 -1 -25.5 2t-27.5 9t-21 15.5t-5 20.5q1 2 7.5 15.5t15.5 33t19 41.5t17.5 41.5t10.5 33t-2 16.5q-61 31 -123.5 -47t-123.5 -270q-41 -131 -79 -214t-71 -132q26 -7 55 -17.5t61 -26.5z" />
    <glyph glyph-name="lslash" unicode="&#x142;" horiz-adv-x="189" 
d="M381 653q-10 -22 -48 -46t-92 -47.5t-119 -43.5t-129 -35h-1q-7 8 -10 21t-1 26.5t8.5 24.5t17.5 15q2 1 29 7.5t67 16t86.5 21t87.5 21t70.5 16.5t34.5 9q3 0 -1 -6zM26 196q7 28 17.5 68.5t23 86t26 93.5t26.5 91q14 46 25 80.5t20 65t16.5 62t16.5 71.5q0 1 18.5 0.5
t38.5 -5t34.5 -14.5t7.5 -28q0 -2 -9 -24.5t-23.5 -60t-32 -86t-34.5 -101.5q-18 -54 -35.5 -109t-32 -104.5t-25.5 -90t-15 -65.5q-5 -28 -4.5 -44t5 -22t13 -3.5t20.5 11.5q7 6 18 20.5t24 34.5t27 44t27 48q14 26 19 30t5 -10q0 -5 -3 -15t-12 -26q-23 -40 -47 -77.5
t-48 -63.5q-56 -61 -92 -46q-14 6 -21.5 22.5t-9 41.5t2.5 57t13 68z" />
    <glyph glyph-name="Nacute" unicode="&#x143;" horiz-adv-x="503" 
d="M61 0q-26 -5 -38 -1t-12.5 23t9 55.5t26.5 97.5q42 152 71 257.5t48.5 178.5t32 122t21.5 88q0 1 10 0t24 -4.5t28.5 -9t24.5 -12.5q14 -9 14 -23q-1 -87 0.5 -166t5.5 -155t10 -151.5t14 -155.5l9 31q28 101 49.5 179.5t38 139t29 107t22 84.5t17.5 70.5t16 65.5
q0 1 18.5 -1t39 -8.5t35 -17t6.5 -24.5q-16 -29 -32 -60.5t-33 -70.5t-35.5 -88t-39.5 -113t-45.5 -145t-52.5 -184q-6 -21 -10.5 -40.5t-7.5 -35t-5 -25l-2 -9.5l-11 -3.5t-24.5 -3.5t-25.5 7t-15 28q-2 15 -6 48t-9.5 78t-11.5 99.5t-12 111.5t-12 115t-11 110
q-26 -70 -59 -175.5t-74 -260.5q-14 -53 -21 -83.5t-10 -46t-3.5 -19.5zM418 820q-1 -2 -5 -1.5t-8 3t-5.5 7t1.5 11.5q8 16 28 37t43 40.5t44 35.5t31 21v1q15 -9 24 -22t12.5 -25.5t1.5 -22t-8 -10.5q-20 -4 -43 -11.5t-45 -17.5t-41 -21.5t-30 -24.5z" />
    <glyph glyph-name="nacute" unicode="&#x144;" 
d="M74 -3q-26 -5 -41.5 1.5t-20 28.5t1 61t20.5 101q11 44 25 93t28.5 97.5t27.5 95.5t22 86q0 1 17 0t35.5 -6.5t32.5 -15t9 -25.5q-2 -5 -9 -19.5t-18 -43t-26.5 -72t-33.5 -105.5q23 51 48 95t51 77t52 51.5t51 18.5q30 0 43.5 -18.5t13 -53t-12 -83t-30.5 -108.5
q-19 -57 -25 -97t-3.5 -62.5t11.5 -28.5t21 3q9 7 20 22t24 34.5t26.5 43t25.5 47.5q14 26 19 30t5 -10q0 -5 -3 -15t-12 -26q-23 -40 -46.5 -77.5t-48.5 -63.5q-56 -61 -92 -46q-12 5 -21 23t-11.5 48.5t3 74.5t23.5 100q17 54 30 92t19.5 62.5t4.5 36t-15 11.5
q-19 0 -46 -26t-57.5 -77.5t-63.5 -127t-63 -174.5q-5 -18 -7 -29t-3 -16q-1 -6 -1 -8zM298 563q-1 -2 -5 -1.5t-8 3t-5.5 7t1.5 11.5q8 16 28 37t43 40.5t44 35.5t31 21v1q15 -9 24 -22t12.5 -25.5t1.5 -22t-8 -10.5q-20 -4 -43 -11.5t-45 -17.5t-41 -21.5t-30 -24.5z" />
    <glyph glyph-name="uni0145" unicode="&#x145;" horiz-adv-x="503" 
d="M61 0q-26 -5 -38 -1t-12.5 23t9 55.5t26.5 97.5q42 152 71 257.5t48.5 178.5t32 122t21.5 88q0 1 10 0t24 -4.5t28.5 -9t24.5 -12.5q14 -9 14 -23q-1 -87 0.5 -166t5.5 -155t10 -151.5t14 -155.5l9 31q28 101 49.5 179.5t38 139t29 107t22 84.5t17.5 70.5t16 65.5
q0 1 18.5 -1t39 -8.5t35 -17t6.5 -24.5q-16 -29 -32 -60.5t-33 -70.5t-35.5 -88t-39.5 -113t-45.5 -145t-52.5 -184q-6 -21 -10.5 -40.5t-7.5 -35t-5 -25l-2 -9.5l-11 -3.5t-24.5 -3.5t-25.5 7t-15 28q-2 15 -6 48t-9.5 78t-11.5 99.5t-12 111.5t-12 115t-11 110
q-26 -70 -59 -175.5t-74 -260.5q-14 -53 -21 -83.5t-10 -46t-3.5 -19.5zM251 -134q-8 -28 -29.5 -50.5t-48.5 -40.5q-13 -8 -23.5 -9.5t-17 0t-9 5.5t0.5 6q18 15 34 28.5t24.5 24t8 16.5t-15.5 6t-27 7.5t-18.5 19.5t-7 26.5t8.5 28.5q7 11 18 17t24 7.5t26.5 -2
t25.5 -10.5q24 -16 28.5 -36t-2.5 -44z" />
    <glyph glyph-name="uni0146" unicode="&#x146;" 
d="M74 -3q-26 -5 -41.5 1.5t-20 28.5t1 61t20.5 101q11 44 25 93t28.5 97.5t27.5 95.5t22 86q0 1 17 0t35.5 -6.5t32.5 -15t9 -25.5q-2 -5 -9 -19.5t-18 -43t-26.5 -72t-33.5 -105.5q23 51 48 95t51 77t52 51.5t51 18.5q30 0 43.5 -18.5t13 -53t-12 -83t-30.5 -108.5
q-19 -57 -25 -97t-3.5 -62.5t11.5 -28.5t21 3q9 7 20 22t24 34.5t26.5 43t25.5 47.5q14 26 19 30t5 -10q0 -5 -3 -15t-12 -26q-23 -40 -46.5 -77.5t-48.5 -63.5q-56 -61 -92 -46q-12 5 -21 23t-11.5 48.5t3 74.5t23.5 100q17 54 30 92t19.5 62.5t4.5 36t-15 11.5
q-19 0 -46 -26t-57.5 -77.5t-63.5 -127t-63 -174.5q-5 -18 -7 -29t-3 -16q-1 -6 -1 -8zM210 -102q-8 -28 -29.5 -50.5t-48.5 -40.5q-13 -8 -23.5 -9.5t-17 0t-9 5.5t0.5 6q18 15 34 28.5t24.5 24t8 16.5t-15.5 6t-27 7.5t-18.5 19.5t-7 26.5t8.5 28.5q7 11 18 17t24 7.5
t26.5 -2t25.5 -10.5q24 -16 28.5 -36t-2.5 -44z" />
    <glyph glyph-name="Ncaron" unicode="&#x147;" horiz-adv-x="503" 
d="M61 0q-26 -5 -38 -1t-12.5 23t9 55.5t26.5 97.5q42 152 71 257.5t48.5 178.5t32 122t21.5 88q0 1 10 0t24 -4.5t28.5 -9t24.5 -12.5q14 -9 14 -23q-1 -87 0.5 -166t5.5 -155t10 -151.5t14 -155.5l9 31q28 101 49.5 179.5t38 139t29 107t22 84.5t17.5 70.5t16 65.5
q0 1 18.5 -1t39 -8.5t35 -17t6.5 -24.5q-16 -29 -32 -60.5t-33 -70.5t-35.5 -88t-39.5 -113t-45.5 -145t-52.5 -184q-6 -21 -10.5 -40.5t-7.5 -35t-5 -25l-2 -9.5l-11 -3.5t-24.5 -3.5t-25.5 7t-15 28q-2 15 -6 48t-9.5 78t-11.5 99.5t-12 111.5t-12 115t-11 110
q-26 -70 -59 -175.5t-74 -260.5q-14 -53 -21 -83.5t-10 -46t-3.5 -19.5zM571 993q8 2 12 0.5t5.5 -4.5t1 -6.5t-1.5 -4.5q-29 -16 -65 -56t-74 -86q-4 -5 -8.5 -5t-12.5 4.5t-19.5 15t-28.5 27.5q-14 14 -28 30.5t-26 31.5t-21 27.5t-12 19.5l-1 1q9 15 21.5 22t23.5 8.5
t19.5 -1.5t9.5 -9q5 -26 17 -54.5t28 -53.5q12 8 32.5 22t43.5 28.5t45.5 26.5t38.5 16z" />
    <glyph glyph-name="ncaron" unicode="&#x148;" 
d="M74 -3q-26 -5 -41.5 1.5t-20 28.5t1 61t20.5 101q11 44 25 93t28.5 97.5t27.5 95.5t22 86q0 1 17 0t35.5 -6.5t32.5 -15t9 -25.5q-2 -5 -9 -19.5t-18 -43t-26.5 -72t-33.5 -105.5q23 51 48 95t51 77t52 51.5t51 18.5q30 0 43.5 -18.5t13 -53t-12 -83t-30.5 -108.5
q-19 -57 -25 -97t-3.5 -62.5t11.5 -28.5t21 3q9 7 20 22t24 34.5t26.5 43t25.5 47.5q14 26 19 30t5 -10q0 -5 -3 -15t-12 -26q-23 -40 -46.5 -77.5t-48.5 -63.5q-56 -61 -92 -46q-12 5 -21 23t-11.5 48.5t3 74.5t23.5 100q17 54 30 92t19.5 62.5t4.5 36t-15 11.5
q-19 0 -46 -26t-57.5 -77.5t-63.5 -127t-63 -174.5q-5 -18 -7 -29t-3 -16q-1 -6 -1 -8zM443 727q8 2 12 0.5t5.5 -4.5t1 -6.5t-1.5 -4.5q-29 -16 -65 -56t-74 -86q-4 -5 -8.5 -5t-12.5 4.5t-19.5 15t-28.5 27.5q-14 14 -28 30.5t-26 31.5t-21 27.5t-12 19.5l-1 1
q9 15 21.5 22t23.5 8.5t19.5 -1.5t9.5 -9q5 -26 17 -54.5t28 -53.5q12 8 32.5 22t43.5 28.5t45.5 26.5t38.5 16z" />
    <glyph glyph-name="napostrophe" unicode="&#x149;" 
d="M74 -3q-26 -5 -41.5 1.5t-20 28.5t1 61t20.5 101q11 44 25 93t28.5 97.5t27.5 95.5t22 86q0 1 17 0t35.5 -6.5t32.5 -15t9 -25.5q-2 -5 -9 -19.5t-18 -43t-26.5 -72t-33.5 -105.5q23 51 48 95t51 77t52 51.5t51 18.5q30 0 43.5 -18.5t13 -53t-12 -83t-30.5 -108.5
q-19 -57 -25 -97t-3.5 -62.5t11.5 -28.5t21 3q9 7 20 22t24 34.5t26.5 43t25.5 47.5q14 26 19 30t5 -10q0 -5 -3 -15t-12 -26q-23 -40 -46.5 -77.5t-48.5 -63.5q-56 -61 -92 -46q-12 5 -21 23t-11.5 48.5t3 74.5t23.5 100q17 54 30 92t19.5 62.5t4.5 36t-15 11.5
q-19 0 -46 -26t-57.5 -77.5t-63.5 -127t-63 -174.5q-5 -18 -7 -29t-3 -16q-1 -6 -1 -8zM380 673q-8 -28 -29.5 -50.5t-48.5 -40.5q-13 -8 -23.5 -9.5t-17 0t-9 5.5t0.5 6q18 15 34 28.5t24.5 24t8 16.5t-15.5 6t-27 7.5t-18.5 19.5t-7 26.5t8.5 28.5q7 11 18 17t24 7.5
t26.5 -2t25.5 -10.5q24 -16 28.5 -36t-2.5 -44z" />
    <glyph glyph-name="Omacron" unicode="&#x14c;" horiz-adv-x="446" 
d="M466 371q-33 -105 -80 -176.5t-97.5 -114.5t-98.5 -61.5t-82 -18.5q-39 0 -62.5 38t-31 100t1 140t32.5 158q33 106 75.5 178t89.5 115.5t94.5 61.5t89.5 17q52 -2 67 -35.5t-5 -90.5q21 -14 32.5 -37.5t13 -60.5t-7.5 -89t-31 -124zM379 371q34 117 53.5 185t13.5 96
q-19 -2 -36 2t-29 12t-16 18t3 19q11 16 18 30t6 24t-11.5 15t-33.5 4q-62 -4 -115.5 -93t-99.5 -247q-26 -88 -37 -161.5t-8 -126t21 -82t51 -29.5q30 0 59.5 23t57.5 66t54 105t49 140zM585 913q-32 -38 -109 -54t-211 -11h-1q-5 9 -4 22.5t6 26t14 21.5t21 10
q2 0 22.5 -0.5t50.5 -1.5t65 -2t66 -2.5t53.5 -2t28.5 -0.5q4 0 -2 -6z" />
    <glyph glyph-name="omacron" unicode="&#x14d;" horiz-adv-x="381" 
d="M446 254q-14 -22 -45 -46.5t-69 -32.5q-22 -45 -49 -78t-56 -54.5t-59 -32t-57 -10.5q-33 0 -56 22.5t-34 59t-10 84t16 97.5q24 76 61 130t75.5 85t72 37.5t49.5 -11.5q5 -7 10.5 -14t10.5 -15q3 1 8 1q30 0 47 -16.5t22.5 -46t0 -70.5t-20.5 -90q-5 -14 -9.5 -27
t-9.5 -25q29 6 54 27t39 47t19 30t5 -10q0 -5 -2.5 -15t-12.5 -26zM128 28q16 0 33 12.5t34 34t32.5 51t29.5 62.5q-19 13 -29 35.5t-13 50t0.5 57t12 56t22.5 47.5t32 32q-4 4 -6 5q-19 10 -42 -2.5t-45.5 -41.5t-43 -71.5t-34.5 -92.5q-13 -44 -17.5 -86t-2 -75t12 -53.5
t24.5 -20.5zM292 445q-11 0 -22 -26.5t-17 -62.5t-3 -73.5t21 -59.5l9 30q18 66 27 113t1 67l-5 7q-5 5 -11 5zM496 641q-32 -38 -109 -54t-211 -11h-1q-5 9 -4 22.5t6 26t14 21.5t21 10q2 0 22.5 -0.5t50.5 -1.5t65 -2t66 -2.5t53.5 -2t28.5 -0.5q4 0 -2 -6z" />
    <glyph glyph-name="Obreve" unicode="&#x14e;" horiz-adv-x="446" 
d="M466 371q-33 -105 -80 -176.5t-97.5 -114.5t-98.5 -61.5t-82 -18.5q-39 0 -62.5 38t-31 100t1 140t32.5 158q33 106 75.5 178t89.5 115.5t94.5 61.5t89.5 17q52 -2 67 -35.5t-5 -90.5q21 -14 32.5 -37.5t13 -60.5t-7.5 -89t-31 -124zM379 371q34 117 53.5 185t13.5 96
q-19 -2 -36 2t-29 12t-16 18t3 19q11 16 18 30t6 24t-11.5 15t-33.5 4q-62 -4 -115.5 -93t-99.5 -247q-26 -88 -37 -161.5t-8 -126t21 -82t51 -29.5q30 0 59.5 23t57.5 66t54 105t49 140zM515 976q-6 -23 -17.5 -44.5t-26.5 -38t-32.5 -26.5t-35.5 -10q-36 0 -58 30.5
t-28 79.5q-2 16 10 24.5t27.5 9.5t29.5 -6t16 -20q3 -27 11.5 -42t22.5 -15q15 0 32 13.5t26 46.5q3 10 7.5 15t9 5t7 -5.5t-0.5 -16.5z" />
    <glyph glyph-name="obreve" unicode="&#x14f;" horiz-adv-x="381" 
d="M446 254q-14 -22 -45 -46.5t-69 -32.5q-22 -45 -49 -78t-56 -54.5t-59 -32t-57 -10.5q-33 0 -56 22.5t-34 59t-10 84t16 97.5q24 76 61 130t75.5 85t72 37.5t49.5 -11.5q5 -7 10.5 -14t10.5 -15q3 1 8 1q30 0 47 -16.5t22.5 -46t0 -70.5t-20.5 -90q-5 -14 -9.5 -27
t-9.5 -25q29 6 54 27t39 47t19 30t5 -10q0 -5 -2.5 -15t-12.5 -26zM128 28q16 0 33 12.5t34 34t32.5 51t29.5 62.5q-19 13 -29 35.5t-13 50t0.5 57t12 56t22.5 47.5t32 32q-4 4 -6 5q-19 10 -42 -2.5t-45.5 -41.5t-43 -71.5t-34.5 -92.5q-13 -44 -17.5 -86t-2 -75t12 -53.5
t24.5 -20.5zM292 445q-11 0 -22 -26.5t-17 -62.5t-3 -73.5t21 -59.5l9 30q18 66 27 113t1 67l-5 7q-5 5 -11 5zM422 669q-6 -23 -17.5 -44.5t-26.5 -38t-32.5 -26.5t-35.5 -10q-36 0 -58 30.5t-28 79.5q-2 16 10 24.5t27.5 9.5t29.5 -6t16 -20q3 -27 11.5 -42t22.5 -15
q15 0 32 13.5t26 46.5q3 10 7.5 15t9 5t7 -5.5t-0.5 -16.5z" />
    <glyph glyph-name="Ohungarumlaut" unicode="&#x150;" horiz-adv-x="446" 
d="M466 371q-33 -105 -80 -176.5t-97.5 -114.5t-98.5 -61.5t-82 -18.5q-39 0 -62.5 38t-31 100t1 140t32.5 158q33 106 75.5 178t89.5 115.5t94.5 61.5t89.5 17q52 -2 67 -35.5t-5 -90.5q21 -14 32.5 -37.5t13 -60.5t-7.5 -89t-31 -124zM379 371q34 117 53.5 185t13.5 96
q-19 -2 -36 2t-29 12t-16 18t3 19q11 16 18 30t6 24t-11.5 15t-33.5 4q-62 -4 -115.5 -93t-99.5 -247q-26 -88 -37 -161.5t-8 -126t21 -82t51 -29.5q30 0 59.5 23t57.5 66t54 105t49 140zM311 835q-1 -2 -5 -2.5t-8 0.5t-7 5t-1 12q3 17 17 42.5t30.5 51t33 46t24.5 28.5v1
q17 -5 29 -15.5t18.5 -22t7.5 -20.5t-5 -12q-18 -9 -38.5 -22t-39 -28.5t-34 -32t-22.5 -31.5zM451 835q-1 -2 -5 -2.5t-8 0.5t-7 5t-1 12q3 17 17 42.5t30.5 51t33 46t24.5 28.5v1q17 -5 29 -15.5t18.5 -22t7.5 -20.5t-5 -12q-18 -9 -38.5 -22t-39 -28.5t-34 -32
t-22.5 -31.5z" />
    <glyph glyph-name="ohungarumlaut" unicode="&#x151;" horiz-adv-x="381" 
d="M446 254q-14 -22 -45 -46.5t-69 -32.5q-22 -45 -49 -78t-56 -54.5t-59 -32t-57 -10.5q-33 0 -56 22.5t-34 59t-10 84t16 97.5q24 76 61 130t75.5 85t72 37.5t49.5 -11.5q5 -7 10.5 -14t10.5 -15q3 1 8 1q30 0 47 -16.5t22.5 -46t0 -70.5t-20.5 -90q-5 -14 -9.5 -27
t-9.5 -25q29 6 54 27t39 47t19 30t5 -10q0 -5 -2.5 -15t-12.5 -26zM128 28q16 0 33 12.5t34 34t32.5 51t29.5 62.5q-19 13 -29 35.5t-13 50t0.5 57t12 56t22.5 47.5t32 32q-4 4 -6 5q-19 10 -42 -2.5t-45.5 -41.5t-43 -71.5t-34.5 -92.5q-13 -44 -17.5 -86t-2 -75t12 -53.5
t24.5 -20.5zM292 445q-11 0 -22 -26.5t-17 -62.5t-3 -73.5t21 -59.5l9 30q18 66 27 113t1 67l-5 7q-5 5 -11 5zM203 536q-1 -2 -5 -2.5t-8 0.5t-7 5t-1 12q3 17 17 42.5t30.5 51t33 46t24.5 28.5v1q17 -5 29 -15.5t18.5 -22t7.5 -20.5t-5 -12q-18 -9 -38.5 -22t-39 -28.5
t-34 -32t-22.5 -31.5zM343 536q-1 -2 -5 -2.5t-8 0.5t-7 5t-1 12q3 17 17 42.5t30.5 51t33 46t24.5 28.5v1q17 -5 29 -15.5t18.5 -22t7.5 -20.5t-5 -12q-18 -9 -38.5 -22t-39 -28.5t-34 -32t-22.5 -31.5z" />
    <glyph glyph-name="OE" unicode="&#x152;" horiz-adv-x="743" 
d="M669 441h-15.5t-15.5 2q-21 -2 -45 -12.5t-47.5 -31.5t-43.5 -53t-32 -75q-14 -48 -14.5 -90t10 -73t30 -49t45.5 -18q21 0 46.5 12t52 34.5t52.5 55t47 72.5q14 26 19 30t5 -10q0 -5 -3 -14.5t-12 -25.5q-21 -38 -48 -75t-58.5 -66t-67 -47t-73.5 -18q-56 0 -90.5 37.5
t-41.5 101.5q-33 -35 -67.5 -59.5t-66.5 -39.5t-60 -22t-49 -7q-39 0 -66.5 38.5t-40 100.5t-8 140t29.5 158q33 105 79.5 177t98 115.5t103 61.5t93.5 17q53 -2 66.5 -36t-6.5 -91q20 -17 31 -35l1 2q15 60 48.5 98t71.5 55.5t74 14.5t58 -25q16 -17 28 -39t15 -51
t-4 -67.5t-27 -87.5l-1 -1q-11 -1 -25.5 2t-27.5 9t-21 15.5t-4 20.5q0 2 6 14t14 29t17 36.5t15 37t8.5 29.5t-2.5 15q-21 11 -46 8t-47.5 -16.5t-40.5 -37.5t-26 -55q-9 -36 -9.5 -67t6 -54.5t19.5 -37t33 -13.5q17 0 32 -0.5t32 -0.5q1 0 2 -6t-1.5 -13t-10.5 -13t-24 -6
zM401 312q5 14 10 29t10 31q35 119 44.5 186t-1.5 95v-1q-19 -2 -36 2.5t-29 12.5t-16.5 18t2.5 19q12 16 18.5 29.5t5.5 23.5t-11.5 15t-32.5 4q-31 -2 -64 -25.5t-64.5 -67t-60.5 -105.5t-51 -141q-26 -89 -33.5 -162.5t0 -126t29.5 -82t55 -29.5q50 0 107 61.5t103 173.5
zM588 458q-30 14 -55 40q-2 -14 -4 -29t-6 -31q34 15 65 20z" />
    <glyph glyph-name="oe" unicode="&#x153;" horiz-adv-x="592" 
d="M606 410q-5 -24 -27 -54.5t-56 -63t-76.5 -65.5t-88.5 -63q-3 -48 8 -78t34 -34q16 -3 39 7t49.5 31t52.5 52.5t48 72.5q14 26 18.5 30t4.5 -10q0 -5 -3 -15t-12 -26q-21 -38 -49.5 -73t-60 -62t-64 -43t-63.5 -16q-33 0 -54 22t-29 58q-38 -42 -78.5 -61t-78.5 -19
q-32 0 -55 22.5t-34 59t-10 84t16 97.5q24 76 61 130t75 85t71.5 37.5t49.5 -11.5q6 -7 11.5 -14t10.5 -15q2 1 8 1q45 0 62 -41q24 27 48.5 45t47 27t40 8t28.5 -11q5 -5 15.5 -14.5t20.5 -21.5t16.5 -27t3.5 -31zM138 28q15 0 30.5 10.5t31.5 29.5t30.5 44t27.5 55
q-17 13 -25.5 36.5t-10.5 52.5t2.5 61t14 61t23.5 52t31 35l-7 6q-19 10 -42 -2.5t-45.5 -41.5t-43 -71.5t-34.5 -92.5q-13 -44 -17.5 -86t-2 -75t12 -53.5t24.5 -20.5zM302 445q-7 0 -15 -14t-15 -36.5t-12.5 -50t-6.5 -54.5t3 -50.5t16 -37.5q5 12 9 24.5t8 26.5
q19 66 28 113t1 67l-5 7q-5 5 -11 5zM376 263q-6 -20 -10 -38t-6 -35q46 35 84.5 80.5t64 87.5t35 73.5t-2.5 37.5q-15 8 -38 -7t-47 -44.5t-45.5 -70t-34.5 -84.5z" />
    <glyph glyph-name="Racute" unicode="&#x154;" horiz-adv-x="465" 
d="M35 175q12 43 24.5 86.5t29.5 105.5t42 152.5t62 227.5q-35 -17 -69 -43t-64 -62q-3 -4 -7 8t-6.5 28.5t-3.5 31.5t2 18q13 13 42.5 29t70 30t88 24t97.5 10q38 0 73 -12.5t58.5 -39.5t30 -69t-12.5 -102q-28 -85 -96 -152t-162 -101q24 -14 46 -51t50 -112
q14 -38 26.5 -62.5t23.5 -37.5t20 -15.5t16 2.5q9 7 20 21.5t24 34.5t26 43.5t26 47.5q14 26 18.5 29.5t4.5 -10.5q0 -4 -2.5 -14t-11.5 -26q-23 -41 -47 -78t-48 -63q-56 -61 -92 -46q-12 5 -22 15.5t-21.5 32.5t-24.5 58.5t-31 92.5q-15 47 -34 79.5t-42 38.5
q-7 -21 -10 -32t-6.5 -25.5t-9.5 -40t-19 -74.5q-14 -54 -21 -83.5t-10 -45.5q-4 -18 -3 -24q-26 -5 -43 -1t-23 23t-1 55.5t22 97.5zM322 782q-21 0 -47 -5.5t-55 -16.5q12 -2 27 -6t27 -10t19 -14.5t3 -19.5q-2 -6 -12 -31t-24.5 -63t-32 -87t-35.5 -103l-22 -65
q45 7 83 29.5t68 54.5t52 71.5t35 81.5q16 54 13.5 89.5t-17 56.5t-37 29.5t-45.5 8.5zM303 863q-1 -2 -5 -1.5t-8 3t-5.5 7t1.5 11.5q8 16 28 37t43 40.5t44 35.5t31 21v1q15 -9 24 -22t12.5 -25.5t1.5 -22t-8 -10.5q-20 -4 -43 -11.5t-45 -17.5t-41 -21.5t-30 -24.5z" />
    <glyph glyph-name="racute" unicode="&#x155;" horiz-adv-x="317" 
d="M30 202q38 68 55.5 132t21.5 118q-23 14 -37.5 30t-18.5 36q-4 19 11.5 31t35.5 18t37.5 7.5t17.5 0.5q2 -25 1 -49.5t-5 -50.5l49 -18q35 -13 56 -21.5t30 -19.5t6.5 -29.5t-13.5 -51.5q-10 -30 -17.5 -53.5t-13.5 -47t-11.5 -49t-11.5 -60.5q-5 -27 -5 -43t5 -22
t13.5 -3.5t20.5 11.5q9 7 20 21.5t24 34.5t26 43.5t26 47.5q14 26 19 29.5t5 -10.5q0 -4 -3 -14t-12 -26q-23 -41 -47 -78t-48 -63q-56 -61 -92 -46q-28 11 -36 69t24 166q19 63 27 97.5t9 51t-5 21t-16 8.5q-10 3 -19 6.5t-17 7.5q-14 -63 -39.5 -121.5t-50.5 -106.5
q-8 -16 -15 -24t-10 -10q-12 -8 -11.5 -2t14.5 32zM203 543q-1 -2 -5 -1.5t-8 3t-5.5 7t1.5 11.5q8 16 28 37t43 40.5t44 35.5t31 21v1q15 -9 24 -22t12.5 -25.5t1.5 -22t-8 -10.5q-20 -4 -43 -11.5t-45 -17.5t-41 -21.5t-30 -24.5z" />
    <glyph glyph-name="uni0156" unicode="&#x156;" horiz-adv-x="465" 
d="M35 175q12 43 24.5 86.5t29.5 105.5t42 152.5t62 227.5q-35 -17 -69 -43t-64 -62q-3 -4 -7 8t-6.5 28.5t-3.5 31.5t2 18q13 13 42.5 29t70 30t88 24t97.5 10q38 0 73 -12.5t58.5 -39.5t30 -69t-12.5 -102q-28 -85 -96 -152t-162 -101q24 -14 46 -51t50 -112
q14 -38 26.5 -62.5t23.5 -37.5t20 -15.5t16 2.5q9 7 20 21.5t24 34.5t26 43.5t26 47.5q14 26 18.5 29.5t4.5 -10.5q0 -4 -2.5 -14t-11.5 -26q-23 -41 -47 -78t-48 -63q-56 -61 -92 -46q-12 5 -22 15.5t-21.5 32.5t-24.5 58.5t-31 92.5q-15 47 -34 79.5t-42 38.5
q-7 -21 -10 -32t-6.5 -25.5t-9.5 -40t-19 -74.5q-14 -54 -21 -83.5t-10 -45.5q-4 -18 -3 -24q-26 -5 -43 -1t-23 23t-1 55.5t22 97.5zM322 782q-21 0 -47 -5.5t-55 -16.5q12 -2 27 -6t27 -10t19 -14.5t3 -19.5q-2 -6 -12 -31t-24.5 -63t-32 -87t-35.5 -103l-22 -65
q45 7 83 29.5t68 54.5t52 71.5t35 81.5q16 54 13.5 89.5t-17 56.5t-37 29.5t-45.5 8.5zM253 -111q-8 -28 -29.5 -50.5t-48.5 -40.5q-13 -8 -23.5 -9.5t-17 0t-9 5.5t0.5 6q18 15 34 28.5t24.5 24t8 16.5t-15.5 6t-27 7.5t-18.5 19.5t-7 26.5t8.5 28.5q7 11 18 17t24 7.5
t26.5 -2t25.5 -10.5q24 -16 28.5 -36t-2.5 -44z" />
    <glyph glyph-name="uni0157" unicode="&#x157;" horiz-adv-x="317" 
d="M30 202q38 68 55.5 132t21.5 118q-23 14 -37.5 30t-18.5 36q-4 19 11.5 31t35.5 18t37.5 7.5t17.5 0.5q2 -25 1 -49.5t-5 -50.5l49 -18q35 -13 56 -21.5t30 -19.5t6.5 -29.5t-13.5 -51.5q-10 -30 -17.5 -53.5t-13.5 -47t-11.5 -49t-11.5 -60.5q-5 -27 -5 -43t5 -22
t13.5 -3.5t20.5 11.5q9 7 20 21.5t24 34.5t26 43.5t26 47.5q14 26 19 29.5t5 -10.5q0 -4 -3 -14t-12 -26q-23 -41 -47 -78t-48 -63q-56 -61 -92 -46q-28 11 -36 69t24 166q19 63 27 97.5t9 51t-5 21t-16 8.5q-10 3 -19 6.5t-17 7.5q-14 -63 -39.5 -121.5t-50.5 -106.5
q-8 -16 -15 -24t-10 -10q-12 -8 -11.5 -2t14.5 32zM164 -128q-8 -28 -29.5 -50.5t-48.5 -40.5q-13 -8 -23.5 -9.5t-17 0t-9 5.5t0.5 6q18 15 34 28.5t24.5 24t8 16.5t-15.5 6t-27 7.5t-18.5 19.5t-7 26.5t8.5 28.5q7 11 18 17t24 7.5t26.5 -2t25.5 -10.5q24 -16 28.5 -36
t-2.5 -44z" />
    <glyph glyph-name="Rcaron" unicode="&#x158;" horiz-adv-x="465" 
d="M35 175q12 43 24.5 86.5t29.5 105.5t42 152.5t62 227.5q-35 -17 -69 -43t-64 -62q-3 -4 -7 8t-6.5 28.5t-3.5 31.5t2 18q13 13 42.5 29t70 30t88 24t97.5 10q38 0 73 -12.5t58.5 -39.5t30 -69t-12.5 -102q-28 -85 -96 -152t-162 -101q24 -14 46 -51t50 -112
q14 -38 26.5 -62.5t23.5 -37.5t20 -15.5t16 2.5q9 7 20 21.5t24 34.5t26 43.5t26 47.5q14 26 18.5 29.5t4.5 -10.5q0 -4 -2.5 -14t-11.5 -26q-23 -41 -47 -78t-48 -63q-56 -61 -92 -46q-12 5 -22 15.5t-21.5 32.5t-24.5 58.5t-31 92.5q-15 47 -34 79.5t-42 38.5
q-7 -21 -10 -32t-6.5 -25.5t-9.5 -40t-19 -74.5q-14 -54 -21 -83.5t-10 -45.5q-4 -18 -3 -24q-26 -5 -43 -1t-23 23t-1 55.5t22 97.5zM322 782q-21 0 -47 -5.5t-55 -16.5q12 -2 27 -6t27 -10t19 -14.5t3 -19.5q-2 -6 -12 -31t-24.5 -63t-32 -87t-35.5 -103l-22 -65
q45 7 83 29.5t68 54.5t52 71.5t35 81.5q16 54 13.5 89.5t-17 56.5t-37 29.5t-45.5 8.5zM509 1037q8 2 12 0.5t5.5 -4.5t1 -6.5t-1.5 -4.5q-29 -16 -65 -56t-74 -86q-4 -5 -8.5 -5t-12.5 4.5t-19.5 15t-28.5 27.5q-14 14 -28 30.5t-26 31.5t-21 27.5t-12 19.5l-1 1
q9 15 21.5 22t23.5 8.5t19.5 -1.5t9.5 -9q5 -26 17 -54.5t28 -53.5q12 8 32.5 22t43.5 28.5t45.5 26.5t38.5 16z" />
    <glyph glyph-name="rcaron" unicode="&#x159;" horiz-adv-x="317" 
d="M30 202q38 68 55.5 132t21.5 118q-23 14 -37.5 30t-18.5 36q-4 19 11.5 31t35.5 18t37.5 7.5t17.5 0.5q2 -25 1 -49.5t-5 -50.5l49 -18q35 -13 56 -21.5t30 -19.5t6.5 -29.5t-13.5 -51.5q-10 -30 -17.5 -53.5t-13.5 -47t-11.5 -49t-11.5 -60.5q-5 -27 -5 -43t5 -22
t13.5 -3.5t20.5 11.5q9 7 20 21.5t24 34.5t26 43.5t26 47.5q14 26 19 29.5t5 -10.5q0 -4 -3 -14t-12 -26q-23 -41 -47 -78t-48 -63q-56 -61 -92 -46q-28 11 -36 69t24 166q19 63 27 97.5t9 51t-5 21t-16 8.5q-10 3 -19 6.5t-17 7.5q-14 -63 -39.5 -121.5t-50.5 -106.5
q-8 -16 -15 -24t-10 -10q-12 -8 -11.5 -2t14.5 32zM383 709q8 2 12 0.5t5.5 -4.5t1 -6.5t-1.5 -4.5q-29 -16 -65 -56t-74 -86q-4 -5 -8.5 -5t-12.5 4.5t-19.5 15t-28.5 27.5q-14 14 -28 30.5t-26 31.5t-21 27.5t-12 19.5l-1 1q9 15 21.5 22t23.5 8.5t19.5 -1.5t9.5 -9
q5 -26 17 -54.5t28 -53.5q12 8 32.5 22t43.5 28.5t45.5 26.5t38.5 16z" />
    <glyph glyph-name="Sacute" unicode="&#x15a;" horiz-adv-x="346" 
d="M244 163q12 45 1.5 83.5t-31 74.5t-46.5 71.5t-46 74.5t-28.5 83t5.5 97q16 61 49 99t71 55t74 14t58 -25q17 -17 28.5 -38.5t14.5 -51t-4 -67.5t-27 -87v-1q-11 -2 -25.5 1t-27.5 9.5t-21 15.5t-5 20q1 2 6.5 14.5t13.5 29.5t17 36.5t15 37t8.5 29.5t-2.5 15
q-21 11 -46.5 9.5t-49.5 -13.5t-42.5 -34t-25.5 -53q-12 -51 -2.5 -92.5t29.5 -77.5t45.5 -70.5t45 -71.5t28 -80.5t-5.5 -97.5q-18 -68 -54 -110t-76.5 -60.5t-79.5 -15t-63 27.5q-17 17 -26 49.5t-9 75t9 91.5t29 99l1 1q10 1 25 -2t28 -9t21 -15.5t5 -20.5q-1 -2 -8 -19
t-17 -42t-20.5 -53.5t-18.5 -53.5t-11.5 -43t1.5 -20q24 -12 52.5 -11t55.5 15t49 40.5t33 66.5zM226 837q-1 -2 -5 -1.5t-8 3t-5.5 7t1.5 11.5q8 16 28 37t43 40.5t44 35.5t31 21v1q15 -9 24 -22t12.5 -25.5t1.5 -22t-8 -10.5q-20 -4 -43 -11.5t-45 -17.5t-41 -21.5
t-30 -24.5z" />
    </font>
</defs>
</svg>
